<?xml version="1.0" encoding="UTF-8"?>
<svg width="107px" height="26px" viewBox="0 0 107 26" version="1.1" xmlns="http://www.w3.org/2000/svg" xmlns:xlink="http://www.w3.org/1999/xlink">
    <!-- Generator: sketchtool 63.1 (101010) - https://sketch.com -->
    <title>74885772-9223-4F8F-90F0-354F66535538</title>
    <desc>Created with sketchtool.</desc>
    <defs>
        <rect id="path-1" x="0" y="0" width="126.842798" height="45.3942992"></rect>
        <rect id="path-3" x="0" y="0" width="126.842798" height="45.3942992"></rect>
        <rect id="path-5" x="0" y="0" width="126.842798" height="45.3942992"></rect>
        <rect id="path-7" x="0" y="0" width="126.842798" height="45.3942992"></rect>
        <rect id="path-9" x="0" y="0" width="126.842798" height="45.3942992"></rect>
        <rect id="path-11" x="0" y="0" width="126.842798" height="45.3942992"></rect>
        <rect id="path-13" x="0" y="0" width="126.842798" height="45.3942992"></rect>
        <rect id="path-15" x="0" y="0" width="126.842798" height="45.3942992"></rect>
        <rect id="path-17" x="0" y="0" width="126.842798" height="45.3942992"></rect>
    </defs>
    <g id="Page-1" stroke="none" stroke-width="1" fill="none" fill-rule="evenodd">
        <g id="X-box-2" transform="translate(-666.000000, -9472.000000)">
            <g id="About" transform="translate(0.000000, 9397.000000)">
                <g transform="translate(363.000000, 65.000000)" id="xolution-logo">
                    <g transform="translate(293.000000, 0.000000)">
                        <polygon id="Path" fill="#5B467A" fill-rule="nonzero" points="42.4605993 22.6939996 39.1439993 17.7498997 42.3597993 17.7498997 44.1475992 20.5813996 45.9493992 17.7498997 49.0923992 17.7498997 45.7771992 22.6645996 49.2365992 27.8102995 46.0221992 27.8102995 44.0901992 24.7778996 42.1427993 27.8102995 38.9997993 27.8102995"></polygon>
                        <g id="Group">
                            <g id="Clipped">
                                <mask id="mask-2" fill="white">
                                    <use xlink:href="#path-1"></use>
                                </mask>
                                <g id="SVGID_1_"></g>
                                <path d="M49.1805992,22.8087996 L49.1805992,22.7800996 C49.1805992,19.8918997 51.5171991,17.5489997 54.6307991,17.5489997 C57.745099,17.5489997 60.052299,19.8631997 60.052299,22.7520996 L60.052299,22.7800996 C60.052299,25.6689996 57.716399,28.0118995 54.6020991,28.0118995 C51.4877991,28.0118995 49.1805992,25.6976996 49.1805992,22.8087996 M57.196999,22.8087996 L57.196999,22.7800996 C57.196999,21.3289996 56.144899,20.0640997 54.6020991,20.0640997 C53.0739991,20.0640997 52.0498991,21.2995996 52.0498991,22.7520996 L52.0498991,22.7800996 C52.0498991,24.2318996 53.1026991,25.4960996 54.6307991,25.4960996 C56.174299,25.4960996 57.196999,24.2605996 57.196999,22.8087996" id="Shape" fill="#5B467A" fill-rule="nonzero" mask="url(#mask-2)"></path>
                            </g>
                            <g id="Clipped">
                                <mask id="mask-4" fill="white">
                                    <use xlink:href="#path-3"></use>
                                </mask>
                                <g id="SVGID_1_"></g>
                                <polygon id="Path" fill="#5B467A" fill-rule="nonzero" mask="url(#mask-4)" points="61.510399 17.7498997 64.3075989 17.7498997 64.3075989 25.3679996 69.1963988 25.3679996 69.1963988 27.8102995 61.510399 27.8102995"></polygon>
                            </g>
                            <g id="Clipped">
                                <mask id="mask-6" fill="white">
                                    <use xlink:href="#path-5"></use>
                                </mask>
                                <g id="SVGID_1_"></g>
                                <path d="M69.9754988,23.3981996 L69.9754988,17.7498997 L72.8160988,17.7498997 L72.8160988,23.3407996 C72.8160988,24.7918996 73.5517987,25.4827996 74.6759987,25.4827996 C75.8008987,25.4827996 76.5358987,24.8219996 76.5358987,23.4128996 L76.5358987,17.7505997 L79.3764986,17.7505997 L79.3764986,23.3267996 C79.3764986,26.5754995 77.5172987,27.9978995 74.6472987,27.9978995 C71.7772988,27.9978995 69.9754988,26.5453995 69.9754988,23.3981996" id="Path" fill="#5B467A" fill-rule="nonzero" mask="url(#mask-6)"></path>
                            </g>
                            <g id="Clipped">
                                <mask id="mask-8" fill="white">
                                    <use xlink:href="#path-7"></use>
                                </mask>
                                <g id="SVGID_1_"></g>
                                <polygon id="Path" fill="#5B467A" fill-rule="nonzero" mask="url(#mask-8)" points="83.5015986 20.1935997 80.4733986 20.1935997 80.4733986 17.7498997 89.3262985 17.7498997 89.3262985 20.1935997 86.2987985 20.1935997 86.2987985 27.8102995 83.5015986 27.8102995"></polygon>
                            </g>
                            <g id="Clipped">
                                <mask id="mask-10" fill="white">
                                    <use xlink:href="#path-9"></use>
                                </mask>
                                <g id="SVGID_1_"></g>
                                <rect id="Rectangle" fill="#5B467A" fill-rule="nonzero" mask="url(#mask-10)" x="90.6107985" y="17.7498997" width="2.81189995" height="10.0603998"></rect>
                            </g>
                            <g id="Clipped">
                                <mask id="mask-12" fill="white">
                                    <use xlink:href="#path-11"></use>
                                </mask>
                                <g id="SVGID_1_"></g>
                                <path d="M94.9227984,22.8087996 L94.9227984,22.7800996 C94.9227984,19.8918997 97.2586983,17.5489997 100.372998,17.5489997 C103.486598,17.5489997 105.793798,19.8631997 105.793798,22.7520996 L105.793798,22.7800996 C105.793798,25.6689996 103.457198,28.0118995 100.344298,28.0118995 C97.2292983,28.0118995 94.9227984,25.6976996 94.9227984,22.8087996 M102.939898,22.8087996 L102.939898,22.7800996 C102.939898,21.3289996 101.887798,20.0640997 100.344998,20.0640997 C98.8154983,20.0640997 97.7920983,21.2995996 97.7920983,22.7520996 L97.7920983,22.7800996 C97.7920983,24.2318996 98.8448983,25.4960996 100.373698,25.4960996 C101.915798,25.4960996 102.939898,24.2605996 102.939898,22.8087996" id="Shape" fill="#5B467A" fill-rule="nonzero" mask="url(#mask-12)"></path>
                            </g>
                            <g id="Clipped">
                                <mask id="mask-14" fill="white">
                                    <use xlink:href="#path-13"></use>
                                </mask>
                                <g id="SVGID_1_"></g>
                                <polygon id="Path" fill="#5B467A" fill-rule="nonzero" mask="url(#mask-14)" points="107.252598 17.7498997 109.862198 17.7498997 114.014598 23.0684996 114.014598 17.7498997 116.782398 17.7498997 116.782398 27.8102995 114.331698 27.8102995 110.020398 22.2914996 110.020398 27.8102995 107.252598 27.8102995"></polygon>
                            </g>
                            <g id="Clipped">
                                <mask id="mask-16" fill="white">
                                    <use xlink:href="#path-15"></use>
                                </mask>
                                <g id="SVGID_1_"></g>
                                <polygon id="Path" fill="#5B467A" fill-rule="nonzero" mask="url(#mask-16)" points="14.9589997 12.5341998 18.0998997 12.5341998 24.0421996 20.5729996 25.5870996 18.4932997 19.3570997 10.0603998 10.0603998 10.0603998 19.3717997 22.7121996 13.9929998 29.9480995 17.0708997 29.9480995 22.4377996 22.6946996"></polygon>
                            </g>
                            <g id="Clipped">
                                <mask id="mask-18" fill="white">
                                    <use xlink:href="#path-17"></use>
                                </mask>
                                <g id="SVGID_1_"></g>
                                <polygon id="Path" fill="#F8B132" fill-rule="nonzero" mask="url(#mask-18)" points="33.0826994 32.8600994 29.9417995 32.8600994 23.9994996 24.8212996 22.4545996 26.9009995 28.6845995 35.3338994 37.9812994 35.3338994 28.6698995 22.6820996 34.0486994 15.4461997 30.9707995 15.4461997 25.6038996 22.6995996"></polygon>
                            </g>
                        </g>
                    </g>
                </g>
            </g>
        </g>
    </g>
</svg>