<?xml version="1.0" encoding="UTF-8"?>
<!-- Generator: Adobe Illustrator 22.1.0, SVG Export Plug-In . SVG Version: 6.00 Build 0)  -->
<svg width="64" height="64" enable-background="new 0 0 841.89 595.276" version="1.1" viewBox="0 0 64 64" xml:space="preserve" xmlns="http://www.w3.org/2000/svg" xmlns:cc="http://creativecommons.org/ns#" xmlns:dc="http://purl.org/dc/elements/1.1/" xmlns:rdf="http://www.w3.org/1999/02/22-rdf-syntax-ns#"><metadata><rdf:RDF><cc:Work rdf:about=""><dc:format>image/svg+xml</dc:format><dc:type rdf:resource="http://purl.org/dc/dcmitype/StillImage"/><dc:title/></cc:Work></rdf:RDF></metadata><g fill="#fbfdff">
<path d="m32 0c-17.673 0-32 14.327-32 32s14.327 32 32 32 32-14.327 32-32-14.327-32-32-32m0 1.28c16.939 0 30.72 13.781 30.72 30.72s-13.781 30.72-30.72 30.72-30.72-13.781-30.72-30.72 13.781-30.72 30.72-30.72"/>
<path d="m46.149 47.06h-28.837c-0.386 0-0.698-0.312-0.698-0.698v-26.907c0-0.386 0.312-0.698 0.698-0.698h4.972c0.385 0 0.697 0.312 0.697 0.698 0 0.385-0.312 0.697-0.697 0.697h-4.275v25.513h27.442v-25.513h-4.274c-0.385 0-0.698-0.312-0.698-0.697 0-0.386 0.313-0.698 0.698-0.698h4.972c0.385 0 0.697 0.312 0.697 0.698v26.907c0 0.386-0.312 0.698-0.697 0.698"/>
<path d="m22.982 21.747h2.582v-3.588h-2.582zm3.28 1.395h-3.978c-0.385 0-0.698-0.312-0.698-0.698v-4.983c0-0.384 0.313-0.697 0.698-0.697h3.978c0.385 0 0.698 0.313 0.698 0.697v4.983c0 0.386-0.313 0.698-0.698 0.698"/>
<path d="m37.897 21.747h2.582v-3.588h-2.582zm3.28 1.395h-3.978c-0.385 0-0.697-0.312-0.697-0.698v-4.983c0-0.384 0.312-0.697 0.697-0.697h3.978c0.385 0 0.698 0.313 0.698 0.697v4.983c0 0.386-0.313 0.698-0.698 0.698"/>
<path d="m37.2 20.152h-10.938c-0.386 0-0.698-0.312-0.698-0.697 0-0.386 0.312-0.699 0.698-0.699h10.938c0.385 0 0.698 0.313 0.698 0.699 0 0.385-0.313 0.697-0.698 0.697"/>
<path d="m46.149 27.128h-28.837c-0.386 0-0.698-0.312-0.698-0.697 0-0.386 0.312-0.698 0.698-0.698h28.837c0.385 0 0.697 0.312 0.697 0.698 0 0.385-0.312 0.697-0.697 0.697"/>
<path d="m24.273 44.546c-0.385 0-0.698-0.312-0.698-0.698v-15.078c0-0.385 0.313-0.698 0.698-0.698s0.698 0.313 0.698 0.698v15.078c0 0.386-0.313 0.698-0.698 0.698"/>
<path d="m31.234 44.546c-0.385 0-0.698-0.312-0.698-0.698v-15.078c0-0.385 0.313-0.698 0.698-0.698s0.698 0.313 0.698 0.698v15.078c0 0.386-0.313 0.698-0.698 0.698"/>
<path d="m38.194 44.546c-0.385 0-0.698-0.312-0.698-0.698v-15.078c0-0.385 0.313-0.698 0.698-0.698s0.698 0.313 0.698 0.698v15.078c0 0.386-0.313 0.698-0.698 0.698"/>
<path d="m43.642 32.112h-23.823c-0.384 0-0.697-0.313-0.697-0.698s0.313-0.698 0.697-0.698h23.823c0.385 0 0.698 0.313 0.698 0.698s-0.313 0.698-0.698 0.698"/>
<path d="m43.642 37.094h-23.823c-0.384 0-0.697-0.312-0.697-0.698 0-0.385 0.313-0.697 0.697-0.697h23.823c0.385 0 0.698 0.312 0.698 0.697 0 0.386-0.313 0.698-0.698 0.698"/>
<path d="m43.642 42.077h-23.823c-0.384 0-0.697-0.312-0.697-0.698 0-0.385 0.313-0.697 0.697-0.697h23.823c0.385 0 0.698 0.312 0.698 0.697 0 0.386-0.313 0.698-0.698 0.698"/>
</g></svg>
