<?xml version="1.0" encoding="UTF-8"?>
<!-- Generator: Adobe Illustrator 22.1.0, SVG Export Plug-In . SVG Version: 6.00 Build 0)  -->
<svg width="64" height="64" enable-background="new 0 0 841.89 595.276" version="1.1" viewBox="0 0 64 64" xml:space="preserve" xmlns="http://www.w3.org/2000/svg" xmlns:cc="http://creativecommons.org/ns#" xmlns:dc="http://purl.org/dc/elements/1.1/" xmlns:rdf="http://www.w3.org/1999/02/22-rdf-syntax-ns#"><metadata><rdf:RDF><cc:Work rdf:about=""><dc:format>image/svg+xml</dc:format><dc:type rdf:resource="http://purl.org/dc/dcmitype/StillImage"/><dc:title/></cc:Work></rdf:RDF></metadata><g fill="#fbfdff">
<path d="m32 0c-17.673 0-32 14.327-32 32s14.327 32 32 32 32-14.327 32-32-14.327-32-32-32m0 1.28c16.939 0 30.72 13.781 30.72 30.72 0 16.94-13.781 30.72-30.72 30.72s-30.72-13.78-30.72-30.72c0-16.939 13.781-30.72 30.72-30.72"/>
<path d="m18.717 41.642c-0.114 0-0.229-0.022-0.338-0.067-0.331-0.137-0.546-0.46-0.546-0.818v-5.436h-4.161c-0.488 0-0.884-0.396-0.884-0.885v-18.937c0-0.489 0.396-0.885 0.884-0.885h30.27c0.488 0 0.884 0.396 0.884 0.885v10.361c0 0.489-0.396 0.885-0.884 0.885-0.489 0-0.885-0.396-0.885-0.885v-9.477h-28.5v17.168h4.16c0.489 0 0.885 0.396 0.885 0.885v4.181l4.795-4.806c0.166-0.166 0.391-0.26 0.627-0.26h1.891c0.489 0 0.885 0.396 0.885 0.885s-0.396 0.885-0.885 0.885h-1.524l-6.048 6.061c-0.168 0.17-0.396 0.26-0.626 0.26"/>
<path d="m30.954 41.136h9.205c0.249 0 0.487 0.106 0.655 0.291l4.766 5.255v-4.66c0-0.49 0.396-0.886 0.885-0.886h2.898v-10.873h-18.409zm15.511 8.724c-0.246 0-0.485-0.102-0.656-0.29l-6.042-6.664h-9.698c-0.489 0-0.885-0.396-0.885-0.884v-12.643c0-0.49 0.396-0.886 0.885-0.886h20.179c0.489 0 0.885 0.396 0.885 0.886v12.643c0 0.488-0.396 0.884-0.885 0.884h-2.898v6.069c0 0.366-0.225 0.694-0.567 0.825-0.103 0.04-0.211 0.06-0.318 0.06"/>
</g></svg>
