<?xml version="1.0" encoding="UTF-8"?>
<!-- Generator: Adobe Illustrator 22.1.0, SVG Export Plug-In . SVG Version: 6.00 Build 0)  -->
<svg width="64" height="64" enable-background="new 0 0 841.89 595.276" version="1.1" viewBox="0 0 64 64" xml:space="preserve" xmlns="http://www.w3.org/2000/svg" xmlns:cc="http://creativecommons.org/ns#" xmlns:dc="http://purl.org/dc/elements/1.1/" xmlns:rdf="http://www.w3.org/1999/02/22-rdf-syntax-ns#"><metadata><rdf:RDF><cc:Work rdf:about=""><dc:format>image/svg+xml</dc:format><dc:type rdf:resource="http://purl.org/dc/dcmitype/StillImage"/><dc:title/></cc:Work></rdf:RDF></metadata><g fill="#fbfdff">
<path d="m32 0c-17.673 0-32 14.327-32 32s14.327 32 32 32 32-14.327 32-32-14.327-32-32-32m0 1.28c16.939 0 30.72 13.781 30.72 30.72 0 16.94-13.781 30.72-30.72 30.72s-30.72-13.78-30.72-30.72c0-16.939 13.781-30.72 30.72-30.72"/>
<path d="m30.859 35.376c0.591-0.239 1.165-0.467 1.703-0.678v-3.41s-0.327-0.366-0.708-0.888c-0.516 1.037-0.995 1.581-0.995 1.581z"/>
<path d="m30.859 36.294c-0.506 0-0.918-0.411-0.918-0.917v-3.395c0-0.223 0.082-0.438 0.229-0.606 2e-3 -1e-3 0.416-0.485 0.862-1.383 0.225-0.453 0.776-0.639 1.23-0.414 0.453 0.226 0.639 0.777 0.413 1.23-0.349 0.703-0.685 1.202-0.899 1.491v3.077c0 0.506-0.411 0.917-0.917 0.917"/>
<path d="m21.419 47.09h-8.667c-0.506 0-0.916-0.411-0.916-0.917v-5.324c0-0.673-1e-3 -1.683 11.142-6.082v-2.444c-0.396-0.475-1.165-1.466-1.602-2.498-0.231-0.09-0.45-0.243-0.64-0.454-0.948-1.054-1.245-3.6-0.578-4.951 0.143-0.292 0.329-0.535 0.548-0.722-0.599-0.912-1.38-2.261-0.942-3.504 0.211-0.598 0.655-1.06 1.323-1.378 0.154-0.553 0.557-1.19 1.469-1.788 2.192-1.437 6.613-2.064 9.452-0.667 0.455 0.223 0.642 0.773 0.418 1.227-0.223 0.455-0.773 0.642-1.227 0.419-2.184-1.075-5.9-0.584-7.638 0.556-0.462 0.303-0.732 0.627-0.721 0.866 0.019 0.417-0.244 0.794-0.643 0.919-0.227 0.07-0.621 0.224-0.702 0.456-0.18 0.509 0.591 1.66 0.919 2.15 0.343 0.513 0.551 0.823 0.551 1.214 0 0.256-0.107 0.5-0.295 0.674-0.187 0.174-0.436 0.262-0.694 0.241-0.058-4e-3 -0.109-9e-3 -0.197 0.199-0.34 0.804-0.052 2.309 0.25 2.774 0.151-6e-3 0.303 0.032 0.44 0.102 0.229 0.119 0.398 0.328 0.465 0.577 0.254 0.944 1.272 2.221 1.642 2.633 0.152 0.168 0.236 0.388 0.236 0.614v3.41c0 0.377-0.231 0.717-0.583 0.854-5.963 2.336-9.771 4.192-10.559 4.864v4.146h7.749c0.506 0 0.917 0.41 0.917 0.917 0 0.506-0.411 0.917-0.917 0.917"/>
<path d="m50.667 46.396h-8.928c-0.507 0-0.917-0.411-0.917-0.917 0-0.507 0.41-0.917 0.917-0.917h8.011v-4.146c-0.788-0.672-4.597-2.527-10.56-4.863-0.351-0.138-0.583-0.478-0.583-0.855v-3.41c0-0.225 0.083-0.443 0.233-0.611 5e-3 -6e-3 0.815-0.944 1.401-2.69 0.107-0.319 0.379-0.549 0.701-0.61 0.337-0.373 0.75-1.987 0.426-2.81-0.074-0.188-0.108-0.185-0.199-0.178-0.254 0.02-0.506-0.067-0.694-0.241-0.188-0.173-0.295-0.418-0.295-0.673 0-0.337 0.152-0.62 0.381-1.047 0.363-0.677 0.912-1.699 0.864-2.844-0.043-1.035-0.55-1.779-1.553-2.273-1.788-0.881-4.597-0.709-6.509 0 0.762 0.759 1.181 1.737 1.228 2.891 0.059 1.407-0.479 2.63-0.887 3.423 0.181 0.137 0.341 0.31 0.477 0.518 0.828 1.276 0.432 3.499-0.173 4.612-0.266 0.491-0.563 0.779-0.847 0.942-0.143 0.378-0.304 0.745-0.487 1.113-0.225 0.453-0.776 0.638-1.23 0.413-0.453-0.226-0.637-0.777-0.412-1.23 0.213-0.43 0.39-0.858 0.542-1.311 0.108-0.32 0.379-0.55 0.702-0.611 0.336-0.373 0.749-1.987 0.426-2.809-0.075-0.188-0.109-0.186-0.2-0.178-0.253 0.02-0.506-0.068-0.694-0.242-0.188-0.173-0.294-0.418-0.294-0.673 0-0.336 0.151-0.619 0.38-1.046 0.363-0.677 0.913-1.7 0.865-2.845-0.043-1.033-0.553-1.776-1.561-2.271-0.29-0.143-0.484-0.428-0.509-0.752-0.025-0.322 0.122-0.635 0.387-0.821 2.171-1.528 6.741-2.181 9.607-0.768 1.613 0.795 2.504 2.124 2.575 3.841 0.059 1.409-0.48 2.631-0.887 3.423 0.181 0.137 0.341 0.311 0.476 0.519 0.828 1.276 0.432 3.498-0.173 4.613-0.265 0.489-0.563 0.777-0.847 0.94-0.49 1.3-1.069 2.18-1.385 2.604v2.467c11.142 4.399 11.142 5.409 11.142 6.082v5.324c0 0.506-0.411 0.917-0.917 0.917"/>
<path d="m42.001 47.09h-20.582c-0.506 0-0.917-0.411-0.917-0.917 0-0.507 0.411-0.917 0.917-0.917h19.665v-4.146c-0.788-0.672-4.597-2.528-10.56-4.864-0.471-0.185-0.704-0.717-0.519-1.189 0.184-0.47 0.716-0.706 1.188-0.519 11.725 4.594 11.725 5.627 11.725 6.311v5.324c0 0.506-0.411 0.917-0.917 0.917"/>
</g></svg>
