<?xml version="1.0" encoding="UTF-8"?>
<svg width="17px" height="13px" viewBox="0 0 17 13" version="1.1" xmlns="http://www.w3.org/2000/svg" xmlns:xlink="http://www.w3.org/1999/xlink">
    <!-- Generator: sketchtool 63.1 (101010) - https://sketch.com -->
    <title>4ADEF0CA-A1EB-4530-8CFD-8146A46AF3BE</title>
    <desc>Created with sketchtool.</desc>
    <g id="Page-1" stroke="none" stroke-width="1" fill="none" fill-rule="evenodd">
        <g id="X-box-2" transform="translate(-150.000000, -7431.000000)" fill="#F8B132" fill-rule="nonzero">
            <g id="Form-section" transform="translate(145.000000, 7159.000000)">
                <g id="features" transform="translate(5.000000, 267.000000)">
                    <g id="icon-check" transform="translate(0.000000, 5.000000)">
                        <path d="M6.39953181,12.7432824 C6.24000056,12.9037512 6.0223443,12.9932824 5.79625052,12.9932824 C5.57015674,12.9932824 5.35250048,12.9037512 5.19296922,12.7432824 L0.375000034,7.92453195 C-0.125000011,7.4245319 -0.125000011,6.61375059 0.375000034,6.11468807 L0.978281327,5.51125049 C1.47843765,5.01125045 2.28828144,5.01125045 2.78828149,5.51125049 L5.79625052,8.51937576 L13.92422,0.391250035 C14.4243763,-0.10875001 15.2350014,-0.10875001 15.7342202,0.391250035 L16.3375015,0.994687609 C16.8375015,1.49468765 16.8375015,2.30531269 16.3375015,2.80453149 L6.39953181,12.7432824 Z" id="Path"></path>
                    </g>
                </g>
            </g>
        </g>
    </g>
</svg>