<?xml version="1.0" encoding="UTF-8"?>
<svg width="94px" height="78px" viewBox="0 0 94 78" version="1.1" xmlns="http://www.w3.org/2000/svg" xmlns:xlink="http://www.w3.org/1999/xlink">
    <!-- Generator: Sketch 63.1 (92452) - https://sketch.com -->
    <title>Shape</title>
    <desc>Created with Sketch.</desc>
    <g id="Page-1" stroke="none" stroke-width="1" fill="none" fill-rule="evenodd" opacity="0.115583147">
        <g id="X-box-2-Copy" transform="translate(-462.000000, -7738.000000)" fill="#000000" fill-rule="nonzero" stroke="#FFFFFF">
            <g id="Group-20" transform="translate(145.000000, 7719.000000)">
                <g id="podpis-2" transform="translate(317.000000, 20.000000)">
                    <path d="M9.45,48.15 C11.55,50.75 15.15,52.15 18.35,52.3 C22.1,52.45 25.7,51.55 29.25,50.1 C34.1,48.05 38.25,44.8 41.9,41.05 C42.6,40.35 43.2,39.6 43.95,39.05 C44.15,38.85 44.75,38.8 45.2,39.05 C45.5,39.25 45.8,39.85 45.75,40.2 C45.6,40.9 45.25,41.55 44.8,42.1 C41.1,47 36.45,50.65 31.05,53.1 C27.45,54.75 23.55,55.85 19.5,55.85 C14.7,55.85 9.8,54.1 6.55,50.85 C2.45,46.75 0.65,40.5 0.55,34.9 C0.45,26.75 2.5,18.7 6.15,11.8 C7.5,9.25 9.25,6.85 11.25,5 C14.7,1.85 18.95,-1.13686838e-13 23.4,-1.13686838e-13 C26.35,-1.13686838e-13 29.05,1.05 30.85,2.95 C32.9,5.05 33.4,7.7 33.4,10.4 C33.4,14.85 31.75,19 28.95,21.9 C27.35,23.55 25.45,24.8 23.4,25.5 C22.55,25.8 21.55,25.85 20.6,25.65 C19.9,25.5 19.15,24.3 19.15,23.5 C19.15,22.6 20.1,21.75 21,21.65 C23.55,21.35 25.45,20.1 26.9,18.05 C28.7,15.5 29.6,12.6 29.6,9.4 C29.6,8.05 28.95,6.45 28.25,5.4 C27.45,4.15 25.35,3.55 23.9,3.55 C19.65,3.55 16,5.45 13.35,8.55 C11.8,10.35 10.65,12.15 9.6,14.35 C6.55,20.75 4.9,27.55 4.9,34.15 C4.95,39.65 6.5,44.45 9.45,48.15 L9.45,48.15 Z M45.85,20 C45,19.95 44.2,19.6 43.55,19.15 C42.55,18.4 41.85,17.4 41.85,16.45 C41.85,15.9 42.1,15.35 42.65,14.85 C43.2,14.4 43.9,14.15 44.6,14.15 C45.25,14.15 45.9,14.35 46.4,14.85 C47.45,15.85 48.15,17.15 47.9,18.55 C47.75,19.4 46.55,20.05 45.85,20 Z M46.35,39.05 C45.05,39.15 44.1,38.15 43.6,37.3 C43.25,36.7 42.95,36.05 42.75,35.35 C42.05,32.85 41.65,30.3 41.6,27.75 C41.55,26.3 41.55,24.85 41.85,23.4 C42.15,21.85 43.25,21 44.75,21 C45.55,21 46.1,21.55 46.4,22.1 C46.85,22.9 46.95,23.95 46.95,24.85 C46.95,27.2 46.9,29.6 47.05,31.95 C47.15,33.5 47.6,35 48,36.5 C48.45,37.95 48,38.9 46.35,39.05 L46.35,39.05 Z M52.7,12.6 C52.85,10.65 53.15,8.75 54.15,7.05 C54.6,6.3 55.55,5.75 56.5,5.8 C57.3,5.85 58.05,6.95 58.15,7.95 C58.25,9.15 58.2,10.4 57.85,11.5 C56.95,14.55 56.65,17.75 56.6,21 C56.5,25.3 56.85,29.6 57.55,33.75 C57.95,36.05 59.4,38.25 61.8,38.3 C62.35,38.3 62.95,38.2 63.55,38 C67.45,36.55 71.6,33.7 74.2,30.5 C73.75,24.4 73.6,19.15 74.15,13.95 C74.55,10.05 75.9,6.5 78.1,3.3 C79,2.05 80.3,0.7 81.8,0.7 C83.3,0.7 84.05,2.15 83.9,3.4 C83.65,7.2 83.35,11 82.85,14.8 C82.5,17.6 81.85,20.45 80.5,23.05 C78.75,26.3 78.85,30.8 79,34.45 C79.3,41.4 81.25,58.85 82.65,65.75 C82.9,67 83.2,68.1 83.5,69.25 C84,71.2 85.05,72.75 86.9,73.75 C87.2,73.9 87.55,74.55 87.45,75 C87.25,75.85 86.5,76.2 85.8,76.2 C84.6,76.2 83.5,75.8 82.5,75 C81.85,74.5 81.45,74 81.05,73.4 C80,71.8 79.3,70 78.8,68.15 C78.1,65.65 77.55,63 77.15,60.4 C76,52.75 75.15,45.3 74.55,37.6 C74.5,37.05 74.4,36.25 74.3,35.2 C72.25,36.65 70.3,37.95 68.3,39.15 C65.8,40.65 63.35,41.4 60.4,41.4 C54.3,41.4 53,34.05 52.75,29.35 C52.55,26.4 52.45,23.45 52.45,20.5 C52.45,17.85 52.5,15.2 52.7,12.6 L52.7,12.6 Z M91.05,20 C90.2,19.95 89.4,19.6 88.75,19.15 C87.75,18.4 87.05,17.4 87.05,16.45 C87.05,15.9 87.3,15.35 87.85,14.85 C88.4,14.4 89.1,14.15 89.8,14.15 C90.45,14.15 91.1,14.35 91.6,14.85 C92.65,15.85 93.35,17.15 93.1,18.55 C92.95,19.4 91.75,20.05 91.05,20 Z M91.55,43.05 C90.25,43.15 89.3,42.15 88.8,41.3 C88.45,40.7 88.15,40.05 87.95,39.35 C87.25,36.85 86.85,34.3 86.8,31.75 C86.75,30.3 86.75,28.85 87.05,27.4 C87.35,25.85 88.45,25 89.95,25 C90.75,25 91.3,25.55 91.6,26.1 C92.05,26.9 92.15,27.95 92.15,28.85 C92.15,31.2 92.1,33.6 92.25,35.95 C92.35,37.5 92.8,39 93.2,40.5 C93.65,41.95 93.2,42.9 91.55,43.05 L91.55,43.05 Z" id="Shape"></path>
                </g>
            </g>
        </g>
    </g>
</svg>