<?xml version="1.0" encoding="UTF-8"?>
<svg width="52px" height="52px" viewBox="0 0 52 52" version="1.1" xmlns="http://www.w3.org/2000/svg" xmlns:xlink="http://www.w3.org/1999/xlink">
    <!-- Generator: sketchtool 63.1 (101010) - https://sketch.com -->
    <title>13C8EC0E-C819-4B52-95F1-E1AA2777D945</title>
    <desc>Created with sketchtool.</desc>
    <g id="Page-1" stroke="none" stroke-width="1" fill="none" fill-rule="evenodd">
        <g id="X-box-2" transform="translate(-702.000000, -3527.000000)" fill="#FFFFFF" fill-rule="nonzero">
            <g id="Personal" transform="translate(42.000000, 2782.000000)">
                <path d="M685.6,745 C671.4833,745 660,756.4844 660,770.6 C660,784.7156 671.4833,796.2 685.6,796.2 C699.7167,796.2 711.2,784.7156 711.2,770.6 C711.2,756.4844 699.7167,745 685.6,745 Z M695.7771,771.4969 L680.8438,781.0969 C680.6688,781.2104 680.4667,781.2667 680.2667,781.2667 C680.0917,781.2667 679.9146,781.2229 679.7563,781.1365 C679.4125,780.949 679.2,780.5906 679.2,780.2 L679.2,761 C679.2,760.6094 679.4125,760.251 679.7563,760.0635 C680.0938,759.8781 680.5167,759.8895 680.8438,760.1031 L695.7771,769.7031 C696.0813,769.8989 696.2667,770.2375 696.2667,770.6 C696.2667,770.9625 696.0813,771.301 695.7771,771.4969 Z" id="Shape"></path>
            </g>
        </g>
    </g>
</svg>