<?xml version="1.0" encoding="utf-8"?>
<!-- Generator: Adobe Illustrator 22.1.0, SVG Export Plug-In . SVG Version: 6.00 Build 0)  -->
<svg version="1.1" id="Vrstva_1" xmlns="http://www.w3.org/2000/svg" xmlns:xlink="http://www.w3.org/1999/xlink" x="0px" y="0px"
	 viewBox="0 0 159 159" enable-background="new 0 0 159 159" xml:space="preserve">
<g>
	<defs>
		<rect id="SVGID_1_" width="159" height="159"/>
	</defs>
	<clipPath id="SVGID_2_">
		<use xlink:href="#SVGID_1_"  overflow="visible"/>
	</clipPath>
	<path clip-path="url(#SVGID_2_)" fill="#FFFFFF" d="M79.5,157c42.802,0,77.5-34.698,77.5-77.5S122.302,2,79.5,2S2,36.698,2,79.5
		S36.698,157,79.5,157"/>
</g>
<g>
	<defs>
		<path id="SVGID_3_" d="M2,79.5C2,122.303,36.697,157,79.5,157c42.802,0,77.5-34.697,77.5-77.5C157,36.698,122.302,2,79.5,2
			C36.697,2,2,36.698,2,79.5"/>
	</defs>
	<clipPath id="SVGID_4_">
		<use xlink:href="#SVGID_3_"  overflow="visible"/>
	</clipPath>
	<path clip-path="url(#SVGID_4_)" fill="#F7C4A8" d="M76.274,140.91c0.389-0.464,1.005-0.66,1.579-0.577
		c0.577-0.774,1.639-1.164,2.405-0.558c1.145,0.906,2.289,2.037,3.041,3.4c0.198-0.23,0.368-0.562,0.587-0.862
		c0.692-0.949,1.149-1.871,2.325-2.089c2.384-0.444,3.776,2.334,5.194,4.128l0.09-0.157v-24.189H75.463v22.09
		C75.694,141.677,75.964,141.279,76.274,140.91"/>
	<path clip-path="url(#SVGID_4_)" fill="#F5A681" d="M75.216,123.364c3.707,4.514,10.094,7.33,16.279,7.55v-10.907H75.216V123.364z"
		/>
	<path clip-path="url(#SVGID_4_)" fill="#641510" d="M88.59,157.769c-0.005-0.098-0.01-0.193-0.015-0.29
		C88.579,157.587,88.584,157.685,88.59,157.769"/>
	<path clip-path="url(#SVGID_4_)" fill="#FBDB99" d="M114.657,136.415c-8.103-1.798-15.942-2.673-23.191-2.963
		c-0.978,3.519-4.198,6.105-8.028,6.105c-3.74,0-6.905-2.462-7.963-5.854c-14.886,1.05-24.71,4.005-24.71,4.005
		c13.42,46.432,8.993,83.74,8.993,83.74c9.294,4.301,17.663,5.955,24.841,6.151c0.322,0.009,0.945-0.878,0.945-0.878
		s1.204,0.897,1.784,0.883c15.451-0.363,24.694-7.328,24.694-7.328C104.527,209.796,114.657,136.415,114.657,136.415"/>
	<path clip-path="url(#SVGID_4_)" fill="#E84628" d="M114.657,136.415c-8.103-1.798-12.777-2.549-20.026-2.839
		c-0.978,3.519-11.054,19.95-11.054,19.95s-10.375-16.172-11.432-19.563c-14.887,1.049-21.38,3.745-21.38,3.745
		c13.42,46.432,8.81,83.802,8.81,83.802c9.293,4.301,17.846,5.893,25.024,6.089c0.322,0.009,0.945-0.878,0.945-0.878
		s1.204,0.897,1.784,0.883c15.451-0.363,24.694-7.328,24.694-7.328C104.527,209.796,114.657,136.415,114.657,136.415"/>
	<path clip-path="url(#SVGID_4_)" fill="#FBDB99" d="M114.71,136.362c0,0,16.313,40.175,21.069,42.051v15.561
		c-10.319-1.331-24.993-23.147-24.993-23.147S109.865,152.457,114.71,136.362"/>
	<path clip-path="url(#SVGID_4_)" fill="#6F2010" d="M115.862,35.375c-3.144-1.038-4.957-2.046-5.995-2.901
		c0.511-1.464,0.665-3.044,0.258-4.69c-2.086-8.435-10.43-5.061-10.43-5.061s-2.087,15.745-1.044,17.994
		c0.07,0.149,0.192,0.256,0.355,0.328c-1.587,2.802-2.429,5.698-1.398,8.107c3.13,7.31,10.431,29.803,10.431,29.803l3.609-0.326
		c0,0,1.606-8.109,6.822-17.669C123.685,51.401,122.25,37.483,115.862,35.375"/>
	<path clip-path="url(#SVGID_4_)" fill="#A55529" d="M111.857,77.712c-0.217-0.36-1.051-1.206-2.319-2.391
		c0.427,1.17,1.057,2.028,1.978,2.472c0.134,0.064,0.229,0.098,0.295,0.108C111.825,77.842,111.841,77.779,111.857,77.712"/>
	<path clip-path="url(#SVGID_4_)" fill="#461511" d="M109.082,51.194c-0.521-11.474-4.693-7.301-5.389-8.866
		c-0.431-0.97,1.875-5.811,3.196-8.401c-2.334,3.92-7.091,8.798-5.63,4.576c1.565-4.519-0.173-12.864-0.173-12.864
		s0.869,5.389-1.565,12.691c-0.288,0.863-0.601,1.598-0.927,2.225c0.019,0.057,0.036,0.117,0.058,0.162
		c0.069,0.15,0.191,0.256,0.354,0.329c-1.586,2.801-2.428,5.698-1.398,8.106c1.993,4.654,6.441,21.611,8.855,28.851
		c1.504,1.328,4.546-0.471,3.074-2.682C107.79,70.53,109.501,60.415,109.082,51.194"/>
	<path clip-path="url(#SVGID_4_)" fill="#6F2010" d="M51.873,79.379c0,0-1.607-8.109-6.822-17.669
		c-5.215-9.559-3.781-23.476,2.608-25.585c8.412-2.777,7.301-5.342,7.301-5.342s14.081,11.808,10.952,19.119
		c-3.129,7.31-10.43,29.802-10.43,29.802L51.873,79.379z"/>
	<path clip-path="url(#SVGID_4_)" fill="#491911" d="M50.149,73.533c0,0,4.259-10.778,0.261-18.254c0,0,5.997,2.521,8.084,2.173
		c2.086-0.348-3.564,22.861-3.825,22.774C54.408,80.139,50.149,73.533,50.149,73.533"/>
	<path clip-path="url(#SVGID_4_)" fill="#F7C4A8" d="M106.668,77.304c0,0,10.695-6.121,12.17-3.829
		c1.474,2.292,1.94,12.634-2.037,17.331c-3.978,4.697-8.802-2.605-8.802-2.605L106.668,77.304z"/>
	<path clip-path="url(#SVGID_4_)" fill="#F5A681" d="M111.648,78.707c0,0,5.495-5.089,5.942-1.129
		c0.448,3.96-1.217,13.205-3.755,12.005c-2.538-1.201-3.334-4.185-3.334-4.185S114.852,80.386,111.648,78.707"/>
	<path clip-path="url(#SVGID_4_)" fill="#F7C4A8" d="M54.31,76.051c0,0-6.934-5.651-8.244-3.054
		c-1.31,2.597-1.34,13.967,2.63,18.894c3.97,4.927,8.264-3.356,8.264-3.356L54.31,76.051z"/>
	<path clip-path="url(#SVGID_4_)" fill="#F5A681" d="M53.111,78.329c0,0-5.428-5.27-5.694-0.901
		c-0.267,4.368,1.685,14.415,4.05,12.954c2.365-1.461,3.003-4.779,3.003-4.779S50.132,80.352,53.111,78.329"/>
	<path clip-path="url(#SVGID_4_)" fill="#F7C4A8" d="M81.474,45.436c0,0-23.347-6.106-27.298,6.825c0,0,1.077,32.327-1.796,39.869
		c-2.874,7.543,8.476,22.057,13.864,28.881c5.388,6.825,14.152,6.32,23.132,5.242c8.98-1.077,24.784-27.298,21.911-33.404
		c-2.874-6.107-6.107-29.813-4.67-45.258C106.617,47.591,96.56,37.175,81.474,45.436"/>
	<path clip-path="url(#SVGID_4_)" fill="#FABF81" d="M80.163,45.436c0.142-0.082,0.275-0.133,0.417-0.211
		c-1.877-0.418-6.524-1.313-11.466-1.217C74.934,44.019,80.163,45.436,80.163,45.436"/>
	<path clip-path="url(#SVGID_4_)" fill="#EE8A5E" d="M82.761,45.436c4.211-2.409,7.998-3.203,11.271-3.157
		c-3.476-0.18-7.568,0.546-12.124,2.947C82.437,45.349,82.761,45.436,82.761,45.436"/>
	<path clip-path="url(#SVGID_4_)" fill="#6F2010" d="M74.84,77.228c0,0-1.755-6.037-3.553-6.503
		c-1.798-0.466-7.024-0.692-9.139,1.933c-2.115,2.626-3.091,4.888-3.091,4.888S69.628,82.737,74.84,77.228"/>
	<path clip-path="url(#SVGID_4_)" fill="#6F2010" d="M74.84,77.228c0,0-1.755-6.037-3.553-6.503
		c-1.798-0.466-7.024-0.693-9.139,1.933c-2.115,2.626-3.091,4.888-3.091,4.888l0.913,0.03L74.84,77.228z"/>
	<path clip-path="url(#SVGID_4_)" fill="#F3E3D6" d="M74.317,77.304c0,0-1.595-5.165-3.23-5.563
		c-1.634-0.399-6.384-0.593-8.308,1.654c-1.923,2.246-2.81,4.181-2.81,4.181S69.579,82.017,74.317,77.304"/>
	<path clip-path="url(#SVGID_4_)" fill="#6F2010" d="M87.255,77.135c0,0,1.755-6.037,3.553-6.503
		c1.798-0.466,7.024-0.693,9.139,1.933c2.116,2.626,3.092,4.888,3.092,4.888S92.467,82.645,87.255,77.135"/>
	<path clip-path="url(#SVGID_4_)" fill="#6F2010" d="M87.256,77.136c0,0,1.754-6.037,3.552-6.503
		c1.798-0.466,7.024-0.693,9.14,1.933c2.115,2.626,3.091,4.888,3.091,4.888l-0.913,0.029L87.256,77.136z"/>
	<path clip-path="url(#SVGID_4_)" fill="#F3E3D6" d="M87.778,77.211c0,0,1.595-5.165,3.229-5.563
		c1.635-0.399,6.386-0.593,8.309,1.653c1.922,2.247,2.81,4.182,2.81,4.182S92.516,81.924,87.778,77.211"/>
	<path clip-path="url(#SVGID_4_)" fill="#E84628" d="M65.233,75.431c0.235,1.788,1.875,3.047,3.663,2.812
		c1.788-0.234,3.047-1.874,2.812-3.662c-0.235-1.788-1.875-3.047-3.663-2.813C66.257,72.003,64.998,73.643,65.233,75.431"/>
	<path clip-path="url(#SVGID_4_)" fill="#220D0B" d="M66.193,75.305c0.165,1.258,1.319,2.144,2.577,1.979
		c1.258-0.166,2.144-1.319,1.979-2.577c-0.166-1.258-1.319-2.144-2.577-1.979C66.914,72.895,66.028,74.048,66.193,75.305"/>
	<path clip-path="url(#SVGID_4_)" fill="#FFFFFF" d="M69.203,74.91c0.097,0.735,0.77,1.252,1.504,1.155
		c0.735-0.096,1.252-0.77,1.155-1.504c-0.096-0.734-0.769-1.252-1.503-1.155C69.624,73.502,69.107,74.176,69.203,74.91"/>
	<path clip-path="url(#SVGID_4_)" fill="#FFFFFF" d="M67.562,76.145c0.023,0.181,0.189,0.308,0.371,0.285
		c0.18-0.024,0.308-0.19,0.284-0.371c-0.024-0.181-0.19-0.308-0.37-0.285C67.666,75.798,67.538,75.964,67.562,76.145"/>
	<path clip-path="url(#SVGID_4_)" fill="#E84628" d="M91.15,75.431c0.235,1.788,1.875,3.047,3.663,2.812
		c1.788-0.234,3.047-1.874,2.812-3.662c-0.235-1.788-1.875-3.047-3.663-2.813C92.174,72.003,90.915,73.643,91.15,75.431"/>
	<path clip-path="url(#SVGID_4_)" fill="#220D0B" d="M92.109,75.305c0.165,1.258,1.319,2.144,2.577,1.979
		c1.258-0.166,2.143-1.319,1.979-2.577c-0.166-1.258-1.319-2.144-2.577-1.979C92.83,72.895,91.944,74.048,92.109,75.305"/>
	<path clip-path="url(#SVGID_4_)" fill="#FFFFFF" d="M95.119,74.91c0.096,0.735,0.77,1.252,1.504,1.155
		c0.735-0.096,1.252-0.77,1.155-1.504c-0.096-0.734-0.77-1.252-1.504-1.155C95.54,73.502,95.023,74.176,95.119,74.91"/>
	<path clip-path="url(#SVGID_4_)" fill="#FFFFFF" d="M93.478,76.145c0.024,0.181,0.19,0.308,0.371,0.285
		c0.18-0.024,0.308-0.19,0.284-0.371c-0.024-0.181-0.19-0.308-0.37-0.285C93.582,75.798,93.454,75.964,93.478,76.145"/>
	<path clip-path="url(#SVGID_4_)" fill="#6F2010" d="M104.593,69.844c0.001-0.09,0.002-0.201,0.002-0.341v-0.034
		c0-0.12-0.001-0.257-0.001-0.403c-0.001-0.034-0.001-0.064-0.002-0.1c-0.001-0.155-0.004-0.321-0.007-0.495
		c-0.001-0.045-0.002-0.088-0.003-0.133c-0.004-0.182-0.01-0.369-0.017-0.562c-0.001-0.031-0.003-0.062-0.004-0.093
		c-0.007-0.186-0.016-0.373-0.027-0.56c-0.002-0.028-0.003-0.055-0.005-0.083c-0.012-0.196-0.027-0.389-0.044-0.577
		c-0.003-0.041-0.007-0.081-0.011-0.121c-0.018-0.186-0.039-0.364-0.062-0.533c-0.004-0.029-0.009-0.056-0.013-0.085
		c-0.026-0.174-0.055-0.339-0.088-0.483c-0.257-1.102-1.067-2.186-3.286-3.309c-0.74-0.374-1.636-0.752-2.72-1.137
		c-1.435-0.509-2.826-0.752-4.052-0.84c-0.027-0.002-0.055-0.004-0.082-0.006c-2.048-0.137-3.62,0.159-4.127,0.363
		c-0.081,0.032-0.162,0.075-0.243,0.124c-0.497,0.3-0.995,0.887-1.421,1.495c-0.001,0.001-0.002,0.002-0.002,0.002
		c-0.073,0.104-0.143,0.209-0.212,0.313c-0.004,0.005-0.007,0.011-0.011,0.016c-0.065,0.1-0.127,0.198-0.187,0.295
		c-0.006,0.009-0.011,0.018-0.017,0.026c-0.063,0.102-0.123,0.201-0.179,0.297c-0.001,0.001-0.001,0.003-0.003,0.004l1.289-2.374
		c0,0-0.001,0.001-0.002,0.001c-0.2,0.035-0.387,0.093-0.568,0.161c-0.05,0.018-0.098,0.037-0.147,0.058
		c-0.167,0.072-0.33,0.152-0.482,0.249c-0.034,0.022-0.065,0.048-0.099,0.071c-0.084,0.057-0.168,0.114-0.247,0.177
		c-0.005,0.008-0.01,0.017-0.014,0.025c-2.214,1.815-2.513,6.132-2.134,6.065c11.13-1.973,19.225,2.73,19.225,2.73
		s0.002-0.076,0.003-0.198V69.844z"/>
	<path clip-path="url(#SVGID_4_)" fill="#6F2010" d="M74.941,61.251c-0.005-0.008-0.009-0.016-0.015-0.024
		c-0.079-0.064-0.164-0.122-0.248-0.179c-0.033-0.022-0.063-0.048-0.096-0.069c-0.153-0.097-0.316-0.178-0.484-0.25
		c-0.048-0.02-0.097-0.039-0.146-0.058c-0.182-0.067-0.369-0.125-0.569-0.161c-0.001,0-0.001,0-0.002,0l0.645,1.188l0.644,1.185
		c-0.001-0.001-0.002-0.003-0.003-0.003c-0.056-0.096-0.116-0.195-0.178-0.297c-0.006-0.009-0.012-0.018-0.017-0.027
		c-0.061-0.097-0.123-0.195-0.188-0.295c-0.004-0.005-0.007-0.01-0.011-0.016c-0.505-0.77-1.148-1.574-1.777-1.882
		c-0.034-0.017-0.067-0.038-0.101-0.052c-0.102-0.041-0.247-0.086-0.43-0.13c-0.183-0.044-0.404-0.088-0.659-0.126
		c-0.255-0.039-0.543-0.073-0.86-0.098c-0.158-0.013-0.324-0.023-0.497-0.03c-1.033-0.045-2.303,0.011-3.682,0.283
		c-0.689,0.136-1.405,0.326-2.132,0.584c-2.712,0.962-4.246,1.885-5.1,2.8c-0.085,0.091-0.163,0.183-0.236,0.274
		c-0.216,0.274-0.376,0.548-0.492,0.823c-0.077,0.183-0.135,0.366-0.178,0.55c-0.034,0.143-0.062,0.308-0.089,0.482
		c-0.004,0.029-0.008,0.056-0.013,0.086c-0.023,0.169-0.044,0.348-0.062,0.535c-0.003,0.038-0.007,0.076-0.011,0.115
		c-0.017,0.19-0.031,0.383-0.044,0.58c-0.001,0.028-0.003,0.056-0.004,0.084c-0.012,0.186-0.02,0.374-0.028,0.559
		c-0.001,0.032-0.003,0.062-0.004,0.093c-0.007,0.194-0.013,0.382-0.017,0.566c-0.001,0.043-0.002,0.084-0.003,0.127
		c-0.003,0.177-0.005,0.346-0.007,0.504c0,0.028-0.001,0.052-0.001,0.079c-0.002,0.342-0.001,0.619,0.001,0.793v0.004
		c0.001,0.123,0.002,0.198,0.002,0.198s8.095-4.702,19.226-2.729C77.453,67.384,77.154,63.066,74.941,61.251"/>
	<path clip-path="url(#SVGID_4_)" fill="#6F2010" d="M73.073,107.313c0,0,4.436,2.797,14.705,0.131
		c1.724-0.448,5.248-2.073,5.248-2.073s-4.683,3.935-6.464,4.105c-1.782,0.169-10.6-0.203-11.283-0.595
		C74.686,108.542,73.073,107.313,73.073,107.313"/>
	<path clip-path="url(#SVGID_4_)" fill="#6F2010" d="M89.338,98.633c-1.045,0.464-2.154,0.77-3.276,0.978
		c-2.246,0.414-4.556,0.439-6.806,0.14c-2.162-0.319-4.66-0.893-5.915-2.443c-0.455-0.646-0.208-1.981,0.471-2.396
		c0.744-0.54,1.888-0.738,2.968-0.856c0.824-0.088,0.924-0.479,0.918-0.865l-1.243-23.145L76.343,92.77
		c-1.091,0.211-2.226,0.432-3.257,1.246c-1.101,1.01-1.345,2.597-0.529,3.847c1.853,1.988,4.353,2.225,6.631,2.513
		c2.325,0.192,4.674,0.062,6.938-0.461c1.129-0.263,2.241-0.623,3.279-1.142c0.964-0.535,2.159-1.231,2.253-2.449
		C91.509,97.527,90.309,98.147,89.338,98.633"/>
	<path clip-path="url(#SVGID_4_)" fill="#6F2010" d="M94.703,17.613c-5.444,0.415-6.168,1.099-6.009,1.528
		c-1.849-1.604-9.63-7.575-20.786-5.357c-12.839,2.553-27.911,30.632-26.236,33.185c1.674,2.552,6.698,11.806,15.63,10.849
		c8.149-0.874,16.732-7.39,20.744-9.434c1.598-0.105,3.339-0.669,4.876-1.911c0,0,6.373,1.483,9.877-2.044
		c2.345,1.809,5.316,0.202,7.939-2.797C105.762,35.889,103.076,16.975,94.703,17.613"/>
	<path clip-path="url(#SVGID_4_)" fill="#491911" d="M92.799,44.429c2.345,1.809,5.316,0.202,7.939-2.796
		c0.425-0.487,0.791-1.074,1.107-1.73c-0.787,0.498-1.148,0.225-0.586-1.4c1.565-4.519-0.174-12.864-0.174-12.864
		s0.869,5.389-1.565,12.69c-2.433,7.302-6.606,5.738-6.606,1.913S89.09,29.985,89.09,29.985s5.389,9.214,1.912,13.734
		c-3.476,4.52-22.947-5.39-22.947-5.39c7.649,7.997,17.732,3.825,11.995,7.997s-31.813,2.608-31.813,2.608
		c11.3,4.694,29.809-0.55,29.809-0.55c1.598-0.105,3.339-0.669,4.876-1.91C82.922,46.474,89.295,47.956,92.799,44.429"/>
	<path clip-path="url(#SVGID_4_)" fill="#491911" d="M77.094,48.239c0,0-14.081,10.431-22.773,7.91
		c-8.692-2.521-11.648-8.518-11.822-7.736c-0.173,0.782,6.52,9.475,13.039,9.561c6.519,0.087,13.212-4.085,15.037-5.128
		c1.826-1.043,7.47-4.461,7.47-4.461L77.094,48.239z"/>
	<path clip-path="url(#SVGID_4_)" fill="#4B251D" d="M106.605,77.299l4.249-2.138L106.605,77.299z"/>
	<path clip-path="url(#SVGID_4_)" fill="#4B251D" d="M55.478,77.255l-3.43-3.246L55.478,77.255z"/>
	<path clip-path="url(#SVGID_4_)" fill="#34211A" d="M75.559,84.169c-0.002,0.003-0.004,0.006-0.006,0.01
		C75.555,84.175,75.557,84.172,75.559,84.169"/>
	<path clip-path="url(#SVGID_4_)" fill="#6F2010" d="M85.796,117.912c-1.146-1.337-1.597-4.503-2.018-4.831
		c-0.292-0.227-0.991-0.274-1.281,0.094c-0.4,0.507-0.999,4.169-1.425,4.985c-1.725,3.313-14.991-6.278-13.945-10.243
		c0.981-3.72,29.995-5.192,31.387-1.594C99.999,110.161,88.253,120.78,85.796,117.912 M111.651,94.807
		c-1.197,2.558-4.381,8.42-8.27,8.033c-4.965-0.494-15.774-0.144-21.022,0.134c-5.134,0.273-16.066,1.076-20.461,1.969
		c-4.882,0.991-9.86-8.165-9.86-8.165c0.244,7.531,9.606,18.873,14.354,24.573c5.402,6.486,14.191,6.005,23.196,4.981
		C98.484,125.321,114.056,100.988,111.651,94.807"/>
	<path clip-path="url(#SVGID_4_)" fill="#461511" d="M81.969,104.413c1.639-0.095,3.29-0.148,4.883-0.155
		C85.266,104.257,83.612,104.31,81.969,104.413"/>
	<path clip-path="url(#SVGID_4_)" fill="#461511" d="M81.14,118.16c0.242-0.503,0.545-2.085,0.83-3.345
		c-0.308,1.26-0.636,2.842-0.898,3.345c-0.247,0.476-0.739,0.678-1.386,0.677C80.371,118.882,80.888,118.681,81.14,118.16"/>
	<path clip-path="url(#SVGID_4_)" fill="#491911" d="M111.651,94.807c-0.478,1.021-1.273,2.568-2.302,4.034
		c-2.017,9.138-13.378,26.636-20.332,27.491c-2.389,0.294-4.761,0.542-7.048,0.595c2.472-0.053,5.036-0.301,7.619-0.595
		C98.484,125.321,114.056,100.988,111.651,94.807"/>
	<path clip-path="url(#SVGID_4_)" fill="#491911" d="M67.557,121.35c-3.609-4.682-10.104-13.045-12.432-20.102
		c-1.802-2.171-3.087-4.471-3.087-4.471c0.243,7.531,9.605,18.873,14.353,24.573c3.717,4.461,9.035,5.626,14.922,5.586
		C75.886,126.969,70.985,125.799,67.557,121.35"/>
	<polygon clip-path="url(#SVGID_4_)" fill="#34211A" points="102.22,47.752 106.484,45.375 103.378,49.014 	"/>
	<polygon clip-path="url(#SVGID_4_)" fill="#34211A" points="52.379,60.135 48.826,56.993 53.377,58.701 	"/>
	<path clip-path="url(#SVGID_4_)" fill="#34211A" d="M102.066,55.147c0.034-0.101,0.073-0.202,0.105-0.303
		c-0.04,0.108-0.067,0.216-0.112,0.324C102.062,55.161,102.063,55.154,102.066,55.147c-0.268,0.783-0.638,1.567-1.159,2.314
		c-1.734,2.488-4.725,4.077-8.875,4.713c-7.064,1.088-9.628-5.695-10.093-6.946c0.327-0.845,2.414-5.377,15.9-6.365
		c0.004-0.001,0.008-0.001,0.013-0.001c0.412-0.031,0.839-0.056,1.273-0.079c0.077-0.004,0.153-0.009,0.231-0.013
		c0.381-0.019,0.775-0.034,1.173-0.048c0.114-0.004,0.224-0.009,0.339-0.012c0.501-0.015,1.014-0.026,1.542-0.032
		c0.024,0.119,0.051,0.266,0.077,0.423c0.004,0.029,0.008,0.057,0.013,0.086C102.7,50.462,102.872,52.795,102.066,55.147
		 M73.973,61.837c-0.78,2.281-2.419,4.645-5.806,5.634c-4.03,1.182-7.404,1.006-10.027-0.51c-3.515-2.031-4.753-5.964-5.086-7.33
		c0.234-0.106,0.459-0.202,0.688-0.304c0.32-0.141,0.638-0.282,0.948-0.415c0.238-0.101,0.469-0.197,0.703-0.294
		c0.208-0.086,0.418-0.175,0.621-0.258c4.74-1.919,8.344-2.784,11.064-3.072c4.809-0.465,6.53,1.035,6.968,1.458
		C74.093,57.393,74.756,59.545,73.973,61.837 M103.665,47.821l-0.136-0.477L103,47.346c-17.816,0.083-21.756,5.282-22.594,7.104
		l-4.852,1.077c0,0-6.293-5.202-23.598,3.15l-0.481,0.221l0.078,0.49c0.003,0.015,0.009,0.051,0.019,0.107
		c0.041,0.221,0.152,0.75,0.377,1.456c0.112,0.353,0.253,0.75,0.429,1.176c0.527,1.276,1.364,2.804,2.666,4.146
		c0.651,0.67,1.418,1.295,2.321,1.817c2.639,1.53,5.893,1.874,9.69,1.031c0.49-0.109,0.988-0.237,1.495-0.385
		c0.48-0.14,0.928-0.305,1.35-0.489c0.14-0.061,0.261-0.135,0.396-0.201c0.268-0.131,0.539-0.261,0.783-0.408
		c0.146-0.088,0.272-0.187,0.409-0.279c0.209-0.142,0.421-0.281,0.612-0.434c0.132-0.105,0.248-0.219,0.371-0.329
		c0.172-0.154,0.347-0.307,0.503-0.469c0.113-0.117,0.213-0.24,0.319-0.362c0.144-0.166,0.289-0.331,0.419-0.504
		c0.094-0.125,0.178-0.253,0.265-0.381c0.121-0.177,0.241-0.353,0.348-0.534c0.076-0.128,0.144-0.258,0.214-0.388
		c0.1-0.186,0.198-0.371,0.285-0.559c0.059-0.128,0.113-0.255,0.167-0.384c0.081-0.192,0.159-0.384,0.229-0.577
		c0.017-0.048,0.041-0.097,0.058-0.146c-0.01,0.025-0.024,0.05-0.034,0.075c0.838-2.364,0.85-4.65,0.805-5.596l0.205-0.045
		l4.11-0.913c0.327,0.8,1.164,2.595,2.647,4.262c0.423,0.476,0.899,0.942,1.432,1.371c0.266,0.215,0.546,0.42,0.84,0.613
		c1.766,1.158,4.05,1.868,6.937,1.423c0.523-0.081,1.028-0.175,1.518-0.284c3.796-0.842,6.599-2.531,8.343-5.033
		c0.18-0.258,0.34-0.52,0.491-0.782c0.046-0.081,0.088-0.161,0.131-0.241c0.103-0.191,0.199-0.382,0.288-0.574
		c0.039-0.084,0.079-0.167,0.114-0.25c0.104-0.238,0.199-0.477,0.283-0.715c0.009-0.027,0.021-0.053,0.03-0.079
		c0-0.001,0.001-0.003,0.002-0.004c-0.001,0.001-0.001,0.001-0.002,0.002C104.738,51.7,103.72,48.01,103.665,47.821"/>
	<path clip-path="url(#SVGID_4_)" fill="none" stroke="#F7C4A8" stroke-width="7.832" stroke-miterlimit="10" d="M32.177,74.009
		c-4.525,15.506-11.122,27.566-9.901,33.434c2.372,11.399,4.435,20.016,12.05,27.584"/>
	<path clip-path="url(#SVGID_4_)" fill="#F7C4A8" d="M20.248,47.39c2.158-1.77,4.833,6.823,6.439,9.339
		c0.175-0.079,1.338-0.106,1.519-0.173c-0.737-3.22-2.49-11.047-2.334-12.006c0.196-1.209,2.307-1.72,3.217-0.818
		c0.76,0.754,1.797,9.49,2.119,12.347c0.101,0.002,0.197-0.019,0.299-0.014l0.974,0.057c0.145-4.585,0.41-12.44,0.55-13.46
		c0.2-1.452,2.391-2.477,3.672-1.338c0.867,0.771,0.144,9.961-0.413,15.822c0,0,2.074-4.5,3.193-4.849
		c1.12-0.349,7.66,0.456,8.423,0.334c0.762-0.121,2.458,4.739,3.363,5.752c0.904,1.012-1.505,1.831-2.618,1.73
		c-1.321-0.121-1.835-1.57-2.593-2.932c0,0-2.79-0.281-4.974-0.542c0,0-3.335,4.419-2.416,7.49c0.982,3.286,2.551,4.329,2.551,4.329
		l-0.179,0.055c0.518,0.052,0.954,0.046,1.562,0.168c0,0,4.712-1.933,4.784-4.402c0.07-2.47,0.59-4.365,3.756-4.461l-0.021,0.29
		c0,0,1.559,4.711,0.039,7.911c-1.518,3.199-12.726,11.422-18.82,10.848c-0.033-0.003-0.051-0.014-0.084-0.018
		c-0.619,0.172-1.196,0.238-1.539-0.095C23.2,71.44,23.26,67.152,22.905,60.299C22.588,54.197,18.082,49.167,20.248,47.39"/>
	<path clip-path="url(#SVGID_4_)" fill="#F5A681" d="M39.412,69.196c0,0-6.415,1.693-7.234,8.704c0,0,0.044-6.809,6.784-9.424
		c0,0-1.357-5.957-6.17-6.45C32.792,62.026,38.632,61.976,39.412,69.196"/>
	<path clip-path="url(#SVGID_4_)" fill="#F5A681" d="M26.687,56.729c0.175-0.079,1.338-0.106,1.519-0.173
		c-0.737-3.22-2.49-11.047-2.334-12.006c0.058-0.357,0.305-0.627,0.617-0.844c-1.013,2.682,2.56,12.961,2.56,12.961
		c-1.759-0.017-2.635,0.512-2.635,0.512s-2.439-5.423-3.725-7.786c-1.287-2.363-2.441-2.003-2.441-2.003
		C22.406,45.62,25.081,54.213,26.687,56.729"/>
	<path clip-path="url(#SVGID_4_)" fill="#F5A681" d="M35.743,56.818c0,0,1.047-11.759,0.781-13.835
		c-0.222-1.737-0.899-2.044-1.125-2.102c0.465,0.002,0.924,0.104,1.304,0.443c0.867,0.771,0.144,9.96-0.413,15.821
		c0,0,2.074-4.499,3.193-4.849c0.094-0.029,0.275-0.04,0.439-0.054c-1.549,0.343-3.391,5.766-3.391,5.766
		c-0.494-1.151-5.323-1.93-5.323-1.93C33.581,56.226,35.743,56.818,35.743,56.818"/>
	<path clip-path="url(#SVGID_4_)" fill="#F5A681" d="M38.737,64.304c0.985,3.123,2.482,4.154,2.482,4.154l-0.087,0.027
		C39.933,67.699,38.916,65.694,38.737,64.304"/>
	<path clip-path="url(#SVGID_4_)" fill="#F18746" d="M46.366,66.522c-0.964,1.251-3.294,2.975-4.967,2.193
		c-0.077-0.036-0.142-0.141-0.218-0.188c0.461,0.04,0.868,0.042,1.421,0.153c0,0,4.713-1.932,4.784-4.402
		c0.059-2.052,0.523-3.64,2.462-4.196c-1.129,0.463-2.526,1.746-2.113,5.315C47.735,65.397,47.33,65.271,46.366,66.522"/>
	<path clip-path="url(#SVGID_4_)" fill="#F3956A" d="M49.605,60.031c0.044-0.012,0.074-0.015,0.116-0.026
		C49.679,60.014,49.646,60.023,49.605,60.031"/>
	<path clip-path="url(#SVGID_4_)" fill="#F18746" d="M48.651,60.112c-1.321-0.12-1.835-1.569-2.594-2.932
		c0,0-2.79-0.281-4.974-0.541c0,0-2.548,3.377-2.575,6.279c-0.425-2.463,1.665-5.609,2.01-6.106
		c0.368-0.528,0.102-1.814,0.102-1.814c0.189,1.419,0.621,1.272,0.751,1.416c0.129,0.145,2.802,0.261,3.827,0.354
		c1.026,0.092,1.226-0.412,1.226-0.412C46.536,59.248,48.651,60.112,48.651,60.112"/>
	<path clip-path="url(#SVGID_4_)" fill="#F3956A" d="M38.509,62.939c-0.001,0.18,0.051,0.348,0.07,0.524
		c-0.011-0.028-0.038-0.021-0.048-0.051C38.483,63.265,38.537,63.093,38.509,62.939"/>
	<path clip-path="url(#SVGID_4_)" fill="#FBDB99" d="M57.938,170.24c0,0-16.003-13.516-31.708-35.822
		c-15.705-22.305-5.115-47.881-5.115-47.881s8.452,1.355,11.209,5.658c0,0-14.172,26.666,18.509,46.317c0,0,2.46,7.622,4.156,14.683
		C55.97,157.287,57.938,170.24,57.938,170.24"/>
</g>
<g>
	<defs>
		<rect id="SVGID_5_" width="159" height="159"/>
	</defs>
	<clipPath id="SVGID_6_">
		<use xlink:href="#SVGID_5_"  overflow="visible"/>
	</clipPath>
	<path clip-path="url(#SVGID_6_)" fill="#E6361C" d="M79.5,159C35.664,159,0,123.337,0,79.5C0,35.663,35.664,0,79.5,0
		C123.337,0,159,35.663,159,79.5C159,123.337,123.337,159,79.5,159z M79.5,4C37.869,4,4,37.869,4,79.5S37.869,155,79.5,155
		S155,121.131,155,79.5S121.131,4,79.5,4z"/>
</g>
</svg>
