<?xml version="1.0" encoding="utf-8"?>
<!-- Generator: Adobe Illustrator 16.0.0, SVG Export Plug-In . SVG Version: 6.00 Build 0)  -->
<!DOCTYPE svg PUBLIC "-//W3C//DTD SVG 1.1//EN" "http://www.w3.org/Graphics/SVG/1.1/DTD/svg11.dtd">
<svg version="1.1" id="Layer_1" xmlns="http://www.w3.org/2000/svg" xmlns:xlink="http://www.w3.org/1999/xlink" x="0px" y="0px"
	 width="370.5px" height="369px" viewBox="0 0 370.5 369" enable-background="new 0 0 370.5 369" xml:space="preserve">
<circle fill="#FFFFFF" stroke="#ED1E25" stroke-width="5" stroke-miterlimit="10" cx="185.262" cy="183.823" r="182"/>
<path fill="#E9F6F6" d="M34.541,219.935c2.911-11.779,7.294-23.309,9.609-35.178c7.058-36.185-5.309-74.218,7.158-109.405
	c3.529-9.96,3.88-14.578,11.49-22.466c13.667-14.167,39.167-32.5,72.328-41.5c35.744-9.701,47.792-8.158,80.995-4.007
	c24,3,55.391,26.376,62.996,45.967c8.412,21.669,19.346,45.668,39.437,60.936c28.689,21.803,52.961,60.294,39.066,119.597
	c-10.25,43.75-49.75,84-69.499,97c-4.322,2.845-37.014,25.88-81,31c-47.25,5.5-67.499-3.512-86.25-10.25
	c-16-5.75-27.75-12-39.75-20.75c-12.171-8.875-25.101-20.534-33.5-32c-15.75-21.5-15.5-25.25-21-41.5
	C21.606,242.559,30.755,235.253,34.541,219.935z"/>
<g>
	<path fill="#FFFFFF" d="M156.644,83.43c0.888-3.866,4.347-6.749,8.481-6.749c0.76,0,1.496,0.097,2.198,0.28
		c2.041-4.365,6.47-7.389,11.605-7.389c1.328,0,2.608,0.202,3.812,0.578c2.765-4.579,7.789-7.64,13.527-7.64
		c6.828,0,12.643,4.333,14.846,10.399c1.56-0.87,3.354-1.367,5.269-1.367c5.983,0,10.835,4.852,10.835,10.836
		c0,0.354-0.019,0.705-0.053,1.051H156.644z"/>
	<path fill="#FFFFFF" d="M319.615,197.025c-0.887-3.866-4.348-6.749-8.482-6.749c-0.758,0-1.494,0.098-2.197,0.279
		c-2.039-4.363-6.469-7.388-11.603-7.388c-1.328,0-2.609,0.202-3.813,0.577c-2.766-4.578-7.789-7.639-13.527-7.639
		c-6.828,0-12.643,4.332-14.846,10.398c-1.561-0.869-3.355-1.367-5.268-1.367c-5.984,0-10.835,4.852-10.835,10.836
		c0,0.355,0.018,0.705,0.052,1.052H319.615z"/>
	<path fill="#FFFFFF" d="M48.287,218.935c0.993-4.324,4.863-7.551,9.488-7.551c0.849,0,1.673,0.109,2.458,0.314
		c2.283-4.882,7.238-8.266,12.982-8.266c1.486,0,2.918,0.227,4.266,0.646c3.092-5.121,8.712-8.546,15.131-8.546
		c7.637,0,14.142,4.847,16.607,11.633c1.745-0.973,3.753-1.528,5.892-1.528c6.695,0,12.122,5.426,12.122,12.121
		c0,0.396-0.02,0.789-0.058,1.176H48.287z"/>
	<path fill="#FFFFFF" d="M285.806,266.501c0.584-2.541,2.857-4.437,5.576-4.437c0.498,0,0.98,0.063,1.443,0.185
		c1.34-2.869,4.252-4.856,7.627-4.856c0.873,0,1.715,0.134,2.505,0.38c1.818-3.01,5.119-5.021,8.891-5.021
		c4.486,0,8.309,2.848,9.756,6.835c1.025-0.571,2.207-0.897,3.463-0.897c3.934,0,7.121,3.188,7.121,7.121
		c0,0.232-0.012,0.463-0.033,0.691H285.806z"/>
	<path fill="#FFFFFF" d="M63.546,99.385c0.588-2.559,2.878-4.468,5.615-4.468c0.502,0,0.99,0.064,1.455,0.186
		c1.351-2.889,4.283-4.892,7.683-4.892c0.879,0,1.727,0.134,2.524,0.383c1.831-3.031,5.156-5.058,8.956-5.058
		c4.52,0,8.37,2.869,9.829,6.885c1.033-0.576,2.221-0.905,3.487-0.905c3.962,0,7.174,3.212,7.174,7.173
		c0,0.235-0.012,0.467-0.034,0.696H63.546z"/>
	<path opacity="0.5" fill="#FFFFFF" d="M163.542,43.535c-2.078-1.768-5.004-2.041-7.729-2.179
		c-21.457-1.085-43.752,1.265-65.065-0.32c-6.193,9.339-11.875,19.061-17.179,28.21c0.289,0.063,1.064,0.175,1.353,0.245
		c3.943,0.944,7.815,2.606,10.707,5.448c2.892,2.842,4.673,6.997,3.994,10.994c-1.696,9.979-16.002,12.757-19.779,22.148
		c-1.551,3.859-1.049,8.288-2.487,12.191c-2.08,5.647-7.72,9.079-13.12,11.737c-5.153,2.538-10.457,4.779-15.872,6.698
		c-1.72,8.624-2.31,17.379-2.384,26.202c0.063-0.011,0.127-0.021,0.191-0.032c18.928-3.19,37.856-6.381,56.785-9.571
		c7.109-1.198,15.395-3.303,18.036-10.012c2.007-5.098-0.161-11.05,1.545-16.256c1.608-4.905,6.282-8.1,10.889-10.43
		c4.607-2.331,9.609-4.292,13.062-8.13c3.453-3.838,4.66-10.359,0.982-13.982c-2.057-2.027-5.06-2.658-7.719-3.784
		c-5.671-2.401-10.393-8.734-8.314-14.531c2.152-6.001,9.655-7.689,15.951-8.689c10.321-1.639,21.787-4.71,26.908-13.819
		C166.453,51.838,166.892,46.385,163.542,43.535z"/>
	
		<rect x="225.333" y="64.004" transform="matrix(0.9059 0.4235 -0.4235 0.9059 49.6023 -91.6037)" fill="#FCB548" width="11.201" height="3.624"/>
	
		<rect x="181.144" y="51.583" transform="matrix(0.962 0.273 -0.273 0.962 21.6683 -48.9498)" fill="#F05C7E" width="11.201" height="3.623"/>
	
		<rect x="176.59" y="19.734" transform="matrix(0.7071 -0.7071 0.7071 0.7071 38.127 135.1385)" fill="#FCB548" width="11.201" height="3.623"/>
	
		<rect x="175.262" y="82.532" transform="matrix(0.7071 -0.7071 0.7071 0.7071 -6.6643 152.5977)" fill="#FCB548" width="11.199" height="3.623"/>
	
		<rect x="81.4" y="105.083" transform="matrix(0.7071 -0.7071 0.7071 0.7071 -50.1041 92.8271)" fill="#3BBEB8" width="11.201" height="3.623"/>
	
		<rect x="81.4" y="151.832" transform="matrix(0.9504 0.311 -0.311 0.9504 52.1005 -19.4386)" fill="#F05C7E" width="11.2" height="3.622"/>
	
		<rect x="81.4" y="43.46" transform="matrix(0.8217 0.57 -0.57 0.8217 41.3204 -41.5152)" fill="#3BBEB8" width="11.201" height="3.623"/>
	<rect x="84.149" y="75.595" fill="#F05C7E" width="11.2" height="3.623"/>
	
		<rect x="47.877" y="119.119" transform="matrix(0.9482 -0.3176 0.3176 0.9482 -35.6414 23.2482)" fill="#1F1D57" width="11.201" height="3.623"/>
	
		<rect x="51.115" y="156.513" transform="matrix(0.9598 -0.2808 0.2808 0.9598 -42.1797 22.2987)" fill="#FCB548" width="11.201" height="3.622"/>
	
		<rect x="122.025" y="18.327" transform="matrix(0.673 0.7396 -0.7396 0.673 56.6229 -87.8079)" fill="#F05C7E" width="11.201" height="3.623"/>
	
		<rect x="135.459" y="49.57" transform="matrix(0.8095 -0.5872 0.5872 0.8095 -3.2933 92.6129)" fill="#3BBEB8" width="11.201" height="3.623"/>
	
		<rect x="218.814" y="37.831" transform="matrix(0.9798 -0.1998 0.1998 0.9798 -3.3953 45.6459)" fill="#3BBEB8" width="11.201" height="3.623"/>
	
		<rect x="307.404" y="166.905" transform="matrix(0.9798 -0.1999 0.1999 0.9798 -27.4111 65.982)" fill="#3BBEB8" width="11.201" height="3.624"/>
	
		<rect x="275.969" y="127.85" transform="matrix(0.9798 -0.1999 0.1999 0.9798 -20.2376 58.9091)" fill="#F05C7E" width="11.201" height="3.623"/>
	
		<rect x="214.707" y="117.697" transform="matrix(0.9059 0.4235 -0.4235 0.9059 71.3481 -82.0574)" fill="#F05C7E" width="11.202" height="3.623"/>
	
		<rect x="251.592" y="120.771" transform="matrix(0.7659 -0.643 0.643 0.7659 -18.6023 194.0787)" fill="#FCB548" width="11.201" height="3.623"/>
	
		<rect x="273.978" y="236.271" transform="matrix(0.7659 -0.643 0.643 0.7659 -87.6287 235.5168)" fill="#FCB548" width="11.201" height="3.623"/>
	
		<rect x="125.476" y="103.852" transform="matrix(0.7658 -0.6431 0.6431 0.7658 -37.2523 109.0339)" fill="#1F1D57" width="11.201" height="3.623"/>
	
		<rect x="214.764" y="141.985" transform="matrix(-0.3568 -0.9342 0.9342 -0.3568 164.6527 400.9628)" fill="#1F1D57" width="11.2" height="3.623"/>
	
		<rect x="273.941" y="161.841" transform="matrix(0.1099 -0.9939 0.9939 0.1099 86.1693 423.5212)" fill="#F05C7E" width="11.2" height="3.622"/>
	
		<rect x="289.329" y="208.886" transform="matrix(0.7659 -0.643 0.643 0.7659 -66.425 238.9759)" fill="#1F1D57" width="11.201" height="3.623"/>
	
		<rect x="31.455" y="203.757" transform="matrix(0.7659 -0.643 0.643 0.7659 -123.5013 71.9526)" fill="#F05C7E" width="11.2" height="3.622"/>
	
		<rect x="104.016" y="237.783" transform="matrix(-0.068 -0.9977 0.9977 -0.068 -121.9749 365.2401)" fill="#F05C7E" width="11.202" height="3.623"/>
	
		<rect x="319.537" y="217.066" transform="matrix(-0.0678 -0.9977 0.9977 -0.0678 128.8203 558.1122)" fill="#F05C7E" width="11.201" height="3.622"/>
	
		<rect x="78.548" y="200.404" transform="matrix(-0.913 0.408 -0.408 -0.913 243.4813 352.5001)" fill="#1F1D57" width="11.201" height="3.624"/>
	
		<rect x="56.707" y="237.784" transform="matrix(-0.5301 -0.8479 0.8479 -0.5301 -107.8221 419.4384)" fill="#FCB548" width="11.201" height="3.622"/>
</g>
<g>
	<path fill="#FFD10A" d="M272.266,72.677c-0.807-0.631-1.849-0.881-2.854-0.687l-7.954,1.534c-0.599-2.804-1.198-4.605-1.198-4.605
		l-18.102,4.104l-18.102,4.104c0,0,0.235,1.884,0.905,4.673l-7.827,2.043c-0.992,0.258-1.823,0.933-2.28,1.851
		c-0.458,0.917-0.495,1.987-0.104,2.935c1.07,2.596,3.511,7.506,7.83,11.209c2.417,2.072,5.121,3.514,8.034,4.284
		c3.149,0.833,6.563,0.883,10.162,0.154c2.491,0.823,5.335,1.07,8.583,0.506c3.174-0.893,5.634-2.343,7.525-4.158
		c3.566-0.894,6.627-2.412,9.114-4.524c2.295-1.951,4.111-4.417,5.398-7.329c2.3-5.204,2.385-10.686,2.23-13.491
		C273.569,74.256,273.075,73.307,272.266,72.677z M217.872,87.342c-0.008-0.018-0.031-0.072,0.004-0.143
		c0.035-0.071,0.092-0.085,0.111-0.09l7.858-2.052c1.626,5.366,4.583,12.203,9.719,16.342
		C224.867,101.199,219.723,91.834,217.872,87.342z M270.257,75.465c0.267,4.853-0.338,15.528-9.914,20.32
		c2.851-5.95,2.57-13.396,1.722-18.94l7.985-1.541c0.019-0.004,0.077-0.015,0.14,0.034
		C270.251,75.386,270.254,75.445,270.257,75.465z"/>
	<polygon fill="#FFD10A" points="260.313,132.119 249.961,101.449 249.375,104.854 249.358,104.782 247.361,101.963 
		251.248,134.099 	"/>
	<circle fill="#FFD10A" cx="249.358" cy="104.781" r="3.191"/>
	<path fill="#FFD10A" d="M255.82,117.563l-6.779,1.537c-0.627,0.142-1.251-0.25-1.392-0.878l-0.059-0.259
		c-0.143-0.626,0.25-1.25,0.877-1.392l6.779-1.537c0.627-0.142,1.25,0.25,1.393,0.877l0.058,0.259
		C256.84,116.796,256.447,117.42,255.82,117.563z"/>
	<path fill="#FFD10A" d="M261.561,134.115L251,136.509c-0.731,0.166-1.456-0.292-1.622-1.021l-0.068-0.302
		c-0.165-0.73,0.292-1.456,1.022-1.622l10.562-2.394c0.729-0.166,1.456,0.292,1.621,1.021l0.068,0.301
		C262.749,133.224,262.292,133.95,261.561,134.115z"/>
	<polygon opacity="0.5" fill="#FCB548" points="255.429,117.651 249.423,119.013 249.631,120.731 255.992,119.316 	"/>
	<path opacity="0.5" fill="#FCB548" d="M249.247,134.628c-0.013,0.122-0.007,0.248,0.021,0.375l0.151,0.668
		c0.143,0.629,0.769,1.023,1.396,0.88l10.928-2.477c0.629-0.143,1.023-0.768,0.881-1.396l-0.152-0.668
		c-0.029-0.127-0.079-0.243-0.141-0.349L249.247,134.628z"/>
	<path fill="#FFD10A" d="M264.337,136.259l-14.915,3.381c-0.996,0.226-1.985-0.397-2.209-1.392l-0.094-0.41
		c-0.225-0.995,0.398-1.983,1.394-2.208l14.916-3.382c0.995-0.225,1.981,0.399,2.207,1.393l0.094,0.411
		C265.954,135.045,265.331,136.034,264.337,136.259z"/>
	<path opacity="0.3" fill="#FCB548" d="M260.259,68.918l-6.582,1.492c0.028,0.162,0.057,0.326,0.083,0.492
		c-10.067,2.474-29.428,7.074-29.428,7.074l29.967-2.851c0.786,9.146-0.779,21.031-13.119,24.502
		c-2.91,0.505-5.497,0.358-7.794-0.269c3.742,4.041,8.901,6.649,15.972,5.424C270.249,98.905,260.259,68.918,260.259,68.918z"/>
	<path fill="#FFE55B" d="M261.258,71.797l-36.861,8.358c-1.31,0.297-2.611-0.524-2.91-1.834l-0.121-0.541
		c-0.298-1.31,0.523-2.613,1.834-2.91l36.86-8.357c1.311-0.297,2.613,0.524,2.91,1.834l0.123,0.541
		C263.389,70.198,262.567,71.5,261.258,71.797z"/>
	<path opacity="0.3" fill="#F4C676" d="M228.754,82.063c0,0,3.103,23.22,21.207,19.386
		C249.961,101.449,235.902,99.513,228.754,82.063z"/>
	<polygon opacity="0.3" fill="#FCB548" points="244.063,80.101 248.012,84.97 254.261,84.478 250.85,89.737 253.25,95.529 
		247.193,93.911 242.427,97.983 242.094,91.723 236.749,88.448 242.599,86.197 	"/>
	<polygon fill="#FFE55B" points="243.305,79.36 247.255,84.229 253.504,83.737 250.094,88.997 252.494,94.788 246.437,93.17 
		241.671,97.243 241.338,90.982 235.993,87.708 241.842,85.457 	"/>
</g>
<g>
	<g>
		<g>
			<polygon fill="#EBF7FA" points="216.017,133.826 237.329,132.337 216.017,130.848 			"/>
			<circle fill="#3BBEB8" cx="235.408" cy="132.337" r="2.126"/>
			<path fill="#2A4B5C" d="M218.415,138.204h0.617c2.992,0,5.418-2.425,5.418-5.418v-1.234c0-2.993-2.426-5.419-5.418-5.419h-0.617
				V138.204z"/>
		</g>
		<g>
			<polygon fill="#2A4B5C" points="152.454,133.826 131.14,132.337 152.454,130.848 			"/>
			<circle fill="#3BBEB8" cx="133.063" cy="132.337" r="2.126"/>
			<path fill="#2A4B5C" d="M150.055,138.204h-0.617c-2.992,0-5.418-2.425-5.418-5.418v-1.234c0-2.993,2.426-5.419,5.418-5.419h0.617
				V138.204z"/>
		</g>
		<g>
			<polygon fill="#2A4B5C" points="216.017,133.826 237.329,132.337 216.017,130.848 			"/>
			<circle fill="#3BBEB8" cx="235.408" cy="132.337" r="2.126"/>
			<path fill="#2A4B5C" d="M218.415,138.204h0.617c2.992,0,5.418-2.425,5.418-5.418v-1.234c0-2.993-2.426-5.419-5.418-5.419h-0.617
				V138.204z"/>
		</g>
		<g>
			<g>
				<path fill="#2A4B5C" d="M214.958,190.327l-1.176-7.047c19.244-3.213,33.889-19.03,35.612-38.464l0.64-7.2l7.117,0.631
					l-0.639,7.2C254.501,168.125,237.414,186.579,214.958,190.327z"/>
			</g>
			<path fill="#3BBEB8" d="M262,132.793c0-1.854-0.819-3.547-2.171-4.846v-6.531c0-0.819-0.663-1.482-1.482-1.482
				c-0.818,0-1.481,0.664-1.481,1.482v4.664c-1.142-0.444-2.414-0.694-3.758-0.694c-1.358,0-2.644,0.254-3.794,0.707v-4.677
				c0-0.819-0.664-1.482-1.482-1.482l0,0c-0.818,0-1.482,0.664-1.482,1.482v6.565c-1.33,1.294-2.135,2.975-2.135,4.812
				c0,2.14,1.091,4.067,2.834,5.419c-0.43,0.404-0.699,0.976-0.699,1.612l0,0c0,1.225,0.993,2.217,2.218,2.217h9.046
				c1.225,0,2.217-0.993,2.217-2.217l0,0c0-0.628-0.263-1.194-0.682-1.597C260.9,136.875,262,134.941,262,132.793z"/>
		</g>
		<g>
			<g>
				<path fill="#2A4B5C" d="M155.565,190.327l1.176-7.047c-19.244-3.213-33.889-19.03-35.613-38.464l-0.639-7.2l-7.118,0.631
					l0.639,7.2C116.023,168.125,133.11,186.579,155.565,190.327z"/>
			</g>
			<path fill="#3BBEB8" d="M108.524,132.793c0-1.854,0.819-3.547,2.171-4.846v-6.531c0-0.819,0.663-1.482,1.481-1.482
				c0.819,0,1.482,0.664,1.482,1.482v4.664c1.142-0.444,2.415-0.694,3.758-0.694c1.357,0,2.643,0.254,3.793,0.707v-4.677
				c0-0.819,0.664-1.482,1.483-1.482l0,0c0.818,0,1.481,0.664,1.481,1.482v6.565c1.33,1.294,2.135,2.975,2.135,4.812
				c0,2.14-1.091,4.067-2.833,5.419c0.429,0.404,0.698,0.976,0.698,1.612l0,0c0,1.225-0.993,2.217-2.217,2.217h-9.046
				c-1.225,0-2.217-0.993-2.217-2.217l0,0c0-0.628,0.262-1.194,0.682-1.597C109.624,136.875,108.524,134.941,108.524,132.793z"/>
		</g>
		<rect x="193.987" y="246.317" fill="#2A4B5C" width="7.983" height="44.674"/>
		<path fill="#3BBEB8" d="M197.636,280.675c-5.126,0-9.522,3.121-11.393,7.567c-0.958,2.276,0.748,4.788,3.217,4.788h16.352
			c2.47,0,4.176-2.512,3.218-4.788C207.158,283.796,202.761,280.675,197.636,280.675z"/>
		<circle fill="#3BBEB8" cx="197.979" cy="263.715" r="6.353"/>
		<rect x="164.498" y="246.317" fill="#2A4B5C" width="7.984" height="44.674"/>
		<path fill="#2A4B5C" d="M199.364,160.779c0-0.838-0.68-1.517-1.518-1.517c0.838,0,1.518-0.68,1.518-1.518
			c0-0.838-0.68-1.518-1.518-1.518h-27.455c-0.838,0-1.517,0.679-1.517,1.518c0,0.838,0.679,1.518,1.517,1.518
			c-0.838,0-1.517,0.679-1.517,1.517s0.679,1.518,1.517,1.518c-0.838,0-1.517,0.679-1.517,1.517l0,0
			c0,0.838,0.679,1.518,1.517,1.518h27.455c0.838,0,1.518-0.68,1.518-1.518l0,0c0-0.838-0.68-1.517-1.518-1.517
			C198.685,162.297,199.364,161.617,199.364,160.779z"/>
		<polygon fill="#2A4B5C" points="163.958,114.958 166.734,75.213 169.51,114.958 		"/>
		<polygon fill="#2A4B5C" points="198.964,114.958 201.74,75.213 204.517,114.958 		"/>
		<path fill="#2A4B5C" d="M209.353,118.715h-50.466v-5.174c0-5.211,4.225-9.436,9.435-9.436h31.595c5.211,0,9.436,4.225,9.436,9.436
			V118.715z"/>
		<path fill="#2A4B5C" d="M150.027,194.228h-1.15c-5.577,0-10.099-4.521-10.099-10.098v-2.302c0-5.577,4.521-10.099,10.099-10.099
			h1.15V194.228z"/>
		<path fill="#2A4B5C" d="M218.415,194.228h1.15c5.576,0,10.099-4.521,10.099-10.098v-2.302c0-5.577-4.522-10.099-10.099-10.099
			h-1.15V194.228z"/>
		<path fill="#3BBEB8" d="M208.948,157.18h-49.455c-5.229,0-9.467-4.238-9.467-9.467v-29.34c0-5.228,4.238-9.467,9.467-9.467h49.455
			c5.228,0,9.467,4.239,9.467,9.467v29.34C218.415,152.941,214.176,157.18,208.948,157.18z"/>
		<circle fill="#EBF7FA" cx="161.915" cy="127.756" r="6.39"/>
		<circle fill="#EBF7FA" cx="206.527" cy="127.756" r="6.39"/>
		<g>
			<g>
				<g>
					<path fill="#EBF7FA" d="M184.221,143.86c-6.888,0-10.358-3.387-12.058-6.229c-0.64-1.07-1.072-2.132-1.363-3.067
						c-0.489-1.565,0.638-3.17,2.276-3.245h0.002c1.143-0.053,2.169,0.68,2.511,1.773c0.201,0.643,0.504,1.384,0.958,2.111
						c1.516,2.421,4.098,3.649,7.673,3.649c3.575,0,6.157-1.228,7.672-3.649c0.454-0.727,0.758-1.468,0.959-2.111
						c0.342-1.093,1.366-1.826,2.511-1.773h0.001c1.639,0.075,2.766,1.68,2.277,3.245c-0.291,0.935-0.725,1.997-1.363,3.067
						C194.58,140.473,191.108,143.86,184.221,143.86z"/>
				</g>
			</g>
		</g>
		<g>
			<path fill="#2A4B5C" d="M184.221,141.945c-3.218,0-5.889-0.825-7.939-2.451c-1.366-1.084-2.431-2.497-3.171-4.205
				c-0.134-0.31,0.017-0.668,0.333-0.788l0,0c0.293-0.11,0.622,0.027,0.747,0.315c1.226,2.829,3.957,5.951,10.031,5.951
				c6.075,0,8.805-3.122,10.032-5.951c0.125-0.288,0.453-0.425,0.746-0.315l0,0c0.316,0.119,0.467,0.478,0.332,0.788
				c-0.738,1.708-1.804,3.121-3.17,4.205C190.11,141.12,187.439,141.945,184.221,141.945z"/>
		</g>
		<circle fill="#2A4B5C" cx="161.915" cy="127.756" r="4.581"/>
		<circle fill="#2A4B5C" cx="206.527" cy="127.756" r="4.581"/>
		
			<ellipse transform="matrix(0.6502 -0.7598 0.7598 0.6502 -23.1427 202.0003)" fill="#E2EEF3" cx="207.8" cy="126.133" rx="1.905" ry="2.345"/>
		
			<ellipse transform="matrix(0.6504 -0.7596 0.7596 0.6504 -38.6959 168.1866)" fill="#E2EEF3" cx="163.372" cy="126.133" rx="1.906" ry="2.345"/>
		<path fill="#28BBAB" d="M210.368,151.893h-52.296c-4.443,0-8.045-3.602-8.045-8.045v5.287c0,4.443,3.602,8.045,8.045,8.045h52.296
			c4.444,0,8.047-3.602,8.047-8.045v-5.287C218.415,148.292,214.813,151.893,210.368,151.893z"/>
		<path fill="#3BBEB8" d="M210.192,247.815h-51.944c-4.541,0-8.222-3.682-8.222-8.223v-67.416c0-4.541,3.681-8.222,8.222-8.222
			h51.944c4.542,0,8.223,3.681,8.223,8.222v67.416C218.415,244.134,214.734,247.815,210.192,247.815z"/>
		<path fill="#28BBAB" d="M210.368,242.528h-52.296c-4.443,0-8.045-3.603-8.045-8.046v5.287c0,4.442,3.602,8.046,8.045,8.046h52.296
			c4.444,0,8.047-3.604,8.047-8.046v-5.287C218.415,238.926,214.813,242.528,210.368,242.528z"/>
		<path opacity="0.3" fill="#2A4B5C" d="M178.38,222.224h-15.743c-3.928,0-7.112-3.184-7.112-7.11v-31.937
			c0-3.928,3.184-7.111,7.112-7.111h15.743c3.928,0,7.111,3.184,7.111,7.111v31.937C185.491,219.04,182.308,222.224,178.38,222.224z
			"/>
		<path opacity="0.3" fill="#2A4B5C" d="M207.494,222.224h-11.508c-3.929,0-7.112-3.184-7.112-7.11v-31.937
			c0-3.928,3.184-7.111,7.112-7.111h11.508c3.927,0,7.111,3.184,7.111,7.111v31.937C214.605,219.04,211.421,222.224,207.494,222.224
			z"/>
		<path fill="#2A4B5C" d="M181.069,216.316h-0.26c-0.63,0-1.14-0.51-1.14-1.141v-32.063c0-0.63,0.51-1.14,1.14-1.14h0.26
			c0.63,0,1.14,0.51,1.14,1.14v32.063C182.209,215.807,181.699,216.316,181.069,216.316z"/>
		<path fill="#2A4B5C" d="M201.74,180.188c-5.936,0-10.747,4.949-10.747,11.054h21.493
			C212.486,185.138,207.676,180.188,201.74,180.188z"/>
		<path fill="#EBF7FA" d="M201.74,181.74c-4.538,0-8.216,3.54-8.216,7.905h16.431C209.955,185.28,206.277,181.74,201.74,181.74z"/>
		<circle fill="#2A4B5C" cx="193.537" cy="201.272" r="1.747"/>
		<circle fill="#2A4B5C" cx="210.616" cy="201.272" r="1.747"/>
		<circle fill="#2A4B5C" cx="193.537" cy="217.752" r="1.747"/>
		<circle fill="#2A4B5C" cx="210.616" cy="217.752" r="1.747"/>
		<path fill="#2A4B5C" d="M213.223,231.513h-55.885c-0.763,0-1.383-0.619-1.383-1.383v-0.314c0-0.764,0.62-1.383,1.383-1.383h55.885
			c0.764,0,1.383,0.619,1.383,1.383v0.314C214.605,230.894,213.986,231.513,213.223,231.513z"/>
		<path fill="#2A4B5C" d="M213.223,237.563h-55.885c-0.763,0-1.383-0.619-1.383-1.383v-0.315c0-0.764,0.62-1.383,1.383-1.383h55.885
			c0.764,0,1.383,0.619,1.383,1.383v0.315C214.605,236.944,213.986,237.563,213.223,237.563z"/>
		<polygon opacity="0.3" fill="#2A4B5C" points="201.251,188.647 204.414,182.853 202.673,188.802 		"/>
		<path fill="#3BBEB8" d="M203.323,189.646c0.001-0.033,0.005-0.064,0.005-0.098c0-0.877-0.712-1.588-1.588-1.588
			c-0.878,0-1.589,0.711-1.589,1.588c0,0.033,0.003,0.064,0.005,0.098H203.323z"/>
		<path fill="#3BBEB8" d="M168.146,280.675c-5.125,0-9.522,3.121-11.393,7.567c-0.958,2.276,0.748,4.788,3.217,4.788h16.352
			c2.469,0,4.174-2.512,3.217-4.788C177.669,283.796,173.272,280.675,168.146,280.675z"/>
		<circle fill="#3BBEB8" cx="168.49" cy="263.715" r="6.352"/>
	</g>
	<circle fill="#3BBEB8" cx="166.734" cy="77.966" r="3.351"/>
	<circle fill="#3BBEB8" cx="201.74" cy="77.966" r="3.351"/>
</g>
<path fill="#FDE3CB" d="M249.091,292.796h-64.379h-0.098h-64.379l-8.612,55.332c0,0,5.667,2.14,15.989,5.92
	c5.917,2.167,13.104,4.316,19.833,6c7.892,1.974,15.989,2.582,22,3.333c6.667,0.833,20,0.334,35.667-1.166
	c6.462-0.619,13.568-2.08,17.25-2.75c6.417-1.167,14.833-3.75,21.833-6.167c7.424-2.563,13.927-5.42,13.927-5.42L249.091,292.796z"
	/>
<path fill="#F2D0B3" d="M251.27,302.97H117.7c-2.522,0-4.566-2.045-4.566-4.566v-1.041c0-2.521,2.044-4.566,4.566-4.566h133.57
	c2.522,0,4.565,2.045,4.565,4.566v1.041C255.835,300.925,253.792,302.97,251.27,302.97z"/>
<rect x="128.765" y="326.694" fill="#F2D0B3" width="107.367" height="7.238"/>
<rect x="128.765" y="341.573" fill="#F2D0B3" width="107.367" height="7.238"/>
</svg>
