<?xml version="1.0" encoding="UTF-8"?>
<svg width="90px" height="62px" viewBox="0 0 90 62" version="1.1" xmlns="http://www.w3.org/2000/svg" xmlns:xlink="http://www.w3.org/1999/xlink">
    <!-- Generator: sketchtool 63.1 (101010) - https://sketch.com -->
    <title>BBDD12AE-2779-4AAF-9A78-AF980BAC2CF7</title>
    <desc>Created with sketchtool.</desc>
    <g id="Asset-Artboard-Page" stroke="none" stroke-width="1" fill="none" fill-rule="evenodd">
        <g id="icon-control">
            <g>
                <rect id="Rectangle" fill="#1EA2C4" x="45.0200002" y="25.7600002" width="5.92000008" height="7.4000001" rx="1.48000002"></rect>
                <path d="M36.1400001,34.6400003 L33.1800001,34.6400003 L33.1800001,8.74000001 C33.1800001,8.33078 32.8484801,8 32.4400001,8 C32.0315201,8 31.7,8.33078 31.7,8.74000001 L31.7,34.6400003 L28.74,34.6400003 C28.33152,34.6400003 28,34.9707803 28,35.3800004 L28,44.2600005 C28,44.6692205 28.33152,45 28.74,45 L31.7,45 L31.7,47.2200005 C31.7,47.6292205 32.0315201,47.9600005 32.4400001,47.9600005 C32.8484801,47.9600005 33.1800001,47.6292205 33.1800001,47.2200005 L33.1800001,45 L36.1400001,45 C36.5484801,45 36.8800001,44.6692205 36.8800001,44.2600005 L36.8800001,35.3800004 C36.8800001,34.9707803 36.5484801,34.6400003 36.1400001,34.6400003 Z M35.4000001,43.5200005 L29.48,43.5200005 L29.48,36.1200004 L35.4000001,36.1200004 L35.4000001,43.5200005 Z" id="Shape" stroke="#5B467A" stroke-width="0.7" fill="#5B467A" fill-rule="nonzero"></path>
                <path d="M50.2000003,22.8000002 L47.2400002,22.8000002 L47.2400002,8.74000001 C47.2400002,8.33078 46.9084802,8 46.5000002,8 C46.0915202,8 45.7600002,8.33078 45.7600002,8.74000001 L45.7600002,22.8000002 L42.8000002,22.8000002 C42.3915202,22.8000002 42.0600002,23.1307802 42.0600002,23.5400002 L42.0600002,32.4200003 C42.0600002,32.8292203 42.3915202,33.1600003 42.8000002,33.1600003 L45.7600002,33.1600003 L45.7600002,47.2200005 C45.7600002,47.6292205 46.0915202,47.9600005 46.5000002,47.9600005 C46.9084802,47.9600005 47.2400002,47.6292205 47.2400002,47.2200005 L47.2400002,33.1600003 L50.2000003,33.1600003 C50.6084803,33.1600003 50.9400003,32.8292203 50.9400003,32.4200003 L50.9400003,23.5400002 C50.9400003,23.1307802 50.6084803,22.8000002 50.2000003,22.8000002 Z M49.4600003,31.6800003 L43.5400002,31.6800003 L43.5400002,24.2800002 L49.4600003,24.2800002 L49.4600003,31.6800003 Z" id="Shape" stroke="#5B467A" stroke-width="0.7" fill="#5B467A" fill-rule="nonzero"></path>
                <path d="M64.2600005,10.96 L61.3000004,10.96 L61.3000004,8.74000001 C61.3000004,8.33078 60.9684804,8 60.5600004,8 C60.1515204,8 59.8200004,8.33078 59.8200004,8.74000001 L59.8200004,10.96 L56.8600004,10.96 C56.4515204,10.96 56.1200004,11.29078 56.1200004,11.7 L56.1200004,20.5800002 C56.1200004,20.9892202 56.4515204,21.3200002 56.8600004,21.3200002 L59.8200004,21.3200002 L59.8200004,47.2200005 C59.8200004,47.6292205 60.1515204,47.9600005 60.5600004,47.9600005 C60.9684804,47.9600005 61.3000004,47.6292205 61.3000004,47.2200005 L61.3000004,21.3200002 L64.2600005,21.3200002 C64.6684805,21.3200002 65.0000005,20.9892202 65.0000005,20.5800002 L65.0000005,11.7 C65.0000005,11.29078 64.6684805,10.96 64.2600005,10.96 Z M63.5200005,19.8400002 L57.6000004,19.8400002 L57.6000004,12.4400001 L63.5200005,12.4400001 L63.5200005,19.8400002 Z" id="Shape" stroke="#5B467A" stroke-width="0.7" fill="#5B467A" fill-rule="nonzero"></path>
                <rect id="Rectangle-Copy-16" fill="#D8D8D8" opacity="0" x="0" y="0" width="90" height="62"></rect>
            </g>
        </g>
    </g>
</svg>