<?xml version="1.0" encoding="UTF-8"?>
<svg width="90px" height="62px" viewBox="0 0 90 62" version="1.1" xmlns="http://www.w3.org/2000/svg" xmlns:xlink="http://www.w3.org/1999/xlink">
    <!-- Generator: sketchtool 63.1 (101010) - https://sketch.com -->
    <title>39261C6E-2353-4FA9-9B94-B8CE8666B0E3</title>
    <desc>Created with sketchtool.</desc>
    <g id="Asset-Artboard-Page" stroke="none" stroke-width="1" fill="none" fill-rule="evenodd">
        <g id="icon-rocket">
            <g>
                <polygon id="Path-5" fill="#1EA2C4" points="50.4017253 19.8400002 64.0280134 10.4621582 61.6884766 18.1494141 58.5117188 25.7600002"></polygon>
                <path d="M65.2416634,9.0105444 C65.1577258,8.9977032 65.072431,8.9977032 64.9884934,9.0105444 C57.2364802,10.5532632 50.1040809,14.32701 44.4676293,19.8681445 L37.1011653,20.2439845 C36.8937225,20.2533805 36.6971373,20.3397193 36.5499333,20.4861925 L28.9830212,28.0531045 C28.6555184,28.3778929 28.653326,28.9067833 28.9781144,29.2342861 C29.136176,29.3936005 29.3515532,29.4826537 29.5760132,29.4812965 L29.6344772,29.4812965 L38.1618693,28.8966565 C37.8277893,29.5982245 37.5104133,30.3164965 37.2180933,31.0681765 C37.0968849,31.3761565 37.1689209,31.7266273 37.4018373,31.9618405 L43.0143813,37.5743846 C43.2495945,37.807301 43.6000653,37.879337 43.9080453,37.7581286 C44.6847813,37.4574566 45.4197573,37.1233766 46.1463813,36.7809446 L45.5617413,45.4002086 C45.5352237,45.860717 45.8870517,46.2555578 46.3475601,46.2820754 C46.5830865,46.2956474 46.8134973,46.208891 46.9815813,46.0433126 L54.5484934,38.4764006 C54.6949666,38.3291966 54.7813054,38.1326114 54.7907014,37.9251686 L55.1748934,30.4083685 C60.6692566,24.7805821 64.4095954,17.6773104 65.9406214,9.96267241 C66.0105694,9.5067576 65.6975782,9.0804924 65.2416634,9.0105444 Z M31.7475332,27.6271525 L37.5104133,21.8642725 L42.8640453,21.5886565 C41.4049509,23.2984153 40.1258421,25.1540209 39.0471813,27.1260325 L31.7475332,27.6271525 Z M53.1453573,37.4992166 L47.3824773,43.2620966 L47.8835973,35.8622245 C49.8563397,34.7783437 51.7120497,33.4937017 53.4209734,32.0286565 L53.1453573,37.4992166 Z M43.8078213,35.9791525 L38.9720133,31.1433445 C45.0606213,16.2684324 59.7601414,11.8836324 64.0280134,10.9064484 C63.0675334,15.1910244 58.7077894,29.8821925 43.8078213,35.9791525 Z" id="Shape" stroke="#5B467A" stroke-width="0.5" fill="#5B467A" fill-rule="nonzero"></path>
                <path d="M35.2303173,32.3042725 C34.9051112,31.9744729 34.3741328,31.9707145 34.0443332,32.2959205 L26.2936772,40.0131686 C25.9424756,40.3122746 25.900298,40.8393902 26.1992996,41.1905918 C26.3678012,41.3884298 26.6187788,41.4965882 26.8783172,41.4831206 C27.1002716,41.4843734 27.3136652,41.3971994 27.4713092,41.2409126 L35.2219653,33.4902565 C35.5517649,33.1651549 35.5555233,32.6340721 35.2303173,32.3042725 Z" id="Path" stroke="#5B467A" stroke-width="0.5" fill="#5B467A" fill-rule="nonzero"></path>
                <path d="M35.4194901,39.542951 C35.4177153,39.5410718 35.4159405,39.5390882 35.4140613,39.537209 C35.0883332,39.2133602 34.5621572,39.2133602 34.2364292,39.537209 L26.4774212,47.329625 C26.0804924,47.5646294 25.949366,48.0769202 26.1843704,48.473849 C26.4193748,48.8707778 26.9316656,49.0019042 27.3285944,48.7668998 C27.4493852,48.6953858 27.5501312,48.5946398 27.6216452,48.473849 L35.3723013,40.723193 C35.7112881,40.4102018 35.7323769,39.8818334 35.4194901,39.542951 Z" id="Path" stroke="#5B467A" stroke-width="0.5" fill="#5B467A" fill-rule="nonzero"></path>
                <path d="M42.5642085,39.7292006 C42.2515305,39.4614146 41.7903957,39.4614146 41.4777177,39.7292006 L41.5027737,39.7292006 L33.7521176,47.4798566 C33.4017512,47.7799022 33.3609308,48.3071222 33.6609764,48.6574886 C33.961022,49.007855 34.488242,49.0486754 34.8386084,48.7486298 C34.8712856,48.7206506 34.9017704,48.6901658 34.9297496,48.6574886 L42.6553497,40.9068326 C42.9552909,40.5565706 42.9144705,40.0292462 42.5642085,39.7292006 Z" id="Path" stroke="#5B467A" stroke-width="0.5" fill="#5B467A" fill-rule="nonzero"></path>
                <rect id="Rectangle-Copy-17" fill="#D8D8D8" opacity="0" x="0" y="0" width="90" height="62"></rect>
            </g>
        </g>
    </g>
</svg>