<?xml version="1.0" encoding="UTF-8"?>
<svg width="90px" height="62px" viewBox="0 0 90 62" version="1.1" xmlns="http://www.w3.org/2000/svg" xmlns:xlink="http://www.w3.org/1999/xlink">
    <!-- Generator: sketchtool 63.1 (101010) - https://sketch.com -->
    <title>E8C86111-2A05-4DC8-952B-DEDAA6DD7A14</title>
    <desc>Created with sketchtool.</desc>
    <g id="Asset-Artboard-Page" stroke="none" stroke-width="1" fill="none" fill-rule="evenodd">
        <g id="icon-cloud">
            <g>
                <path d="M57.3271616,29.4084704 C57.1854347,23.59237 52.2085555,18.9189189 46.0891773,18.9189189 C40.4641377,18.9189189 35.8038957,22.8676545 34.9777238,28.02336 C29.5849676,26.6744111 24.3243243,30.5683115 24.3243243,35.8796306 C24.3243243,40.3642703 28.1283124,44 32.8208074,44 L57.9917586,44 L57.9917586,43.9718413 C61.9018093,43.6552786 64.972973,40.5234409 64.972973,36.7042352 C64.972973,32.7074817 61.5950961,29.4084704 57.3271616,29.4084704 Z" id="Path-Copy" fill="#1EA2C4" fill-rule="nonzero"></path>
                <path d="M59.5472297,25.1513175 C59.3773986,17.8593581 53.4136148,12 46.080777,12 C39.3403041,12 33.7559459,16.9507432 32.7659459,23.4147297 C26.3038176,21.7234797 20,26.605473 20,33.2645608 C20,38.887196 24.5583108,43.4455067 30.1813175,43.4455067 L60.3436148,43.4455067 L60.3436148,43.4102027 C65.0290202,43.0133109 68.7091892,39.0867568 68.7091892,34.2984122 C68.7091892,29.2874662 64.6614865,25.1513175 59.5472297,25.1513175 Z" id="Path" stroke="#5B467A" stroke-width="2.59459459" fill-rule="nonzero"></path>
                <rect id="Rectangle" fill="#D8D8D8" opacity="0" x="0" y="0" width="90" height="62"></rect>
            </g>
        </g>
    </g>
</svg>