<?xml version="1.0" encoding="UTF-8"?>
<svg width="331px" height="359px" viewBox="0 0 331 359" version="1.1" xmlns="http://www.w3.org/2000/svg" xmlns:xlink="http://www.w3.org/1999/xlink">
    <!-- Generator: sketchtool 63.1 (101010) - https://sketch.com -->
    <title>54917767-FBC8-4FFE-9315-B0E63BC01235</title>
    <desc>Created with sketchtool.</desc>
    <g id="Page-1" stroke="none" stroke-width="1" fill="none" fill-rule="evenodd">
        <g id="X-box-2" transform="translate(0.000000, -1842.000000)" fill="#FFFFFF" fill-rule="nonzero">
            <g id="Ebook" transform="translate(-50.000000, 1828.000000)">
                <g id="xbot-logo" transform="translate(0.000000, 14.000000)">
                    <g id="Group" transform="translate(175.730000, 225.530000)">
                        <circle id="Oval" cx="31.575" cy="31.65" r="8.169"></circle>
                        <circle id="Oval" cx="105.525" cy="104.31" r="8.169"></circle>
                        <circle id="Oval" cx="151.53" cy="104.31" r="8.169"></circle>
                        <circle id="Oval" opacity="0.49" cx="131.325" cy="32.085" r="2.58"></circle>
                        <circle id="Oval" opacity="0.49" cx="157.125" cy="57.885" r="2.5815"></circle>
                        <circle id="Oval" cx="6.645" cy="6.72" r="6.018"></circle>
                    </g>
                    <circle id="Oval" stroke="#FFFFFF" stroke-width="3" cx="232.25" cy="233.54" r="6.0195"></circle>
                    <g id="Group" transform="translate(250.230000, 202.530000)">
                        <circle id="Oval" opacity="0.6" cx="6.095" cy="55.505" r="6.0195"></circle>
                        <circle id="Oval" opacity="0.6" cx="7.385" cy="6.065" r="6.0195"></circle>
                        <circle id="Oval" opacity="0.6" cx="31.46" cy="30.14" r="6.0195"></circle>
                        <circle id="Oval" cx="31.88" cy="80.885" r="5.589"></circle>
                        <circle id="Oval" opacity="0.49" cx="52.1" cy="149.24" r="5.589"></circle>
                        <circle id="Oval" opacity="0.49" cx="57.68" cy="106.67" r="5.5905"></circle>
                    </g>
                    <circle id="Oval" stroke="#FFFFFF" stroke-width="3" cx="205.16" cy="206.45" r="8.169"></circle>
                    <g id="Group" transform="translate(0.230000, 174.530000)">
                        <circle id="Oval" opacity="0.6" cx="255.66" cy="130.38" r="8.169"></circle>
                        <circle id="Oval" opacity="0.6" cx="231.585" cy="8.265" r="8.1675"></circle>
                        <circle id="Oval" cx="80.67" cy="55.56" r="8.169"></circle>
                        <circle id="Oval" cx="105.6" cy="80.505" r="8.1705"></circle>
                        <circle id="Oval" cx="79.815" cy="155.31" r="8.169"></circle>
                        <circle id="Oval" opacity="0.49" cx="79.815" cy="155.31" r="2.58"></circle>
                        <circle id="Oval" opacity="0.49" cx="54.015" cy="181.11" r="2.58"></circle>
                        <circle id="Oval" cx="105.6" cy="30.63" r="6.0195"></circle>
                        <circle id="Oval" opacity="0.6" cx="79.815" cy="105" r="6.0195"></circle>
                        <circle id="Oval" opacity="0.6" cx="129.255" cy="105.87" r="6.018"></circle>
                        <circle id="Oval" opacity="0.6" cx="105.18" cy="130.38" r="6.0195"></circle>
                        <circle id="Oval" cx="54.015" cy="130.38" r="5.589"></circle>
                    </g>
                    <circle id="Oval" stroke="#FFFFFF" stroke-width="3" cx="131.63" cy="227.945" r="8.169"></circle>
                    <g id="Group" transform="translate(19.730000, 43.530000)">
                        <circle id="Oval" opacity="0.6" cx="135.555" cy="211.505" r="8.1705"></circle>
                        <circle id="Oval" cx="84.825" cy="8.57" r="8.169"></circle>
                        <circle id="Oval" cx="58.155" cy="81.65" r="8.169"></circle>
                        <circle id="Oval" cx="134.265" cy="58.01" r="8.169"></circle>
                    </g>
                    <g id="Group" transform="translate(147.230000, 144.530000)" stroke="#FFFFFF" stroke-width="3">
                        <circle id="Oval" cx="8.49" cy="59.34" r="8.1675"></circle>
                        <circle id="Oval" cx="33.855" cy="35.685" r="8.169"></circle>
                        <circle id="Oval" cx="57.93" cy="9.03" r="8.169"></circle>
                    </g>
                    <g id="Group" transform="translate(25.730000, 17.030000)">
                        <circle id="Oval" opacity="0.6" cx="52.155" cy="8.415" r="8.169"></circle>
                        <circle id="Oval" opacity="0.49" cx="28.95" cy="84.075" r="2.5785"></circle>
                        <circle id="Oval" cx="153.195" cy="109.875" r="6.0195"></circle>
                    </g>
                    <circle id="Oval" stroke="#FFFFFF" stroke-width="3" cx="129.05" cy="125.18" r="6.0195"></circle>
                    <g id="Group" transform="translate(47.730000, 1.530000)">
                        <circle id="Oval" opacity="0.6" cx="55.955" cy="149.03" r="6.018"></circle>
                        <circle id="Oval" opacity="0.6" cx="81.32" cy="75.065" r="6.0195"></circle>
                        <circle id="Oval" cx="31.445" cy="73.79" r="5.589"></circle>
                        <circle id="Oval" opacity="0.49" cx="11.24" cy="5.855" r="5.5905"></circle>
                        <circle id="Oval" opacity="0.49" cx="5.66" cy="47.99" r="5.589"></circle>
                    </g>
                    <circle id="Oval" stroke="#FFFFFF" stroke-width="3" cx="156.575" cy="152.27" r="8.169"></circle>
                    <g id="Group" transform="translate(121.230000, 0.030000)">
                        <circle id="Oval" opacity="0.6" cx="8.255" cy="176.315" r="8.169"></circle>
                        <circle id="Oval" cx="209.045" cy="79.16" r="8.169"></circle>
                        <circle id="Oval" cx="135.95" cy="52.49" r="8.169"></circle>
                        <circle id="Oval" cx="158.315" cy="126.875" r="8.169"></circle>
                        <circle id="Oval" opacity="0.6" cx="235.7" cy="52.49" r="8.169"></circle>
                        <circle id="Oval" opacity="0.49" cx="160.025" cy="28.85" r="2.5785"></circle>
                        <circle id="Oval" opacity="0.49" cx="185.825" cy="3.05" r="2.58"></circle>
                        <circle id="Oval" cx="134.66" cy="153.53" r="6.0195"></circle>
                        <circle id="Oval" opacity="0.6" cx="135.95" cy="103.655" r="6.0195"></circle>
                        <circle id="Oval" opacity="0.6" cx="160.025" cy="79.58" r="6.0195"></circle>
                        <circle id="Oval" opacity="0.6" cx="110.585" cy="78.29" r="6.0195"></circle>
                        <circle id="Oval" opacity="0.6" cx="184.535" cy="103.655" r="6.0195"></circle>
                        <circle id="Oval" opacity="0.49" cx="253.76" cy="33.575" r="5.589"></circle>
                        <circle id="Oval" opacity="0.49" cx="211.625" cy="27.995" r="5.589"></circle>
                    </g>
                    <circle id="Oval" stroke="#FFFFFF" stroke-width="3" cx="230.09" cy="130.775" r="8.169"></circle>
                    <circle id="Oval" opacity="0.6" cx="206.015" cy="104.12" r="8.169"></circle>
                </g>
            </g>
        </g>
    </g>
</svg>