<?xml version="1.0" encoding="utf-8"?>
<!-- Generator: Adobe Illustrator 21.1.0, SVG Export Plug-In . SVG Version: 6.00 Build 0)  -->
<svg version="1.1" id="Layer_1" xmlns="http://www.w3.org/2000/svg" xmlns:xlink="http://www.w3.org/1999/xlink" x="0px" y="0px"
	 viewBox="0 0 70 70" style="enable-background:new 0 0 70 70;" xml:space="preserve">
<g>
	<g>
		<path style="fill:#1ea2c4;" d="M40.8,59.8c-0.9,0-1.8-0.3-2.5-0.9c-0.9-0.7-1.3-1.8-1.3-2.9V16.6c0-1.1,0.5-2.2,1.3-2.9
			c0.9-0.7,2-1.1,3.1-0.9c11.6,1.8,20.1,11.7,20.1,23.5s-8.4,21.7-20.1,23.5C41.2,59.8,41,59.8,40.8,59.8z"/>
	</g>
</g>
<path style="fill:#5b467a;" d="M38.3,10c-1.2-0.2-2.5,0.2-3.4,1c-0.4,0.3-0.6,0.7-0.9,1.1c-1.2-1.4-3-2.4-5.1-2.4
	c-2.4,0-4.5,1.3-5.6,3.2c-3.5,0-6.3,2.8-6.5,6.3c-1,0.7-1.8,1.7-2.2,2.9c-2.5,1-4.2,3.4-4.2,6.1c0,1,0.2,1.9,0.6,2.8
	c-0.9,1.3-1.4,2.8-1.4,4.3c0,1.8,0.7,3.6,1.9,4.9c-0.2,0.7-0.3,1.4-0.3,2.2c0,3.6,2.6,6.7,6.1,7.3c0.7,1.4,1.9,2.5,3.4,3
	c0.4,3.7,3.5,6.6,7.4,6.6c2.3,0,4.3-1,5.7-2.7c0.3,0.5,0.6,1,1.1,1.4c0.8,0.7,1.8,1,2.8,1c0.2,0,0.4,0,0.7-0.1
	c12.1-1.9,21-12.2,21-24.5C59.3,22.2,50.5,11.9,38.3,10z M35.6,51.9v-0.3v-35v-0.3v-2.1c0-0.6,0.3-1.2,0.7-1.6
	c0.4-0.3,0.9-0.5,1.4-0.5c0.1,0,0.2,0,0.3,0c10.9,1.7,19.1,11.3,19.1,22.4S48.9,55.2,38,56.9c-0.6,0.1-1.2-0.1-1.7-0.5
	c-0.5-0.4-0.7-1-0.7-1.6V51.9z M28.2,46.6h0.3v-2.1h-0.3c-3.6,0-6.5,2.5-7.2,5.9c-1.2-0.6-2-1.8-2-3.2c0-2,1.6-3.7,3.7-3.7h0.3v-2.1
	h-0.3c-3.2,0-5.8,2.6-5.8,5.8c0,0.1,0,0.1,0,0.2c-2-0.8-3.4-2.7-3.4-4.9c0-2.9,2.4-5.3,5.3-5.3H19V35h-0.3c-2.5,0-4.7,1.2-6,3.1
	c-0.5-0.8-0.8-1.8-0.8-2.8c0-1.3,0.5-2.5,1.3-3.5l0.5-0.6l-0.4-0.7c-0.4-0.7-0.7-1.5-0.7-2.3c0-1.5,0.8-2.8,1.9-3.7
	c0.5,2.3,2.5,3.9,4.9,3.9h0.3v-2.1h-0.3c-1.6,0-2.9-1.3-2.9-2.9s1.3-2.9,2.9-2.9s2.9,1.3,2.9,2.9v0.3h2.1v-0.3c0-2.8-2.3-5-5-5
	c-0.1,0-0.3,0-0.4,0c0.4-1.7,1.7-3,3.4-3.3c-0.1,0.4-0.1,0.8-0.1,1.2c0,3.6,3,6.6,6.6,6.6h0.3v-2.1H29c-2.5,0-4.5-2-4.5-4.5
	c0-2.5,2-4.5,4.5-4.5s4.5,2,4.5,4.5v0.3v35v0.3c0,2.9-2.4,5.3-5.3,5.3s-5.3-2.4-5.3-5.3S25.3,46.6,28.2,46.6z M40,31.6h-3.4v-2.1H40
	c0.3,0,0.5-0.2,0.5-0.5v-5.8h2.1V29C42.7,30.4,41.5,31.6,40,31.6z M41.6,22.1c1.5,0,2.7-1.2,2.7-2.7s-1.2-2.7-2.7-2.7
	c-1.5,0-2.7,1.2-2.7,2.7S40.2,22.1,41.6,22.1z M41.1,19.5c0-0.3,0.2-0.5,0.5-0.5c0.3,0,0.5,0.2,0.5,0.5S41.9,20,41.6,20
	C41.3,20,41.1,19.8,41.1,19.5z M40,39.5h-3.4v-2.1H40c1.5,0,2.7,1.2,2.7,2.7v5.8h-2.1V40C40.5,39.8,40.3,39.5,40,39.5z M41.6,46.9
	c-1.5,0-2.7,1.2-2.7,2.7s1.2,2.7,2.7,2.7c1.5,0,2.7-1.2,2.7-2.7S43.1,46.9,41.6,46.9z M42.1,49.5c0,0.3-0.2,0.5-0.5,0.5
	c-0.3,0-0.5-0.2-0.5-0.5s0.2-0.5,0.5-0.5C41.9,49,42.1,49.2,42.1,49.5z M44.8,35.6h-8.2v-2.1h8.2c1.2,0,2.1-0.9,2.1-2.1v-2.7H49v2.7
	C49,33.7,47.1,35.6,44.8,35.6z M47.9,27.7c1.5,0,2.7-1.2,2.7-2.7s-1.2-2.7-2.7-2.7s-2.7,1.2-2.7,2.7S46.5,27.7,47.9,27.7z M47.4,25
	c0-0.3,0.2-0.5,0.5-0.5s0.5,0.2,0.5,0.5s-0.2,0.5-0.5,0.5S47.4,25.3,47.4,25z M46.9,37.4H49v8.5h-2.1V37.4z M53,39.5h-2.1V26.3H53
	V39.5z M53,42.7h-2.1v-2.1H53V42.7z M30.8,17.4h-2.1v-2.1h2.1V17.4z M24.7,33.4h2.1v2.1h-2.1V33.4z M29.5,50.8h2.1V53h-2.1V50.8z
	 M16,39h2.1v2.1H16V39z M30.3,27.9h2.1V30h-2.1V27.9z M15.3,29.5h2.1v2.1h-2.1V29.5z"/>
</svg>
