<?xml version="1.0" encoding="utf-8"?>
<!-- Generator: Adobe Illustrator 21.1.0, SVG Export Plug-In . SVG Version: 6.00 Build 0)  -->
<svg version="1.1" id="Layer_1" xmlns="http://www.w3.org/2000/svg" xmlns:xlink="http://www.w3.org/1999/xlink" x="0px" y="0px"
	 viewBox="0 0 70 70" style="enable-background:new 0 0 70 70;" xml:space="preserve">
<path style="fill:#1ea2c4;" d="M55.4,26.8c-0.3-0.4-0.6-0.7-0.9-1c-0.7-0.4-1.4-0.5-2.1-0.2c-0.6,0.2-1,0.6-1.3,0.8
	c-0.7,0.5-1.3,1-3.3,1c-2,0.1-2.6-0.4-3.3-1c-0.4-0.3-0.8-0.6-1.3-0.8c-0.7-0.3-1.4-0.2-2.1,0.2c-0.4,0.2-0.7,0.6-1,1l0-0.1
	c0.4-3.1,3.7-5.5,7.7-5.5C51.6,21.2,54.9,23.6,55.4,26.8C55.4,26.8,55.4,26.8,55.4,26.8z M34.4,35.5c-2.8,0-5.2,1.7-5.5,3.9
	c0,0.3-0.1,0.5-0.1,0.7c5.9-0.1,7.6-1.1,8.5-1.7c0.1-0.1,0.3-0.2,0.4-0.3c0.4-0.2,0.8-0.2,1.2,0c0.4,0.2,0.6,0.6,0.6,1
	c0,0.3,0.1,0.8,0.5,1.2c0-0.3-0.1-0.6-0.1-1C39.6,37.1,37.2,35.5,34.4,35.5z M29,29.4c0-0.3,0-0.5,0-0.7c0-0.4-0.1-0.8-0.1-1.3
	C28.4,24,25,21.6,21,21.6c-4,0-7.4,2.4-7.9,5.7c0,0.2-0.1,0.4-0.1,0.5c0,0,0,0,0,0c0,0.1,0,1-0.1,2.4c0,0.2,0,0.3,0,0.5
	c1.7,0,6.3-0.3,8.3-3.5c0.4-0.7,0.7-1.4,0.9-2.3c0.1-0.6,0.7-1,1.3-0.9c0.6,0.1,1,0.7,0.9,1.3c-0.2,0.9-0.5,1.8-1,2.6
	c1.5,2.5,4.6,2.1,5.7,1.9C29,29.7,29,29.5,29,29.4z"/>
<path style="fill:#5b467a;" d="M43.5,49.6l-4.9-2.5c-0.1,0-0.2,0-0.3,0c-0.1-0.6,0-1.2,0-1.2c0,0,0,0,0,0c0.7-0.7,1.2-1.5,1.4-2.5
	c0.2-0.8,0.5-2.6,0.6-3.5c0.1-1.1,0.1-1.6-0.1-2.3c-0.3-2.5-2.8-4.4-5.8-4.4c-3,0-5.4,1.9-5.8,4.5c-0.1,0.6-0.1,1.2,0,2.2
	c0.1,0.9,0.4,2.6,0.6,3.5c0.2,1,0.8,1.9,1.4,2.5c0,0,0.1,0.6,0,1.2c-0.1,0-0.2,0-0.3,0l-4.7,2.5c-0.4,0.2-0.6,0.8-0.4,1.2
	c0.2,0.4,0.8,0.6,1.2,0.4l4.2-2.2c1,0.9,2.3,1.3,3.8,1.3c1.5,0,2.7-0.4,3.7-1.3l4.3,2.2c0.1,0.1,0.3,0.1,0.4,0.1
	c0.3,0,0.6-0.2,0.8-0.5C44.1,50.3,43.9,49.8,43.5,49.6z M30.5,37.8c0.2-1.6,2-2.9,4-2.9c2.1,0,3.8,1.2,4.1,2.9
	c0,0.3,0.1,0.5,0.1,0.7c-0.3-0.3-0.3-0.7-0.3-0.9c0-0.3-0.2-0.6-0.4-0.8c-0.3-0.2-0.6-0.2-0.9,0C37,37,36.9,37,36.8,37.1
	c-0.7,0.4-2,1.2-6.3,1.2C30.5,38.2,30.5,38,30.5,37.8z M34.7,48.5c-0.9,0-1.6-0.2-2.2-0.6c0.1-0.3,0.1-0.6,0.2-0.9
	c0.6,0.2,1.3,0.4,2,0.4c0.7,0,1.4-0.1,2-0.4c0,0.3,0.1,0.6,0.2,0.9C36.2,48.3,35.5,48.5,34.7,48.5z M34.6,45.7
	c-1.7,0-3.1-1.1-3.5-2.8c-0.2-0.7-0.4-2-0.5-2.8c3.6-0.1,5.4-0.6,6.4-1.1c0.3,0.6,0.8,1.2,1.6,1.5c-0.1,0.8-0.3,1.9-0.5,2.4
	C37.7,44.6,36.2,45.7,34.6,45.7z M27.9,42.5c-0.1-0.6-0.3-1.4-0.4-2.1c-0.7-0.3-1.2-0.5-1.2-0.5c-0.1,0-0.2,0-0.3,0
	c-0.1-0.6-0.1-1.2-0.1-1.6c0.5,0,1,0,1.4,0c0-0.5,0-0.8,0.1-1.2c0-0.2,0.1-0.4,0.1-0.5c-0.2,0-0.4-0.1-0.6-0.1
	c0.6-0.8,1.1-1.8,1.4-2.8c0.1,0.3,0.1,0.5,0.2,0.8c0.4-0.5,0.9-1,1.5-1.4c-0.5-2.5-0.6-4.9-0.7-6c0-0.1,0-0.3,0-0.4
	c0-0.1,0-0.1,0-0.2c0,0,0-0.1,0-0.1c0-0.4-0.1-0.7-0.1-1.1c-0.5-3.5-4-6.1-8.1-6.1c-4.1,0-7.6,2.6-8.1,6.1c-0.1,0.9-0.2,1.5-0.1,2.6
	c-0.2,2.7-0.7,7.5-2.6,10.4C10,38.5,10,39,10.3,39.3c0.2,0.2,0.4,0.3,0.6,0.3c0.2,0,0.3,0,0.5-0.1c0,0,2.3-1.4,4.9-1.2
	c0,0.5,0,1-0.1,1.6c-0.1,0-0.2,0-0.3,0c-0.2,0.1-5.1,2.1-6.5,2.8c-0.4,0.2-0.6,0.7-0.4,1.2c0.2,0.4,0.7,0.6,1.2,0.4
	c1.1-0.5,4.4-2,5.8-2.5c1.5,1.8,4.3,5.9,4.3,6c0.2,0.2,0.4,0.4,0.7,0.4c0.3,0,0.6-0.1,0.7-0.4c0,0,2.8-4.1,4.3-6
	C26.6,41.9,27.2,42.2,27.9,42.5z M14.7,25.8C14.7,25.8,14.7,25.8,14.7,25.8c0-0.1,0-0.3,0.1-0.4c0.4-2.6,3.1-4.6,6.4-4.6
	c3.3,0,6,2,6.4,4.7c0.1,0.4,0.1,0.7,0.1,1.1c0,0.1,0,0.3,0,0.5c0,0.1,0,0.2,0,0.4C26.7,27.7,24.2,28,23,26c0.4-0.7,0.6-1.4,0.8-2.1
	c0.1-0.5-0.2-0.9-0.7-1c-0.5-0.1-0.9,0.2-1,0.7c-0.1,0.7-0.4,1.3-0.7,1.8c-1.6,2.5-5.3,2.8-6.7,2.8c0-0.2,0-0.3,0-0.4
	C14.7,26.7,14.7,25.9,14.7,25.8z M12.9,36.9c0.4-1,0.7-2.2,1-3.3c0.3,1.1,0.8,2,1.4,2.9C14.4,36.5,13.6,36.6,12.9,36.9z M21.1,45.6
	c-0.9-1.3-2.3-3.3-3.4-4.7c0.3-0.8,0.4-1.6,0.4-2.3c0.9,0.4,1.9,0.7,3,0.7c1,0,2-0.2,3-0.6c0,0.7,0.1,1.5,0.4,2.4
	C23.4,42.4,21.9,44.4,21.1,45.6z M21.1,37.5c-2.6,0-4.9-1.8-5.5-4.4c-0.2-0.8-0.4-2.1-0.6-3.2c1.6,0,4.8-0.4,6.9-2.4
	c1.2,1.5,2.9,1.9,4.4,1.9c0.4,0,0.8,0,1.2-0.1c-0.2,1.3-0.5,2.9-0.7,3.8C26,35.7,23.7,37.5,21.1,37.5z M60.5,42.9l-7.2-3.6
	c-0.2-0.1-0.4-0.1-0.6-0.1c-0.2-1.1,0-2.1,0-2.2c0-0.1,0-0.1,0-0.2c1-1,1.8-2.2,2.1-3.6c0.3-1.2,0.8-3.8,0.9-5.1
	c0.2-1.6,0.1-2.2-0.1-3.3c-0.5-3.5-3.9-6.1-8.1-6.1c-4.1,0-7.6,2.6-8.1,6.1l0,0.2c-0.1,1-0.2,1.6,0,3.1c0.1,1.3,0.6,3.8,0.9,5.1
	c0.3,1.5,1.1,2.7,2.1,3.7c0,0,0,0.1,0,0.1c0,0,0.2,1.1-0.1,2.2c-0.2,0-0.4,0-0.5,0.1c0,0.2,0,0.5-0.1,0.7c0,0.4-0.1,0.9-0.2,1.4
	l0.5-0.3c1.5,1.3,3.3,2,5.6,2c2.3,0,3.9-0.6,5.4-2l6.6,3.4c0.1,0.1,0.3,0.1,0.4,0.1c0.3,0,0.6-0.2,0.8-0.5
	C61.1,43.6,61,43.1,60.5,42.9z M41.2,25.1c0.4-2.6,3.1-4.6,6.4-4.6c3.3,0,6,2,6.4,4.6c0,0,0,0,0,0c-0.2-0.3-0.5-0.6-0.8-0.8
	c-0.5-0.4-1.2-0.4-1.7-0.2c-0.5,0.2-0.8,0.5-1.1,0.7c-0.6,0.4-1.1,0.8-2.8,0.8c-1.7,0-2.2-0.3-2.7-0.8c-0.3-0.2-0.6-0.5-1.1-0.7
	c-0.6-0.2-1.2-0.2-1.7,0.2c-0.3,0.2-0.6,0.5-0.8,0.8L41.2,25.1z M47.7,41.3c-1.6,0-2.8-0.3-3.8-1c0.3-0.8,0.4-1.5,0.4-2.1
	c1,0.5,2.1,0.8,3.3,0.8c1.2,0,2.3-0.3,3.3-0.8c0,0.6,0.1,1.4,0.4,2.2C50.3,41,49.2,41.3,47.7,41.3z M47.6,37.2
	c-2.6,0-4.9-1.8-5.5-4.4c-0.2-0.8-0.5-2.2-0.7-3.4c0-0.1,0-0.1,0.1-0.2c0-0.7,1-3.3,1.6-3.4c0.3,0.1,0.5,0.3,0.7,0.5
	c0.7,0.5,1.6,1.2,3.8,1.2c2.2,0.1,3.2-0.6,3.9-1.2c0.3-0.2,0.5-0.4,0.7-0.5c0.6,0.1,1.6,2.7,1.6,3.4c0,0.1,0,0.2,0,0.2
	c-0.2,1.2-0.5,2.6-0.7,3.4C52.5,35.4,50.2,37.2,47.6,37.2z"/>
</svg>
