<?xml version="1.0" encoding="utf-8"?>
<!-- Generator: Adobe Illustrator 21.1.0, SVG Export Plug-In . SVG Version: 6.00 Build 0)  -->
<svg version="1.1" id="Layer_1" xmlns="http://www.w3.org/2000/svg" xmlns:xlink="http://www.w3.org/1999/xlink" x="0px" y="0px"
	 viewBox="0 0 70 70" style="enable-background:new 0 0 70 70;" xml:space="preserve">
<path style="fill:#1ea2c4;" d="M36.8,41.5l13.6-9.8c-2.5-4.6-7.1-7.9-12.7-8.4c-5.2-0.4-10,1.7-13.3,5.4L36.8,41.5z"/>
<path style="fill:#5b467a;" d="M46.4,27.1l2.5-1.7c-3.2-4.2-8.3-7-14-7c-5.8,0-11,2.9-14.2,7.3l2.2,2c2.7-3.8,7-6.3,12-6.3
	C39.7,21.5,43.8,23.7,46.4,27.1z M28.5,50.4h13.1v-2.3H28.5V50.4z M51.9,26.1L35.9,37.9c-1.1-0.4-2.4-0.1-3.1,0.9
	c-1,1.2-0.9,3,0.3,4.1c1.2,1,3,0.9,4.1-0.3c0.6-0.7,0.8-1.5,0.6-2.3L52.7,27L51.9,26.1z M35,11.2c-13.1,0-23.8,10.7-23.8,23.8
	c0,13.1,10.7,23.8,23.8,23.8S58.8,48.1,58.8,35C58.8,21.9,48.1,11.2,35,11.2z M35,56.6c-11.9,0-21.6-9.7-21.6-21.6
	S23.1,13.4,35,13.4c11.9,0,21.6,9.7,21.6,21.6S46.9,56.6,35,56.6z"/>
</svg>
