<?xml version="1.0" encoding="UTF-8"?>
<svg enable-background="new 0 0 70 70" version="1.1" viewBox="0 0 70 70" xml:space="preserve" xmlns="http://www.w3.org/2000/svg"><path d="M54,23h2c2.2,0,4,1.8,4,4v14c0,2.2-1.8,4-4,4H40.7l-7,7.2c-0.6,0.6-1.7,0.2-1.7-0.7V45H17  c-2.2,0-4-1.8-4-4V27c0-2.2,1.8-4,4-4h2" fill="#1ea2c4"/><path d="M52,22h2c2.2,0,4,1.8,4,4v14  c0,2.2-1.8,4-4,4H38.7l-7,7.2c-0.6,0.6-1.7,0.2-1.7-0.7V44H15c-2.2,0-4-1.8-4-4V26c0-2.2,1.8-4,4-4h2" fill="none" stroke="#5b467a" stroke-linejoin="round" stroke-miterlimit="10" stroke-width="2"/><g fill="#5b467a"><path d="m25.93 27.716v-1.8292h-4.7882v-0.03587l1.0222-0.87873c2.0265-1.883 3.497-3.5329 3.497-5.5773 0-1.9009-1.2553-3.5329-3.8377-3.5329-1.4705 0-2.7438 0.52007-3.5867 1.2015l0.6456 1.5602c0.5918-0.44833 1.4705-0.9684 2.4927-0.9684 1.5243 0 2.0803 0.9146 2.0803 1.9547-0.017933 1.5423-1.3091 2.9411-4.0529 5.4876l-1.3809 1.2733v1.345z" style="font-feature-settings:normal;font-variant-caps:normal;font-variant-ligatures:normal;font-variant-numeric:normal"/><path d="m34.558 27.716v-2.959h1.5064v-1.6678h-1.5064v-7.0299h-2.6003l-4.7523 7.263v1.4347h5.2724v2.959zm-5.2545-4.6268 0.01793-0.03587 2.1341-3.1921c0.35867-0.6456 0.66353-1.2374 1.0222-1.9727h0.07173c-0.0538 0.68147-0.07173 1.3629-0.07173 2.0265v3.1742z" style="font-feature-settings:normal;font-variant-caps:normal;font-variant-ligatures:normal;font-variant-numeric:normal"/><path d="m38.13 28.434 4.3757-13.002h-1.5423l-4.3757 13.002z" style="font-feature-settings:normal;font-variant-caps:normal;font-variant-ligatures:normal;font-variant-numeric:normal"/><path d="m43.454 16.06v1.8292h5.4876v0.03587l-4.9137 9.7916h2.3313l4.9317-10.24v-1.4167z" style="font-feature-settings:normal;font-variant-caps:normal;font-variant-ligatures:normal;font-variant-numeric:normal"/></g></svg>
