<?xml version="1.0" encoding="utf-8"?>
<!-- Generator: Adobe Illustrator 21.1.0, SVG Export Plug-In . SVG Version: 6.00 Build 0)  -->
<svg version="1.1" id="Layer_1" xmlns="http://www.w3.org/2000/svg" xmlns:xlink="http://www.w3.org/1999/xlink" x="0px" y="0px"
	 viewBox="0 0 70 70" style="enable-background:new 0 0 70 70;" xml:space="preserve">
<circle style="fill:#1ea2c4;" cx="36.5" cy="37" r="7"/>
<path style="fill:#5b467a;" d="M44,24.9v2.6h-2v-2.6c0-1.8-4.8-3.4-7-3.4s-7,1.6-7,3.4v2.6h-2v-2.6c0-3.8,6.8-5.4,9-5.4
	S44,21.1,44,24.9z M30,13.5v-1c0-2.7,2.2-5,5-5s5,2.2,5,5v1c0,2.7-2.2,5-5,5S30,16.3,30,13.5z M32,13.5c0,1.6,1.3,3,3,3s3-1.3,3-3
	v-1c0-1.6-1.3-3-3-3s-3,1.3-3,3V13.5z M42,45.1c0,1.8-4.8,3.4-7,3.4s-7-1.6-7-3.4v-2.6h-2v2.6c0,3.8,6.8,5.4,9,5.4s9-1.6,9-5.4v-2.6
	h-2V45.1z M40,56.5v1c0,2.7-2.2,5-5,5s-5-2.2-5-5v-1c0-2.7,2.2-5,5-5S40,53.7,40,56.5z M38,56.5c0-1.6-1.3-3-3-3s-3,1.3-3,3v1
	c0,1.6,1.3,3,3,3s3-1.3,3-3V56.5z M49.1,26h-2.6v2h2.6c1.8,0,3.4,4.8,3.4,7s-1.6,7-3.4,7h-2.6v2h2.6c3.8,0,5.4-6.8,5.4-9
	S52.9,26,49.1,26z M66.5,35c0,2.8-2.2,5-5,5h-1c-2.7,0-5-2.2-5-5s2.2-5,5-5h1C64.3,30,66.5,32.2,66.5,35z M64.5,35c0-1.7-1.3-3-3-3
	h-1c-1.6,0-3,1.3-3,3s1.3,3,3,3h1C63.2,38,64.5,36.7,64.5,35z M15.5,35c0,2.2,1.6,9,5.4,9h2.6v-2h-2.6c-1.8,0-3.4-4.8-3.4-7
	s1.6-7,3.4-7h2.6v-2h-2.6C17.1,26,15.5,32.8,15.5,35z M14.5,35c0,2.8-2.2,5-5,5h-1c-2.7,0-5-2.2-5-5s2.2-5,5-5h1
	C12.3,30,14.5,32.2,14.5,35z M12.5,35c0-1.7-1.3-3-3-3h-1c-1.6,0-3,1.3-3,3s1.3,3,3,3h1C11.2,38,12.5,36.7,12.5,35z M27.2,35
	c0-4.4,3.6-7.9,7.9-7.9S43,30.6,43,35s-3.6,7.9-7.9,7.9S27.2,39.4,27.2,35z M29.2,35c0,3.3,2.7,5.9,5.9,5.9c3.3,0,5.9-2.7,5.9-5.9
	s-2.7-5.9-5.9-5.9C31.8,29.1,29.2,31.7,29.2,35z"/>
</svg>
