<?xml version="1.0" encoding="utf-8"?>
<!-- Generator: Adobe Illustrator 21.1.0, SVG Export Plug-In . SVG Version: 6.00 Build 0)  -->
<svg version="1.1" id="Layer_1" xmlns="http://www.w3.org/2000/svg" xmlns:xlink="http://www.w3.org/1999/xlink" x="0px" y="0px"
	 viewBox="0 0 70 70" style="enable-background:new 0 0 70 70;" xml:space="preserve">
<path style="fill:#1ea2c4;" d="M27.4,47.5c0,3-2.5,5.5-5.5,5.5s-5.5-2.5-5.5-5.5s2.5-5.5,5.5-5.5S27.4,44.5,27.4,47.5z M35.9,42
	c-3,0-5.5,2.5-5.5,5.5s2.5,5.5,5.5,5.5c3,0,5.5-2.5,5.5-5.5S39,42,35.9,42z M49.9,42c-3,0-5.5,2.5-5.5,5.5s2.5,5.5,5.5,5.5
	c3,0,5.5-2.5,5.5-5.5S53,42,49.9,42z"/>
<path style="fill:#5b467a;" d="M50.6,36.3H19.4c-5.4,0-9.8,4.4-9.8,9.8s4.4,9.8,9.8,9.8h31.1c5.4,0,9.8-4.4,9.8-9.8
	S56,36.3,50.6,36.3z M50.6,53.8H19.4c-4.3,0-7.8-3.5-7.8-7.8c0-4.3,3.5-7.8,7.8-7.8h31.1c4.3,0,7.8,3.5,7.8,7.8
	C58.3,50.3,54.9,53.8,50.6,53.8z M20.7,39.3c-3.7,0-6.7,3-6.7,6.7s3,6.7,6.7,6.7c3.7,0,6.7-3,6.7-6.7S24.4,39.3,20.7,39.3z
	 M20.7,50.7c-2.6,0-4.7-2.1-4.7-4.7s2.1-4.7,4.7-4.7s4.7,2.1,4.7,4.7S23.3,50.7,20.7,50.7z M20.7,43.2c-1.5,0-2.8,1.2-2.8,2.8
	c0,1.5,1.2,2.8,2.8,2.8s2.8-1.2,2.8-2.8C23.5,44.5,22.2,43.2,20.7,43.2z M20.7,46.8c-0.4,0-0.8-0.4-0.8-0.8s0.4-0.8,0.8-0.8
	s0.8,0.4,0.8,0.8S21.1,46.8,20.7,46.8z M35,39.3c-3.7,0-6.7,3-6.7,6.7s3,6.7,6.7,6.7c3.7,0,6.7-3,6.7-6.7S38.7,39.3,35,39.3z
	 M35,50.7c-2.6,0-4.7-2.1-4.7-4.7s2.1-4.7,4.7-4.7s4.7,2.1,4.7,4.7S37.6,50.7,35,50.7z M35,43.2c-1.5,0-2.8,1.2-2.8,2.8
	c0,1.5,1.2,2.8,2.8,2.8s2.8-1.2,2.8-2.8C37.8,44.5,36.5,43.2,35,43.2z M35,46.8c-0.4,0-0.8-0.4-0.8-0.8s0.4-0.8,0.8-0.8
	s0.8,0.4,0.8,0.8S35.4,46.8,35,46.8z M49.3,39.3c-3.7,0-6.7,3-6.7,6.7s3,6.7,6.7,6.7c3.7,0,6.7-3,6.7-6.7S53,39.3,49.3,39.3z
	 M49.3,50.7c-2.6,0-4.7-2.1-4.7-4.7s2.1-4.7,4.7-4.7S54,43.4,54,46S51.9,50.7,49.3,50.7z M49.3,43.2c-1.5,0-2.8,1.2-2.8,2.8
	c0,1.5,1.2,2.8,2.8,2.8s2.8-1.2,2.8-2.8C52.1,44.5,50.8,43.2,49.3,43.2z M49.3,46.8c-0.4,0-0.8-0.4-0.8-0.8s0.4-0.8,0.8-0.8
	s0.8,0.4,0.8,0.8S49.7,46.8,49.3,46.8z M19.9,28.7c-0.6,0-1,0.4-1,1v4.9c0,0.6,0.4,1,1,1h6.9c0.6,0,1-0.4,1-1v-4.9c0-0.6-0.4-1-1-1
	H19.9z M25.8,33.6h-4.9v-2.9h4.9V33.6z M32.3,25.4c-0.6,0-1,0.4-1,1v4.9c0,0.6,0.4,1,1,1h6.9c0.6,0,1-0.4,1-1v-4.9c0-0.6-0.4-1-1-1
	H32.3z M38.2,30.3h-4.9v-2.9h4.9V30.3z M44.7,28.7c-0.6,0-1,0.4-1,1v4.9c0,0.6,0.4,1,1,1h6.9c0.6,0,1-0.4,1-1v-4.9c0-0.6-0.4-1-1-1
	H44.7z M50.6,33.6h-4.9v-2.9h4.9V33.6z M35.8,17.9c1.1,0,2.1-0.9,2.1-2.1c0-1.1-0.9-2.1-2.1-2.1s-2.1,0.9-2.1,2.1
	C33.7,17,34.6,17.9,35.8,17.9z M35.8,15.8C35.8,15.8,35.8,15.8,35.8,15.8C35.8,15.9,35.7,15.9,35.8,15.8
	C35.7,15.8,35.7,15.8,35.8,15.8z M30.4,14.9l-6.7,3c-0.4,0.2-0.6,0.5-0.6,0.9v7.7c0,0.5,0.4,0.9,0.8,1l5.4,0.9c0.1,0,0.1,0,0.2,0
	c0.2,0,0.5-0.1,0.6-0.2c0.2-0.2,0.4-0.5,0.4-0.8v-3.1c0-0.4-0.3-0.8-0.7-1l-1-0.3v-1.2l3-1.4c1,1,2.3,1.7,3.8,1.7s2.9-0.6,3.8-1.7
	l3,1.4V23l-1,0.3c-0.4,0.1-0.7,0.5-0.7,1v3.1c0,0.3,0.1,0.6,0.4,0.8c0.2,0.2,0.4,0.2,0.6,0.2c0.1,0,0.1,0,0.2,0l5.4-0.9
	c0.5-0.1,0.8-0.5,0.8-1v-7.7c0-0.4-0.2-0.8-0.6-0.9l-6.7-3v-2h16v-2h-17h-8.6H13v2h17.5V14.9z M27.5,20.3c-0.4,0.2-0.6,0.5-0.6,0.9
	v2.5c0,0.4,0.3,0.8,0.7,1l1,0.3v1.2l-3.4-0.6v-6.2l5.3-2.4c0,0.6,0.1,1.2,0.4,1.7L27.5,20.3z M46.3,25.6l-3.4,0.6v-1.2l1-0.3
	c0.4-0.1,0.7-0.5,0.7-1v-2.5c0-0.4-0.2-0.8-0.6-0.9l-3.3-1.5c0.2-0.5,0.3-1.1,0.4-1.7l5.3,2.4V25.6z M39.1,12.9v3.9
	c0,1.8-1.5,3.3-3.3,3.3s-3.3-1.5-3.3-3.3v-3.9H39.1z"/>
</svg>
