<?xml version="1.0" encoding="utf-8"?>
<!-- Generator: Adobe Illustrator 21.1.0, SVG Export Plug-In . SVG Version: 6.00 Build 0)  -->
<svg version="1.1" id="Layer_1" xmlns="http://www.w3.org/2000/svg" xmlns:xlink="http://www.w3.org/1999/xlink" x="0px" y="0px"
	 viewBox="0 0 70 70" style="enable-background:new 0 0 70 70;" xml:space="preserve">
<path style="fill:#1ea2c4;" d="M21,13h6v13l-3-2l-3,2V13z M56,38.4L49,37v-8c0-1.1-0.9-2-2-2c-1.1,0-2,0.9-2,2v12h-1c0,0-0.9-1-2-2
	c-1-1-3.1,0-3.1,1c0,0,1.2,2.4,2,4s1.5,4.1,4,6c0,1,0,3,0,3h13v-3c0-1,1-1.9,1-3v-5C59,40,57.6,38.8,56,38.4z M43,59h16v-5H43V59z
	 M47,27C47,27,47,27,47,27C47,27,47,27,47,27L47,27z"/>
<path style="fill:#5b467a;" d="M58,15v21h-2V15H58z M29.7,45.3c-0.8-0.8-2-1.3-3.1-1.3H12V15h-2v29c0,1.1,0.9,2,2,2h14.6
	c0.6,0,1.3,0.3,1.7,0.7c0.8,0.8,2,1.3,3.1,1.3H38v-2h-6.6C30.8,46,30.2,45.7,29.7,45.3z M14,41V13c0-0.6,0.4-1,1-1h3v-1
	c0-0.6,0.4-1,1-1h6c0.6,0,1,0.4,1,1v1h2c2.9,0,4.9,1.6,6,3.8c1.1-2.2,3.1-3.8,6-3.8h13c0.6,0,1,0.4,1,1v22h-2V14H40
	c-3.7,0-5,3.6-5,6v22h1v2h-2h-1c-0.3,0-0.6-0.1-0.8-0.4C31.8,43,30.7,42,29,42H15C14.4,42,14,41.6,14,41z M20,22.1l1.4-1
	c0.2-0.1,0.4-0.2,0.6-0.2s0.4,0.1,0.6,0.2l1.4,1V12h-4V22.1z M16,40h13c1.9,0,3.2,0.8,4,1.5V20c0-2.4-1.3-6-5-6h-2v10
	c0,0.4-0.2,0.7-0.5,0.9C25.3,25,25.2,25,25,25c-0.2,0-0.4-0.1-0.6-0.2L22,23.2l-2.4,1.6c-0.3,0.2-0.7,0.2-1,0
	C18.2,24.7,18,24.4,18,24V14h-2V40z M58,41v5c0,0.8-0.3,1.5-0.6,2c-0.2,0.4-0.4,0.7-0.4,1v2c0.6,0,1,0.4,1,1v5c0,0.6-0.4,1-1,1H41
	c-0.6,0-1-0.4-1-1v-5c0-0.6,0.4-1,1-1h1v-1.5c-1.9-1.7-2.8-3.6-3.5-5.1c-0.1-0.3-0.3-0.6-0.4-0.9l-2-4C36,39.3,36,39.2,36,39
	c0-0.9,0.7-1.7,1.7-2.1c1.1-0.5,2.3-0.3,3.1,0.4c0.4,0.4,0.9,0.9,1.2,1.2V28c0-1.6,1.3-3,3-3c0,0,0,0,0,0c0,0,0,0,0,0c0,0,0,0,0,0
	c1.6,0,2.9,1.4,2.9,3v7.2l6.2,1.3C56.5,36.9,58,38.7,58,41z M56,53H43h-1v3h14V53z M55,51v-2c0-0.8,0.3-1.4,0.6-1.9
	c0.2-0.4,0.4-0.8,0.4-1.1v-5c0-2-1.7-2.5-2.2-2.6l-7-1.4c-0.5-0.1-0.8-0.5-0.8-1v-8c0-0.6-0.4-1-1-1c-0.6,0-1,0.5-1,1v12
	c0,0.6-0.4,1-1,1h-1c-0.3,0-0.5-0.1-0.7-0.3c0,0-0.9-1-1.9-2c-0.2-0.2-0.4-0.1-0.6-0.1c-0.3,0.1-0.6,0.2-0.7,0.3l1.8,3.6
	c0.2,0.3,0.3,0.6,0.5,1c0.6,1.4,1.4,3.2,3.3,4.6c0.2,0.2,0.4,0.5,0.4,0.8v2H55z"/>
</svg>
