<?xml version="1.0" encoding="utf-8"?>
<!-- Generator: Adobe Illustrator 21.1.0, SVG Export Plug-In . SVG Version: 6.00 Build 0)  -->
<svg version="1.1" id="Layer_1" xmlns="http://www.w3.org/2000/svg" xmlns:xlink="http://www.w3.org/1999/xlink" x="0px" y="0px"
	 viewBox="0 0 70 70" style="enable-background:new 0 0 70 70;" xml:space="preserve">
<path style="fill:#1ea2c4;" d="M34.5,51c9.4-5.5,14,1.7,24-2V34c-10,3.7-14.6-3.5-24,2V51z"/>
<path style="fill:#5b467a;" d="M57.1,31.2c-0.3-0.2-0.6-0.2-0.9-0.1c-4.4,1.6-7.7,1-10.9,0.4c-2.4-0.4-4.9-0.9-7.7-0.4v-1
	c0-1.7-1.3-3-3-3s-3,1.3-3,3v4v15v10h2v-9.4c0.7-0.4,1.4-0.7,2-0.9V59h2V48.1c2.6-0.5,4.9-0.1,7.3,0.3c3.3,0.6,7.1,1.3,12-0.5
	c0.4-0.1,0.7-0.5,0.7-0.9V32C57.5,31.7,57.3,31.4,57.1,31.2z M34.5,29c0.6,0,1,0.4,1,1v1.5c-0.6,0.2-1.3,0.5-2,0.8V30
	C33.5,29.4,33.9,29,34.5,29z M55.5,46.3c-4.1,1.3-7.2,0.7-10.3,0.2c-3.5-0.6-7.1-1.3-11.7,0.9V34.6c4.5-2.4,7.7-1.8,11.3-1.2
	c3,0.6,6.4,1.2,10.7,0V46.3z M34.8,25.4c3,0.6,6.4,1.2,10.7,0V30h2v-6c0-0.3-0.2-0.6-0.4-0.8c-0.3-0.2-0.6-0.2-0.9-0.1
	c-4.4,1.6-7.7,1-10.9,0.4c-2.4-0.4-4.9-0.9-7.7-0.4v-1c0-1.7-1.3-3-3-3s-3,1.3-3,3v4v15v18h2V41.6c0.7-0.4,1.3-0.7,2-0.9V59h2V40.1
	c0.7-0.1,1.3-0.2,2-0.2l-0.1-2c-2,0.1-4,0.6-6,1.5V26.6C28,24.2,31.2,24.7,34.8,25.4z M24.5,21c0.6,0,1,0.4,1,1v1.5
	c-0.6,0.2-1.3,0.5-2,0.8V22C23.5,21.4,23.9,21,24.5,21z M24.8,17.4c3,0.6,6.4,1.2,10.7,0V22h2v-6c0-0.3-0.2-0.6-0.4-0.8
	c-0.3-0.2-0.6-0.2-0.9-0.1c-4.4,1.6-7.7,1-10.9,0.4c-2.4-0.4-4.9-0.9-7.7-0.4v-1c0-1.7-1.3-3-3-3s-3,1.3-3,3v4v15v26h2V33.6
	c0.7-0.4,1.3-0.7,2-0.9V59h2V32.1c0.7-0.1,1.3-0.2,2-0.2l-0.1-2c-2,0.1-4,0.6-6,1.5V18.6C18,16.2,21.2,16.7,24.8,17.4z M14.5,13
	c0.6,0,1,0.4,1,1v1.5c-0.6,0.2-1.3,0.5-2,0.8V14C13.5,13.4,13.9,13,14.5,13z"/>
</svg>
