<?xml version="1.0" encoding="utf-8"?>
<!-- Generator: Adobe Illustrator 21.1.0, SVG Export Plug-In . SVG Version: 6.00 Build 0)  -->
<svg version="1.1" id="Layer_1" xmlns="http://www.w3.org/2000/svg" xmlns:xlink="http://www.w3.org/1999/xlink" x="0px" y="0px"
	 viewBox="0 0 70 70" style="enable-background:new 0 0 70 70;" xml:space="preserve">
<rect x="19" y="10" style="fill:#1ea2c4;" width="36.3" height="19"/>
<path style="fill:#5b467a;" d="M54.5,26.8V7.9c0-0.6-0.4-1-1-1H17.5c-0.6,0-1,0.4-1,1v18.9c0,0.6,0.4,1,1,1h17v34.4h2V27.8h17
	C54.1,27.8,54.5,27.3,54.5,26.8z M52.5,8.9v16.9H18.5V8.9H52.5z M22.8,24c0.2,0.2,0.4,0.3,0.7,0.3h24.1c0.3,0,0.5-0.1,0.7-0.3
	l2.6-2.6c0.2-0.2,0.3-0.4,0.3-0.7v-6.9c0-0.3-0.1-0.5-0.3-0.7l-2.6-2.6c-0.2-0.2-0.4-0.3-0.7-0.3H23.5c-0.3,0-0.5,0.1-0.7,0.3
	l-2.6,2.6c-0.2,0.2-0.3,0.4-0.3,0.7v6.9c0,0.3,0.1,0.5,0.3,0.7L22.8,24z M21.9,20.3v-6l2-2h23.2l2,2v6l-2,2H23.9L21.9,20.3z
	 M30.5,18.3h-2v-2h2V18.3z M27,18.3h-2v-2h2V18.3z M42.5,18.3h-2v-2h2V18.3z M46,18.3h-2v-2h2V18.3z M35.5,20.9c2,0,3.6-1.6,3.6-3.6
	s-1.6-3.6-3.6-3.6s-3.6,1.6-3.6,3.6S33.5,20.9,35.5,20.9z M35.5,15.7c0.9,0,1.6,0.7,1.6,1.6s-0.7,1.6-1.6,1.6s-1.6-0.7-1.6-1.6
	S34.6,15.7,35.5,15.7z M63.1,27.6v13.8c0,0.1,0,2.2-2,4.1l-6,6c-1.4,1.4-1.4,2.7-1.4,2.7V55c1,0.1,1.7,0.9,1.7,1.9v5.3h-2V57H42.5
	v5.2h-2v-5.3c0-1,0.8-1.8,1.7-1.9v-5.9c0-0.1,0-3,2-5l8.9-8.9h1.3c2,0,3.6,1.6,3.6,3.6v1.3l0,0l-6.4,6.4l-1.4-1.4l0.1-0.1l5.7-5.7
	v-0.4c0-0.9-0.7-1.6-1.6-1.6H54l-8.3,8.3c-1.4,1.4-1.4,3.6-1.4,3.6V55h7.5v-0.7c0-0.1,0-2.2,2-4.1l6-6c1.4-1.4,1.4-2.7,1.4-2.7V27.6
	c0-0.9-0.7-1.6-1.6-1.6S58,26.8,58,27.6v7h-2v-7c0-2,1.6-3.6,3.6-3.6S63.1,25.7,63.1,27.6z M48.5,32.8v-2.6c0-0.6-0.4-1-1-1h-6
	c-2,0-3.6,1.6-3.6,3.6v2.6c0,0.6,0.4,1,1,1h6C46.9,36.4,48.5,34.8,48.5,32.8z M46.5,32.8c0,0.9-0.7,1.6-1.6,1.6h-5v-1.6
	c0-0.9,0.7-1.6,1.6-1.6h5V32.8z M29.5,32.6h-6c-0.6,0-1,0.4-1,1v2.6c0,2,1.6,3.6,3.6,3.6h6c0.6,0,1-0.4,1-1v-2.6
	C33.1,34.2,31.5,32.6,29.5,32.6z M31.1,36.2v1.6h-5c-0.9,0-1.6-0.7-1.6-1.6v-1.6h5C30.4,34.6,31.1,35.3,31.1,36.2z M30.5,56.8v5.3
	h-2V57H17.6v5.2h-2v-5.3c0-1,0.8-1.8,1.7-1.9v-0.7c0,0,0-1.3-1.4-2.7l-6-6c-2-2-2-4.1-2-4.1V27.6c0-2,1.6-3.6,3.6-3.6
	s3.6,1.6,3.6,3.6v7h-2v-7c0-0.9-0.7-1.6-1.6-1.6s-1.6,0.7-1.6,1.6v13.8c0,0,0,1.3,1.4,2.7l6,6c2,2,2,4.1,2,4.1V55h7.5v-5.9
	c0,0,0-2.2-1.4-3.6L17,37.2h-0.4c-0.9,0-1.6,0.7-1.6,1.6v0.4l5.8,5.8l-1.4,1.4l-0.1-0.1L13,40.1v-1.3c0-2,1.6-3.6,3.6-3.6h1.3l0,0
	l8.8,8.8c2,2,2,4.9,2,5V55C29.7,55.1,30.5,55.9,30.5,56.8z"/>
</svg>
