<?xml version="1.0" encoding="UTF-8"?>
<svg width="40px" height="40px" viewBox="0 0 40 40" version="1.1" xmlns="http://www.w3.org/2000/svg" xmlns:xlink="http://www.w3.org/1999/xlink">
    <!-- Generator: sketchtool 63.1 (101010) - https://sketch.com -->
    <title>5CC1F149-0CC2-4586-96AC-42B6C175F574</title>
    <desc>Created with sketchtool.</desc>
    <g id="Page-1" stroke="none" stroke-width="1" fill="none" fill-rule="evenodd">
        <g id="X-box-2" transform="translate(-869.000000, -1452.000000)">
            <g id="Compare" transform="translate(0.000000, 1168.000000)">
                <g id="xbot-box" transform="translate(722.000000, 0.000000)">
                    <g id="Group-32" transform="translate(124.000000, 252.000000)">
                        <g id="Group-30-Copy" transform="translate(234.000000, 69.000000) scale(-1, 1) translate(-234.000000, -69.000000) ">
                            <g id="icon-circle-play" transform="translate(405.000000, 32.000000)">
                                <circle id="Oval" stroke="#FFFFFF" stroke-width="2" cx="20" cy="20" r="19"></circle>
                                <g id="play-(1)" transform="translate(18.000000, 21.000000) scale(-1, 1) translate(-18.000000, -21.000000) translate(12.000000, 13.000000)" fill="#FFFFFF" fill-rule="nonzero">
                                    <path d="M11.1158153,6.51425889 L2.24033973,0.429992634 C1.83045366,0.148813716 1.41746338,0 1.07418864,0 C0.410532782,0 0,0.533346285 0,1.42609906 L0,14.5759732 C0,15.4676898 0.410015412,16 1.07211916,16 C1.41591127,16 1.82230509,15.8510568 2.23309656,15.5691008 L11.1127111,9.48496402 C11.6837578,9.09304905 12,8.56566049 12,7.99928766 C12.0001293,7.43330338 11.6875087,6.90604434 11.1158153,6.51425889 Z" id="Path"></path>
                                </g>
                            </g>
                        </g>
                    </g>
                </g>
            </g>
        </g>
    </g>
</svg>