<svg width="94" height="45" viewBox="0 0 94 45" fill="none" xmlns="http://www.w3.org/2000/svg">
<path d="M3.25598 6.46875L6.04504 13.4297L8.8341 6.46875H10.2931V15H9.16809V11.6777L9.27356 8.0918L6.47277 15H5.61145L2.81652 8.10938L2.92785 11.6777V15H1.80285V6.46875H3.25598ZM12.9272 15H11.8432V8.66016H12.9272V15ZM11.7554 6.97852C11.7554 6.80273 11.8081 6.6543 11.9136 6.5332C12.0229 6.41211 12.1831 6.35156 12.394 6.35156C12.605 6.35156 12.7651 6.41211 12.8745 6.5332C12.9839 6.6543 13.0386 6.80273 13.0386 6.97852C13.0386 7.1543 12.9839 7.30078 12.8745 7.41797C12.7651 7.53516 12.605 7.59375 12.394 7.59375C12.1831 7.59375 12.0229 7.53516 11.9136 7.41797C11.8081 7.30078 11.7554 7.1543 11.7554 6.97852ZM16.8504 14.2324C17.2371 14.2324 17.575 14.1152 17.8641 13.8809C18.1532 13.6465 18.3133 13.3535 18.3446 13.002H19.37C19.3504 13.3652 19.2254 13.7109 18.995 14.0391C18.7645 14.3672 18.4559 14.6289 18.0692 14.8242C17.6864 15.0195 17.2801 15.1172 16.8504 15.1172C15.9871 15.1172 15.2996 14.8301 14.7879 14.2559C14.2801 13.6777 14.0262 12.8887 14.0262 11.8887V11.707C14.0262 11.0898 14.1395 10.541 14.3661 10.0605C14.5926 9.58008 14.9168 9.20703 15.3387 8.94141C15.7645 8.67578 16.2664 8.54297 16.8446 8.54297C17.5555 8.54297 18.1454 8.75586 18.6141 9.18164C19.0868 9.60742 19.3387 10.1602 19.37 10.8398H18.3446C18.3133 10.4297 18.1571 10.0938 17.8758 9.83203C17.5985 9.56641 17.2547 9.43359 16.8446 9.43359C16.2938 9.43359 15.8661 9.63281 15.5614 10.0312C15.2606 10.4258 15.1102 10.998 15.1102 11.748V11.9531C15.1102 12.6836 15.2606 13.2461 15.5614 13.6406C15.8621 14.0352 16.2918 14.2324 16.8504 14.2324ZM23.2932 9.63281C23.1291 9.60547 22.9514 9.5918 22.76 9.5918C22.049 9.5918 21.5666 9.89453 21.3127 10.5V15H20.2287V8.66016H21.2834L21.301 9.39258C21.6564 8.82617 22.1604 8.54297 22.8127 8.54297C23.0236 8.54297 23.1838 8.57031 23.2932 8.625V9.63281ZM23.5308 11.7715C23.5308 11.1504 23.6519 10.5918 23.8941 10.0957C24.1402 9.59961 24.48 9.2168 24.9136 8.94727C25.3511 8.67773 25.8492 8.54297 26.4078 8.54297C27.2711 8.54297 27.9683 8.8418 28.4996 9.43945C29.0347 10.0371 29.3023 10.832 29.3023 11.8242V11.9004C29.3023 12.5176 29.1832 13.0723 28.9449 13.5645C28.7105 14.0527 28.3726 14.4336 27.9312 14.707C27.4937 14.9805 26.9898 15.1172 26.4195 15.1172C25.5601 15.1172 24.8629 14.8184 24.3277 14.2207C23.7964 13.623 23.5308 12.832 23.5308 11.8477V11.7715ZM24.6207 11.9004C24.6207 12.6035 24.7828 13.168 25.107 13.5938C25.4351 14.0195 25.8726 14.2324 26.4195 14.2324C26.9703 14.2324 27.4078 14.0176 27.732 13.5879C28.0562 13.1543 28.2183 12.5488 28.2183 11.7715C28.2183 11.0762 28.0523 10.5137 27.7203 10.084C27.3921 9.65039 26.9546 9.43359 26.4078 9.43359C25.8726 9.43359 25.441 9.64648 25.1129 10.0723C24.7847 10.498 24.6207 11.1074 24.6207 11.9004ZM33.9931 13.3184C33.9931 13.0254 33.8818 12.7988 33.6591 12.6387C33.4404 12.4746 33.0556 12.334 32.5048 12.2168C31.9579 12.0996 31.5224 11.959 31.1982 11.7949C30.8779 11.6309 30.6396 11.4355 30.4833 11.209C30.331 10.9824 30.2548 10.7129 30.2548 10.4004C30.2548 9.88086 30.4736 9.44141 30.9111 9.08203C31.3525 8.72266 31.915 8.54297 32.5986 8.54297C33.3173 8.54297 33.8993 8.72852 34.3447 9.09961C34.7939 9.4707 35.0185 9.94531 35.0185 10.5234H33.9286C33.9286 10.2266 33.8017 9.9707 33.5478 9.75586C33.2978 9.54102 32.9814 9.43359 32.5986 9.43359C32.204 9.43359 31.8954 9.51953 31.6728 9.69141C31.4501 9.86328 31.3388 10.0879 31.3388 10.3652C31.3388 10.627 31.4423 10.8242 31.6493 10.957C31.8564 11.0898 32.2294 11.2168 32.7685 11.3379C33.3114 11.459 33.7509 11.6035 34.0868 11.7715C34.4228 11.9395 34.6708 12.1426 34.831 12.3809C34.995 12.6152 35.0771 12.9023 35.0771 13.2422C35.0771 13.8086 34.8505 14.2637 34.3974 14.6074C33.9443 14.9473 33.3564 15.1172 32.6337 15.1172C32.1259 15.1172 31.6767 15.0273 31.2861 14.8477C30.8954 14.668 30.5888 14.418 30.3661 14.0977C30.1474 13.7734 30.038 13.4238 30.038 13.0488H31.122C31.1415 13.4121 31.2861 13.7012 31.5556 13.916C31.829 14.127 32.1884 14.2324 32.6337 14.2324C33.0439 14.2324 33.372 14.1504 33.6181 13.9863C33.8681 13.8184 33.9931 13.5957 33.9931 13.3184ZM35.8421 11.7715C35.8421 11.1504 35.9632 10.5918 36.2054 10.0957C36.4514 9.59961 36.7913 9.2168 37.2249 8.94727C37.6624 8.67773 38.1604 8.54297 38.719 8.54297C39.5823 8.54297 40.2796 8.8418 40.8108 9.43945C41.346 10.0371 41.6136 10.832 41.6136 11.8242V11.9004C41.6136 12.5176 41.4944 13.0723 41.2561 13.5645C41.0218 14.0527 40.6839 14.4336 40.2425 14.707C39.805 14.9805 39.3011 15.1172 38.7307 15.1172C37.8714 15.1172 37.1741 14.8184 36.6389 14.2207C36.1077 13.623 35.8421 12.832 35.8421 11.8477V11.7715ZM36.9319 11.9004C36.9319 12.6035 37.094 13.168 37.4182 13.5938C37.7464 14.0195 38.1839 14.2324 38.7307 14.2324C39.2815 14.2324 39.719 14.0176 40.0432 13.5879C40.3675 13.1543 40.5296 12.5488 40.5296 11.7715C40.5296 11.0762 40.3636 10.5137 40.0315 10.084C39.7034 9.65039 39.2659 9.43359 38.719 9.43359C38.1839 9.43359 37.7522 9.64648 37.4241 10.0723C37.096 10.498 36.9319 11.1074 36.9319 11.9004ZM43.1461 15V9.49805H42.1442V8.66016H43.1461V8.00977C43.1461 7.33008 43.3278 6.80469 43.6911 6.43359C44.0543 6.0625 44.568 5.87695 45.2321 5.87695C45.4821 5.87695 45.7301 5.91016 45.9762 5.97656L45.9176 6.85547C45.734 6.82031 45.5387 6.80273 45.3317 6.80273C44.9801 6.80273 44.7086 6.90625 44.5172 7.11328C44.3258 7.31641 44.2301 7.60938 44.2301 7.99219V8.66016H45.5836V9.49805H44.2301V15H43.1461ZM47.8955 7.125V8.66016H49.0791V9.49805H47.8955V13.4297C47.8955 13.6836 47.9482 13.875 48.0537 14.0039C48.1592 14.1289 48.3389 14.1914 48.5928 14.1914C48.7178 14.1914 48.8896 14.168 49.1084 14.1211V15C48.8232 15.0781 48.5459 15.1172 48.2764 15.1172C47.792 15.1172 47.4268 14.9707 47.1807 14.6777C46.9346 14.3848 46.8115 13.9688 46.8115 13.4297V9.49805H45.6572V8.66016H46.8115V7.125H47.8955Z" fill="white"/>
<path d="M64.0989 21.7751L66.5364 14.738H67.7668L64.6028 23.2693H63.6067L60.4485 14.738H61.6731L64.0989 21.7751ZM69.8031 23.2693H68.7133V16.9294H69.8031V23.2693ZM69.8148 14.2751H71.1273L69.557 15.9978H68.684L69.8148 14.2751ZM72.9409 15.3943V16.9294H74.1245V17.7673H72.9409V21.699C72.9409 21.9529 72.9936 22.1443 73.0991 22.2732C73.2046 22.3982 73.3843 22.4607 73.6382 22.4607C73.7632 22.4607 73.935 22.4373 74.1538 22.3904V23.2693C73.8686 23.3474 73.5913 23.3865 73.3218 23.3865C72.8374 23.3865 72.4722 23.24 72.2261 22.947C71.98 22.6541 71.8569 22.238 71.8569 21.699V17.7673H70.7026V16.9294H71.8569V15.3943H72.9409ZM74.1772 15.9041L73.562 15.4822C73.8433 15.0564 73.9878 14.5955 73.9956 14.0994V13.5603H75.0327V14.0056C75.0327 14.3611 74.9546 14.7146 74.7983 15.0662C74.646 15.4138 74.439 15.6931 74.1772 15.9041ZM79.4244 23.2693C79.3619 23.1443 79.3111 22.9216 79.2721 22.6013C78.7682 23.1248 78.1666 23.3865 77.4674 23.3865C76.8424 23.3865 76.3287 23.2107 75.9264 22.8591C75.5279 22.5037 75.3287 22.0544 75.3287 21.5115C75.3287 20.8513 75.5787 20.3396 76.0787 19.9763C76.5826 19.6091 77.2897 19.4255 78.1998 19.4255H79.2545V18.9275C79.2545 18.5486 79.1412 18.2478 78.9147 18.0251C78.6881 17.7986 78.3541 17.6853 77.9127 17.6853C77.526 17.6853 77.2018 17.783 76.94 17.9783C76.6783 18.1736 76.5475 18.4099 76.5475 18.6873H75.4576C75.4576 18.3708 75.569 18.0662 75.7916 17.7732C76.0182 17.4763 76.3229 17.2419 76.7057 17.0701C77.0924 16.8982 77.5162 16.8123 77.9772 16.8123C78.7076 16.8123 79.2799 16.9958 79.694 17.363C80.108 17.7263 80.3229 18.2283 80.3385 18.8689V21.7869C80.3385 22.3689 80.4127 22.8318 80.5611 23.1755V23.2693H79.4244ZM77.6256 22.4431C77.9654 22.4431 78.2877 22.3552 78.5924 22.1794C78.8971 22.0037 79.1178 21.7751 79.2545 21.4939V20.1931H78.4049C77.0768 20.1931 76.4127 20.5818 76.4127 21.3591C76.4127 21.699 76.526 21.9646 76.7525 22.156C76.9791 22.3474 77.2701 22.4431 77.6256 22.4431ZM82.9372 22.3845H86.6462V23.2693H81.613V22.4724L85.1111 17.8259H81.6658V16.9294H86.4704V17.697L82.9372 22.3845Z" fill="#F7C30E"/>
<path d="M64.0989 21.7751L63.9098 21.8403L64.0984 22.3875L64.2879 21.8406L64.0989 21.7751ZM66.5364 14.738V14.538H66.394L66.3474 14.6726L66.5364 14.738ZM67.7668 14.738L67.9544 14.8076L68.0543 14.538H67.7668V14.738ZM64.6028 23.2693V23.4693H64.7419L64.7903 23.3388L64.6028 23.2693ZM63.6067 23.2693L63.4191 23.3387L63.4675 23.4693H63.6067V23.2693ZM60.4485 14.738V14.538H60.1612L60.2609 14.8075L60.4485 14.738ZM61.6731 14.738L61.8622 14.6729L61.8157 14.538H61.6731V14.738ZM64.2879 21.8406L66.7254 14.8035L66.3474 14.6726L63.9099 21.7097L64.2879 21.8406ZM66.5364 14.938H67.7668V14.538H66.5364V14.938ZM67.5793 14.6685L64.4153 23.1997L64.7903 23.3388L67.9544 14.8076L67.5793 14.6685ZM64.6028 23.0693H63.6067V23.4693H64.6028V23.0693ZM63.7943 23.1999L60.636 14.6686L60.2609 14.8075L63.4191 23.3387L63.7943 23.1999ZM60.4485 14.938H61.6731V14.538H60.4485V14.938ZM61.484 14.8032L63.9098 21.8403L64.288 21.71L61.8622 14.6729L61.484 14.8032ZM69.8031 23.2693V23.4693H70.0031V23.2693H69.8031ZM68.7133 23.2693H68.5133V23.4693H68.7133V23.2693ZM68.7133 16.9294V16.7294H68.5133V16.9294H68.7133ZM69.8031 16.9294H70.0031V16.7294H69.8031V16.9294ZM69.8148 14.2751V14.0751H69.7069L69.6476 14.1654L69.8148 14.2751ZM71.1273 14.2751L71.2751 14.4099L71.5803 14.0751H71.1273V14.2751ZM69.557 15.9978V16.1978H69.6453L69.7048 16.1325L69.557 15.9978ZM68.684 15.9978L68.5168 15.888L68.3134 16.1978H68.684V15.9978ZM69.8031 23.0693H68.7133V23.4693H69.8031V23.0693ZM68.9133 23.2693V16.9294H68.5133V23.2693H68.9133ZM68.7133 17.1294H69.8031V16.7294H68.7133V17.1294ZM69.6031 16.9294V23.2693H70.0031V16.9294H69.6031ZM69.8148 14.4751H71.1273V14.0751H69.8148V14.4751ZM70.9795 14.1404L69.4092 15.8631L69.7048 16.1325L71.2751 14.4099L70.9795 14.1404ZM69.557 15.7978H68.684V16.1978H69.557V15.7978ZM68.8511 16.1076L69.982 14.3849L69.6476 14.1654L68.5168 15.888L68.8511 16.1076ZM72.9409 15.3943H73.1409V15.1943H72.9409V15.3943ZM72.9409 16.9294H72.7409V17.1294H72.9409V16.9294ZM74.1245 16.9294H74.3245V16.7294H74.1245V16.9294ZM74.1245 17.7673V17.9673H74.3245V17.7673H74.1245ZM72.9409 17.7673V17.5673H72.7409V17.7673H72.9409ZM73.0991 22.2732L72.9443 22.3999L72.9463 22.4022L73.0991 22.2732ZM74.1538 22.3904H74.3538V22.143L74.1119 22.1948L74.1538 22.3904ZM74.1538 23.2693L74.2066 23.4622L74.3538 23.4219V23.2693H74.1538ZM71.8569 17.7673H72.0569V17.5673H71.8569V17.7673ZM70.7026 17.7673H70.5026V17.9673H70.7026V17.7673ZM70.7026 16.9294V16.7294H70.5026V16.9294H70.7026ZM71.8569 16.9294V17.1294H72.0569V16.9294H71.8569ZM71.8569 15.3943V15.1943H71.6569V15.3943H71.8569ZM74.1772 15.9041L74.0641 16.069L74.1869 16.1532L74.3027 16.0598L74.1772 15.9041ZM73.562 15.4822L73.3951 15.3719L73.2868 15.536L73.4489 15.6471L73.562 15.4822ZM73.9956 14.0994L74.1956 14.1025V14.0994H73.9956ZM73.9956 13.5603V13.3603H73.7956V13.5603H73.9956ZM75.0327 13.5603H75.2327V13.3603H75.0327V13.5603ZM74.7983 15.0662L74.6156 14.9849L74.6151 14.9859L74.7983 15.0662ZM72.7409 15.3943V16.9294H73.1409V15.3943H72.7409ZM72.9409 17.1294H74.1245V16.7294H72.9409V17.1294ZM73.9245 16.9294V17.7673H74.3245V16.9294H73.9245ZM74.1245 17.5673H72.9409V17.9673H74.1245V17.5673ZM72.7409 17.7673V21.699H73.1409V17.7673H72.7409ZM72.7409 21.699C72.7409 21.9759 72.7977 22.2207 72.9443 22.3998L73.2539 22.1465C73.1896 22.0679 73.1409 21.9298 73.1409 21.699H72.7409ZM72.9463 22.4022C73.1066 22.5923 73.3579 22.6607 73.6382 22.6607V22.2607C73.4106 22.2607 73.3025 22.2041 73.252 22.1442L72.9463 22.4022ZM73.6382 22.6607C73.7842 22.6607 73.9722 22.6338 74.1957 22.5859L74.1119 22.1948C73.8979 22.2407 73.7422 22.2607 73.6382 22.2607V22.6607ZM73.9538 22.3904V23.2693H74.3538V22.3904H73.9538ZM74.101 23.0764C73.8314 23.1503 73.5718 23.1865 73.3218 23.1865V23.5865C73.6108 23.5865 73.9059 23.5446 74.2066 23.4622L74.101 23.0764ZM73.3218 23.1865C72.8795 23.1865 72.5776 23.0545 72.3792 22.8184L72.0729 23.0757C72.3667 23.4254 72.7953 23.5865 73.3218 23.5865V23.1865ZM72.3792 22.8184C72.1737 22.5737 72.0569 22.21 72.0569 21.699H71.6569C71.6569 22.2661 71.7863 22.7344 72.0729 23.0757L72.3792 22.8184ZM72.0569 21.699V17.7673H71.6569V21.699H72.0569ZM71.8569 17.5673H70.7026V17.9673H71.8569V17.5673ZM70.9026 17.7673V16.9294H70.5026V17.7673H70.9026ZM70.7026 17.1294H71.8569V16.7294H70.7026V17.1294ZM72.0569 16.9294V15.3943H71.6569V16.9294H72.0569ZM71.8569 15.5943H72.9409V15.1943H71.8569V15.5943ZM74.2903 15.7391L73.6751 15.3172L73.4489 15.6471L74.0641 16.069L74.2903 15.7391ZM73.7289 15.5924C74.0305 15.1358 74.1871 14.6379 74.1956 14.1025L73.7956 14.0962C73.7884 14.5531 73.656 14.977 73.3951 15.3719L73.7289 15.5924ZM74.1956 14.0994V13.5603H73.7956V14.0994H74.1956ZM73.9956 13.7603H75.0327V13.3603H73.9956V13.7603ZM74.8327 13.5603V14.0056H75.2327V13.5603H74.8327ZM74.8327 14.0056C74.8327 14.3309 74.7614 14.6568 74.6156 14.9849L74.9811 15.1474C75.1478 14.7724 75.2327 14.3913 75.2327 14.0056H74.8327ZM74.6151 14.9859C74.474 15.308 74.2854 15.56 74.0517 15.7483L74.3027 16.0598C74.5925 15.8262 74.818 15.5197 74.9815 15.1464L74.6151 14.9859ZM79.4244 23.2693L79.2455 23.3587L79.3008 23.4693H79.4244V23.2693ZM79.2721 22.6013L79.4706 22.5771L79.4197 22.1596L79.128 22.4626L79.2721 22.6013ZM75.9264 22.8591L75.7932 23.0084L75.7948 23.0097L75.9264 22.8591ZM76.0787 19.9763L76.1963 20.1381L76.1965 20.138L76.0787 19.9763ZM79.2545 19.4255V19.6255H79.4545V19.4255H79.2545ZM78.9147 18.0251L78.7732 18.1666L78.7745 18.1678L78.9147 18.0251ZM76.5475 18.6873V18.8873H76.7475V18.6873H76.5475ZM75.4576 18.6873H75.2576V18.8873H75.4576V18.6873ZM75.7916 17.7732L75.6326 17.6519L75.6324 17.6522L75.7916 17.7732ZM76.7057 17.0701L76.6244 16.8873L76.6238 16.8876L76.7057 17.0701ZM79.694 17.363L79.5613 17.5127L79.5621 17.5134L79.694 17.363ZM80.3385 18.8689H80.5385L80.5384 18.864L80.3385 18.8689ZM80.5611 23.1755H80.7611V23.1342L80.7448 23.0962L80.5611 23.1755ZM80.5611 23.2693V23.4693H80.7611V23.2693H80.5611ZM79.2545 21.4939L79.4344 21.5813L79.4545 21.5399V21.4939H79.2545ZM79.2545 20.1931H79.4545V19.9931H79.2545V20.1931ZM79.6033 23.1798C79.5577 23.0886 79.5096 22.8967 79.4706 22.5771L79.0736 22.6255C79.1127 22.9466 79.1662 23.2 79.2455 23.3587L79.6033 23.1798ZM79.128 22.4626C78.6601 22.9486 78.1099 23.1865 77.4674 23.1865V23.5865C78.2233 23.5865 78.8762 23.3009 79.4162 22.74L79.128 22.4626ZM77.4674 23.1865C76.8821 23.1865 76.4178 23.023 76.058 22.7085L75.7948 23.0097C76.2396 23.3984 76.8027 23.5865 77.4674 23.5865V23.1865ZM76.0595 22.7099C75.7044 22.3931 75.5287 21.9985 75.5287 21.5115H75.1287C75.1287 22.1103 75.3514 22.6142 75.7932 23.0084L76.0595 22.7099ZM75.5287 21.5115C75.5287 20.9102 75.7521 20.4609 76.1963 20.1381L75.9612 19.8145C75.4054 20.2183 75.1287 20.7924 75.1287 21.5115H75.5287ZM76.1965 20.138C76.6537 19.8048 77.3134 19.6255 78.1998 19.6255V19.2255C77.266 19.2255 76.5115 19.4135 75.9609 19.8147L76.1965 20.138ZM78.1998 19.6255H79.2545V19.2255H78.1998V19.6255ZM79.4545 19.4255V18.9275H79.0545V19.4255H79.4545ZM79.4545 18.9275C79.4545 18.5061 79.3269 18.1499 79.0548 17.8825L78.7745 18.1678C78.9555 18.3457 79.0545 18.5911 79.0545 18.9275H79.4545ZM79.0561 17.8837C78.7797 17.6073 78.3867 17.4853 77.9127 17.4853V17.8853C78.3215 17.8853 78.5965 17.9898 78.7732 18.1666L79.0561 17.8837ZM77.9127 17.4853C77.4911 17.4853 77.1227 17.5924 76.8204 17.818L77.0597 18.1386C77.2808 17.9735 77.5609 17.8853 77.9127 17.8853V17.4853ZM76.8204 17.818C76.5183 18.0435 76.3475 18.3351 76.3475 18.6873H76.7475C76.7475 18.4847 76.8384 18.3037 77.0597 18.1386L76.8204 17.818ZM76.5475 18.4873H75.4576V18.8873H76.5475V18.4873ZM75.6576 18.6873C75.6576 18.4214 75.7502 18.1583 75.9508 17.8942L75.6324 17.6522C75.3878 17.974 75.2576 18.3203 75.2576 18.6873H75.6576ZM75.9506 17.8945C76.1546 17.6273 76.4313 17.4125 76.7876 17.2525L76.6238 16.8876C76.2144 17.0714 75.8818 17.3254 75.6326 17.6519L75.9506 17.8945ZM76.7869 17.2528C77.1458 17.0933 77.5417 17.0123 77.9772 17.0123V16.6123C77.4908 16.6123 77.0389 16.7031 76.6244 16.8873L76.7869 17.2528ZM77.9772 17.0123C78.6747 17.0123 79.1942 17.1871 79.5613 17.5127L79.8267 17.2134C79.3656 16.8046 78.7406 16.6123 77.9772 16.6123V17.0123ZM79.5621 17.5134C79.9271 17.8337 80.124 18.279 80.1385 18.8738L80.5384 18.864C80.5217 18.1775 80.2889 17.6189 79.8259 17.2127L79.5621 17.5134ZM80.1385 18.8689V21.7869H80.5385V18.8689H80.1385ZM80.1385 21.7869C80.1385 22.3826 80.214 22.8761 80.3775 23.2548L80.7448 23.0962C80.6114 22.7875 80.5385 22.3552 80.5385 21.7869H80.1385ZM80.3611 23.1755V23.2693H80.7611V23.1755H80.3611ZM80.5611 23.0693H79.4244V23.4693H80.5611V23.0693ZM77.6256 22.6431C78.0018 22.6431 78.3584 22.5454 78.6923 22.3527L78.4924 22.0062C78.217 22.1651 77.9291 22.2431 77.6256 22.2431V22.6431ZM78.6923 22.3527C79.0272 22.1595 79.2781 21.9029 79.4344 21.5813L79.0746 21.4065C78.9575 21.6474 78.767 21.8478 78.4924 22.0062L78.6923 22.3527ZM79.4545 21.4939V20.1931H79.0545V21.4939H79.4545ZM79.2545 19.9931H78.4049V20.3931H79.2545V19.9931ZM78.4049 19.9931C77.7279 19.9931 77.1873 20.091 76.8097 20.312C76.4156 20.5427 76.2127 20.9003 76.2127 21.3591H76.6127C76.6127 21.0406 76.7418 20.8152 77.0118 20.6572C77.2983 20.4895 77.7538 20.3931 78.4049 20.3931V19.9931ZM76.2127 21.3591C76.2127 21.7483 76.3451 22.0736 76.6235 22.3088L76.8816 22.0032C76.7069 21.8556 76.6127 21.6497 76.6127 21.3591H76.2127ZM76.6235 22.3088C76.893 22.5365 77.2327 22.6431 77.6256 22.6431V22.2431C77.3076 22.2431 77.0652 22.1584 76.8816 22.0032L76.6235 22.3088ZM82.9372 22.3845L82.7775 22.2641L82.536 22.5845H82.9372V22.3845ZM86.6462 22.3845H86.8462V22.1845H86.6462V22.3845ZM86.6462 23.2693V23.4693H86.8462V23.2693H86.6462ZM81.613 23.2693H81.413V23.4693H81.613V23.2693ZM81.613 22.4724L81.4532 22.3521L81.413 22.4055V22.4724H81.613ZM85.1111 17.8259L85.2708 17.9462L85.512 17.6259H85.1111V17.8259ZM81.6658 17.8259H81.4658V18.0259H81.6658V17.8259ZM81.6658 16.9294V16.7294H81.4658V16.9294H81.6658ZM86.4704 16.9294H86.6704V16.7294H86.4704V16.9294ZM86.4704 17.697L86.6302 17.8174L86.6704 17.764V17.697H86.4704ZM82.9372 22.5845H86.6462V22.1845H82.9372V22.5845ZM86.4462 22.3845V23.2693H86.8462V22.3845H86.4462ZM86.6462 23.0693H81.613V23.4693H86.6462V23.0693ZM81.813 23.2693V22.4724H81.413V23.2693H81.813ZM81.7728 22.5927L85.2708 17.9462L84.9513 17.7056L81.4532 22.3521L81.7728 22.5927ZM85.1111 17.6259H81.6658V18.0259H85.1111V17.6259ZM81.8658 17.8259V16.9294H81.4658V17.8259H81.8658ZM81.6658 17.1294H86.4704V16.7294H81.6658V17.1294ZM86.2704 16.9294V17.697H86.6704V16.9294H86.2704ZM86.3107 17.5766L82.7775 22.2641L83.0969 22.5049L86.6302 17.8174L86.3107 17.5766Z" fill="#FFD30F"/>
<path d="M61.5271 29.4944C61.0447 29.3557 60.6931 29.1858 60.4724 28.9846C60.2537 28.7815 60.1443 28.5315 60.1443 28.2346C60.1443 27.8987 60.2781 27.6213 60.5457 27.4026C60.8152 27.1819 61.1648 27.0715 61.5945 27.0715C61.8875 27.0715 62.1482 27.1282 62.3767 27.2415C62.6072 27.3547 62.7849 27.511 62.9099 27.7102C63.0369 27.9094 63.1003 28.1272 63.1003 28.3635H62.5349C62.5349 28.1057 62.4529 27.9036 62.2888 27.7571C62.1248 27.6086 61.8933 27.5344 61.5945 27.5344C61.3171 27.5344 61.1003 27.5959 60.9441 27.719C60.7898 27.8401 60.7126 28.009 60.7126 28.2258C60.7126 28.3997 60.7859 28.5471 60.9324 28.6682C61.0808 28.7874 61.3318 28.8967 61.6853 28.9963C62.0408 29.0959 62.3181 29.2063 62.5173 29.3274C62.7185 29.4465 62.8669 29.5862 62.9626 29.7463C63.0603 29.9065 63.1091 30.095 63.1091 30.3118C63.1091 30.6575 62.9744 30.9348 62.7048 31.1438C62.4353 31.3508 62.075 31.4543 61.6238 31.4543C61.3308 31.4543 61.0574 31.3987 60.8035 31.2874C60.5496 31.1741 60.3533 31.0198 60.2146 30.8245C60.0779 30.6292 60.0095 30.4075 60.0095 30.1594H60.575C60.575 30.4172 60.6697 30.6213 60.8591 30.7717C61.0505 30.9202 61.3054 30.9944 61.6238 30.9944C61.9207 30.9944 62.1482 30.9338 62.3064 30.8127C62.4646 30.6917 62.5437 30.5266 62.5437 30.3176C62.5437 30.1086 62.4705 29.9475 62.324 29.8342C62.1775 29.719 61.9119 29.6057 61.5271 29.4944ZM64.2167 31.3958H63.6747V26.8958H64.2167V31.3958ZM64.8232 29.7815C64.8232 29.4709 64.8838 29.1917 65.0049 28.9436C65.1279 28.6956 65.2978 28.5042 65.5146 28.3694C65.7334 28.2346 65.9824 28.1672 66.2617 28.1672C66.6933 28.1672 67.042 28.3167 67.3076 28.6155C67.5752 28.9143 67.709 29.3118 67.709 29.8079V29.8459C67.709 30.1545 67.6494 30.4319 67.5303 30.678C67.4131 30.9221 67.2441 31.1125 67.0234 31.2493C66.8047 31.386 66.5527 31.4543 66.2676 31.4543C65.8379 31.4543 65.4892 31.3049 65.2217 31.0061C64.956 30.7073 64.8232 30.3118 64.8232 29.8196V29.7815ZM65.3682 29.8459C65.3682 30.1975 65.4492 30.4797 65.6113 30.6926C65.7754 30.9055 65.9941 31.012 66.2676 31.012C66.543 31.012 66.7617 30.9045 66.9238 30.6897C67.0859 30.4729 67.167 30.1702 67.167 29.7815C67.167 29.4338 67.084 29.1526 66.918 28.9377C66.7539 28.7209 66.5351 28.6125 66.2617 28.6125C65.9941 28.6125 65.7783 28.719 65.6142 28.9319C65.4502 29.1448 65.3682 29.4495 65.3682 29.8459ZM69.2677 30.6604L70.0528 28.2258H70.6066L69.4698 31.3958H69.0567L67.9083 28.2258H68.462L69.2677 30.6604ZM72.2825 31.4543C71.8528 31.4543 71.5032 31.3137 71.2336 31.0325C70.9641 30.7493 70.8293 30.3713 70.8293 29.8987V29.7991C70.8293 29.4846 70.8889 29.2043 71.008 28.9583C71.1291 28.7102 71.2971 28.5168 71.5119 28.3782C71.7287 28.2375 71.9631 28.1672 72.2151 28.1672C72.6272 28.1672 72.9475 28.303 73.176 28.5745C73.4045 28.8459 73.5188 29.2346 73.5188 29.7405V29.9661H71.3713C71.3791 30.2786 71.47 30.5315 71.6438 30.7249C71.8196 30.9163 72.0422 31.012 72.3117 31.012C72.5032 31.012 72.6653 30.9729 72.7981 30.8948C72.9309 30.8167 73.0471 30.7131 73.1467 30.5842L73.4778 30.842C73.2121 31.2502 72.8137 31.4543 72.2825 31.4543ZM72.2151 28.6125C71.9963 28.6125 71.8127 28.6926 71.6643 28.8528C71.5159 29.011 71.4241 29.2336 71.3889 29.5208H72.9768V29.4797C72.9612 29.2043 72.8869 28.9915 72.7541 28.8411C72.6213 28.6887 72.4416 28.6125 72.2151 28.6125ZM74.5414 28.2258L74.5589 28.6243C74.8011 28.3196 75.1175 28.1672 75.5082 28.1672C76.1781 28.1672 76.516 28.5452 76.5218 29.301V31.3958H75.9798V29.2981C75.9779 29.0696 75.9251 28.9006 75.8216 28.7913C75.7201 28.6819 75.5609 28.6272 75.3441 28.6272C75.1683 28.6272 75.014 28.6741 74.8812 28.7678C74.7484 28.8616 74.6449 28.9846 74.5707 29.137V31.3958H74.0287V28.2258H74.5414ZM79.0649 30.5549C79.0649 30.4084 79.0092 30.2952 78.8979 30.2151C78.7885 30.1331 78.5962 30.0627 78.3208 30.0042C78.0473 29.9456 77.8296 29.8752 77.6675 29.7932C77.5073 29.7112 77.3882 29.6135 77.31 29.5002C77.2339 29.387 77.1958 29.2522 77.1958 29.0959C77.1958 28.8362 77.3051 28.6165 77.5239 28.4368C77.7446 28.2571 78.0259 28.1672 78.3676 28.1672C78.727 28.1672 79.018 28.26 79.2407 28.4456C79.4653 28.6311 79.5776 28.8684 79.5776 29.1575H79.0327C79.0327 29.009 78.9692 28.8811 78.8423 28.7737C78.7173 28.6663 78.5591 28.6125 78.3676 28.6125C78.1704 28.6125 78.0161 28.6555 77.9048 28.7415C77.7934 28.8274 77.7378 28.9397 77.7378 29.0784C77.7378 29.2092 77.7895 29.3079 77.893 29.3743C77.9966 29.4407 78.1831 29.5042 78.4526 29.5647C78.7241 29.6252 78.9438 29.6975 79.1118 29.7815C79.2798 29.8655 79.4038 29.967 79.4839 30.0862C79.5659 30.2034 79.6069 30.3469 79.6069 30.5168C79.6069 30.8 79.4936 31.0276 79.2671 31.1995C79.0405 31.3694 78.7466 31.4543 78.3852 31.4543C78.1313 31.4543 77.9067 31.4094 77.7114 31.3196C77.5161 31.2297 77.3628 31.1047 77.2514 30.9446C77.1421 30.7825 77.0874 30.6077 77.0874 30.4202H77.6294C77.6391 30.6018 77.7114 30.7463 77.8462 30.8538C77.9829 30.9592 78.1626 31.012 78.3852 31.012C78.5903 31.012 78.7544 30.9709 78.8774 30.8889C79.0024 30.8049 79.0649 30.6936 79.0649 30.5549ZM81.0777 29.928L80.7379 30.2825V31.3958H80.1959V26.8958H80.7379V29.6174L81.0279 29.2688L82.0152 28.2258H82.6744L81.441 29.55L82.818 31.3958H82.1822L81.0777 29.928ZM82.9704 29.7815C82.9704 29.4709 83.031 29.1917 83.1521 28.9436C83.2751 28.6956 83.445 28.5042 83.6618 28.3694C83.8806 28.2346 84.1296 28.1672 84.4089 28.1672C84.8405 28.1672 85.1892 28.3167 85.4548 28.6155C85.7224 28.9143 85.8562 29.3118 85.8562 29.8079V29.8459C85.8562 30.1545 85.7966 30.4319 85.6775 30.678C85.5603 30.9221 85.3913 31.1125 85.1706 31.2493C84.9519 31.386 84.6999 31.4543 84.4148 31.4543C83.9851 31.4543 83.6364 31.3049 83.3689 31.0061C83.1032 30.7073 82.9704 30.3118 82.9704 29.8196V29.7815ZM83.5153 29.8459C83.5153 30.1975 83.5964 30.4797 83.7585 30.6926C83.9226 30.9055 84.1413 31.012 84.4148 31.012C84.6901 31.012 84.9089 30.9045 85.071 30.6897C85.2331 30.4729 85.3142 30.1702 85.3142 29.7815C85.3142 29.4338 85.2312 29.1526 85.0651 28.9377C84.9011 28.7209 84.6823 28.6125 84.4089 28.6125C84.1413 28.6125 83.9255 28.719 83.7614 28.9319C83.5974 29.1448 83.5153 29.4495 83.5153 29.8459Z" fill="white" fill-opacity="0.8"/>
<path d="M30.3805 37.9055H24.7907V37.1262L27.7438 33.845C28.1813 33.3489 28.4821 32.9465 28.6462 32.6379C28.8141 32.3254 28.8981 32.0032 28.8981 31.6711C28.8981 31.2258 28.7633 30.8606 28.4938 30.5754C28.2243 30.2903 27.8649 30.1477 27.4157 30.1477C26.8766 30.1477 26.4567 30.302 26.1559 30.6106C25.8591 30.9153 25.7106 31.3411 25.7106 31.8879H24.6266C24.6266 31.1028 24.8786 30.468 25.3825 29.9836C25.8903 29.4993 26.568 29.2571 27.4157 29.2571C28.2087 29.2571 28.8356 29.4661 29.2966 29.884C29.7575 30.2981 29.988 30.8508 29.988 31.5422C29.988 32.3821 29.4528 33.3821 28.3825 34.5422L26.0973 37.0208H30.3805V37.9055ZM36.5186 34.2668C36.5186 35.5364 36.3018 36.4797 35.8682 37.0969C35.4346 37.7141 34.7569 38.0227 33.835 38.0227C32.9248 38.0227 32.251 37.7219 31.8135 37.1204C31.376 36.5149 31.1494 35.6125 31.1338 34.4133V32.9661C31.1338 31.7122 31.3506 30.7805 31.7842 30.1711C32.2178 29.5618 32.8975 29.2571 33.8233 29.2571C34.7412 29.2571 35.417 29.552 35.8506 30.1418C36.2842 30.7278 36.5069 31.634 36.5186 32.8606V34.2668ZM35.4346 32.7844C35.4346 31.8665 35.3057 31.1985 35.0479 30.7805C34.7901 30.3586 34.3819 30.1477 33.8233 30.1477C33.2686 30.1477 32.8643 30.3567 32.6104 30.7747C32.3565 31.1926 32.2256 31.8352 32.2178 32.7024V34.4368C32.2178 35.3586 32.3506 36.0403 32.6162 36.4817C32.8858 36.9192 33.292 37.1379 33.835 37.1379C34.3701 37.1379 34.7666 36.9309 35.0244 36.5168C35.2862 36.1028 35.4229 35.4504 35.4346 34.5598V32.7844ZM43.1371 37.9055H37.5473V37.1262L40.5004 33.845C40.9379 33.3489 41.2387 32.9465 41.4027 32.6379C41.5707 32.3254 41.6547 32.0032 41.6547 31.6711C41.6547 31.2258 41.5199 30.8606 41.2504 30.5754C40.9808 30.2903 40.6215 30.1477 40.1723 30.1477C39.6332 30.1477 39.2133 30.302 38.9125 30.6106C38.6156 30.9153 38.4672 31.3411 38.4672 31.8879H37.3832C37.3832 31.1028 37.6351 30.468 38.1391 29.9836C38.6469 29.4993 39.3246 29.2571 40.1723 29.2571C40.9652 29.2571 41.5922 29.4661 42.0531 29.884C42.5141 30.2981 42.7445 30.8508 42.7445 31.5422C42.7445 32.3821 42.2094 33.3821 41.1391 34.5422L38.8539 37.0208H43.1371V37.9055ZM47.488 37.9055H46.3982V30.6809L44.2126 31.4836V30.4993L47.3181 29.3333H47.488V37.9055Z" fill="white"/>
<path d="M17.6774 24.2263H14.1032L13.3005 26.4529H12.1403L15.3981 17.9216H16.3825L19.6462 26.4529H18.4919L17.6774 24.2263ZM14.4431 23.3005H17.3435L15.8903 19.3103L14.4431 23.3005ZM25.6788 24.9587L26.8975 20.113H27.9815L26.1358 26.4529H25.2569L23.7159 21.6482L22.2159 26.4529H21.337L19.4971 20.113H20.5753L21.8233 24.8591L23.2999 20.113H24.1729L25.6788 24.9587ZM32.643 26.4529C32.5805 26.3279 32.5297 26.1052 32.4906 25.7849C31.9867 26.3083 31.3852 26.5701 30.686 26.5701C30.061 26.5701 29.5473 26.3943 29.1449 26.0427C28.7465 25.6873 28.5473 25.238 28.5473 24.6951C28.5473 24.0349 28.7973 23.5232 29.2973 23.1599C29.8012 22.7927 30.5082 22.6091 31.4184 22.6091H32.4731V22.1111C32.4731 21.7322 32.3598 21.4314 32.1332 21.2087C31.9067 20.9822 31.5727 20.8689 31.1313 20.8689C30.7445 20.8689 30.4203 20.9666 30.1586 21.1619C29.8969 21.3572 29.766 21.5935 29.766 21.8708H28.6762C28.6762 21.5544 28.7875 21.2498 29.0102 20.9568C29.2367 20.6599 29.5414 20.4255 29.9242 20.2537C30.311 20.0818 30.7348 19.9958 31.1957 19.9958C31.9262 19.9958 32.4985 20.1794 32.9125 20.5466C33.3266 20.9099 33.5414 21.4119 33.557 22.0525V24.9705C33.557 25.5525 33.6313 26.0154 33.7797 26.3591V26.4529H32.643ZM30.8442 25.6267C31.184 25.6267 31.5063 25.5388 31.811 25.363C32.1156 25.1873 32.3363 24.9587 32.4731 24.6775V23.3767H31.6235C30.2953 23.3767 29.6313 23.7654 29.6313 24.5427C29.6313 24.8826 29.7445 25.1482 29.9711 25.3396C30.1977 25.531 30.4887 25.6267 30.8442 25.6267ZM37.9607 21.0857C37.7967 21.0583 37.6189 21.0447 37.4275 21.0447C36.7166 21.0447 36.2342 21.3474 35.9803 21.9529V26.4529H34.8963V20.113H35.951L35.9685 20.8455C36.324 20.2791 36.8279 19.9958 37.4803 19.9958C37.6912 19.9958 37.8513 20.0232 37.9607 20.0779V21.0857ZM38.2218 23.2302C38.2218 22.2576 38.4523 21.4763 38.9132 20.8865C39.3742 20.2927 39.9777 19.9958 40.7238 19.9958C41.466 19.9958 42.0538 20.2498 42.4874 20.7576V17.4529H43.5714V26.4529H42.5753L42.5226 25.7732C42.089 26.3044 41.4855 26.5701 40.712 26.5701C39.9777 26.5701 39.3781 26.2693 38.9132 25.6677C38.4523 25.0662 38.2218 24.281 38.2218 23.3123V23.2302ZM39.3058 23.3533C39.3058 24.072 39.4542 24.6345 39.7511 25.0408C40.048 25.447 40.4581 25.6501 40.9816 25.6501C41.6691 25.6501 42.171 25.3416 42.4874 24.7244V21.8123C42.1632 21.2146 41.6652 20.9158 40.9933 20.9158C40.462 20.9158 40.048 21.1208 39.7511 21.531C39.4542 21.9412 39.3058 22.5486 39.3058 23.3533ZM48.5903 24.7712C48.5903 24.4783 48.479 24.2517 48.2563 24.0916C48.0376 23.9275 47.6528 23.7869 47.1021 23.6697C46.5552 23.5525 46.1196 23.4119 45.7954 23.2478C45.4751 23.0837 45.2368 22.8884 45.0806 22.6619C44.9282 22.4353 44.8521 22.1658 44.8521 21.8533C44.8521 21.3337 45.0708 20.8943 45.5083 20.5349C45.9497 20.1755 46.5122 19.9958 47.1958 19.9958C47.9146 19.9958 48.4966 20.1814 48.9419 20.5525C49.3911 20.9236 49.6157 21.3982 49.6157 21.9763H48.5259C48.5259 21.6794 48.3989 21.4236 48.145 21.2087C47.895 20.9939 47.5786 20.8865 47.1958 20.8865C46.8013 20.8865 46.4927 20.9724 46.27 21.1443C46.0474 21.3162 45.936 21.5408 45.936 21.8181C45.936 22.0798 46.0396 22.2771 46.2466 22.4099C46.4536 22.5427 46.8267 22.6697 47.3657 22.7908C47.9087 22.9119 48.3481 23.0564 48.6841 23.2244C49.02 23.3923 49.2681 23.5955 49.4282 23.8337C49.5923 24.0681 49.6743 24.3552 49.6743 24.6951C49.6743 25.2615 49.4478 25.7166 48.9946 26.0603C48.5415 26.4001 47.9536 26.5701 47.231 26.5701C46.7231 26.5701 46.2739 26.4802 45.8833 26.3005C45.4927 26.1208 45.186 25.8708 44.9634 25.5505C44.7446 25.2263 44.6353 24.8767 44.6353 24.5017H45.7192C45.7388 24.865 45.8833 25.1541 46.1528 25.3689C46.4263 25.5798 46.7856 25.6853 47.231 25.6853C47.6411 25.6853 47.9692 25.6033 48.2153 25.4392C48.4653 25.2712 48.5903 25.0486 48.5903 24.7712Z" fill="white"/>
<g filter="url(#filter0_d_12_15)">
<path d="M55.728 1.21143V42.866" stroke="white" stroke-opacity="0.85" shape-rendering="crispEdges"/>
</g>
<path d="M87.8275 9.68491C87.6651 4.74176 91.4922 3.6993 93.4262 3.796C93.5886 8.73915 89.7614 9.78161 87.8275 9.68491Z" fill="#F7C30E" stroke="#FFD30F" stroke-width="0.4"/>
<path d="M84.8665 12.2615C81.3076 8.82708 83.3283 5.41376 84.7835 4.13641C88.3424 7.57082 86.3218 10.9841 84.8665 12.2615Z" fill="#F7C30E" stroke="#FFD30F" stroke-width="0.4"/>
<path d="M93.2668 12.27C89.8863 15.8803 86.443 13.9112 85.1439 12.4753C88.5244 8.8651 91.9677 10.8342 93.2668 12.27Z" fill="#F7C30E" stroke="#FFD30F" stroke-width="0.4"/>
<defs>
<filter id="filter0_d_12_15" x="54.628" y="0.411426" width="3" height="43.6545" filterUnits="userSpaceOnUse" color-interpolation-filters="sRGB">
<feFlood flood-opacity="0" result="BackgroundImageFix"/>
<feColorMatrix in="SourceAlpha" type="matrix" values="0 0 0 0 0 0 0 0 0 0 0 0 0 0 0 0 0 0 127 0" result="hardAlpha"/>
<feOffset dx="0.4" dy="0.2"/>
<feGaussianBlur stdDeviation="0.5"/>
<feComposite in2="hardAlpha" operator="out"/>
<feColorMatrix type="matrix" values="0 0 0 0 0 0 0 0 0 0 0 0 0 0 0 0 0 0 0.1 0"/>
<feBlend mode="normal" in2="BackgroundImageFix" result="effect1_dropShadow_12_15"/>
<feBlend mode="normal" in="SourceGraphic" in2="effect1_dropShadow_12_15" result="shape"/>
</filter>
</defs>
</svg>
