<svg width="106" height="54" viewBox="0 0 106 54" fill="none" xmlns="http://www.w3.org/2000/svg">
<path d="M2.99524 15.5378L5.7843 22.4988L8.57336 15.5378H10.0323V24.0691H8.90734V20.7468L9.01281 17.1609L6.21203 24.0691H5.3507L2.55578 17.1785L2.66711 20.7468V24.0691H1.54211V15.5378H2.99524ZM12.6665 24.0691H11.5825V17.7292H12.6665V24.0691ZM11.4946 16.0476C11.4946 15.8718 11.5473 15.7234 11.6528 15.6023C11.7622 15.4812 11.9223 15.4207 12.1333 15.4207C12.3442 15.4207 12.5044 15.4812 12.6138 15.6023C12.7231 15.7234 12.7778 15.8718 12.7778 16.0476C12.7778 16.2234 12.7231 16.3699 12.6138 16.4871C12.5044 16.6042 12.3442 16.6628 12.1333 16.6628C11.9223 16.6628 11.7622 16.6042 11.6528 16.4871C11.5473 16.3699 11.4946 16.2234 11.4946 16.0476ZM16.5897 23.3015C16.9764 23.3015 17.3143 23.1843 17.6034 22.95C17.8924 22.7156 18.0526 22.4226 18.0838 22.071H19.1092C19.0897 22.4343 18.9647 22.78 18.7342 23.1082C18.5038 23.4363 18.1952 23.698 17.8084 23.8933C17.4256 24.0886 17.0194 24.1863 16.5897 24.1863C15.7264 24.1863 15.0389 23.8992 14.5272 23.325C14.0194 22.7468 13.7655 21.9578 13.7655 20.9578V20.7761C13.7655 20.1589 13.8788 19.6101 14.1053 19.1296C14.3319 18.6492 14.6561 18.2761 15.078 18.0105C15.5038 17.7449 16.0057 17.6121 16.5838 17.6121C17.2948 17.6121 17.8846 17.825 18.3534 18.2507C18.826 18.6765 19.078 19.2292 19.1092 19.9089H18.0838C18.0526 19.4988 17.8963 19.1628 17.6151 18.9011C17.3377 18.6355 16.994 18.5027 16.5838 18.5027C16.033 18.5027 15.6053 18.7019 15.3006 19.1003C14.9998 19.4949 14.8495 20.0671 14.8495 20.8171V21.0222C14.8495 21.7527 14.9998 22.3152 15.3006 22.7097C15.6014 23.1042 16.0311 23.3015 16.5897 23.3015ZM23.0324 18.7019C22.8684 18.6746 22.6906 18.6609 22.4992 18.6609C21.7883 18.6609 21.3059 18.9636 21.052 19.5691V24.0691H19.968V17.7292H21.0227L21.0402 18.4617C21.3957 17.8953 21.8996 17.6121 22.552 17.6121C22.7629 17.6121 22.923 17.6394 23.0324 17.6941V18.7019ZM23.2701 20.8406C23.2701 20.2195 23.3912 19.6609 23.6334 19.1648C23.8795 18.6687 24.2193 18.2859 24.6529 18.0164C25.0904 17.7468 25.5884 17.6121 26.147 17.6121C27.0103 17.6121 27.7076 17.9109 28.2388 18.5085C28.774 19.1062 29.0416 19.9011 29.0416 20.8933V20.9695C29.0416 21.5867 28.9224 22.1414 28.6841 22.6335C28.4498 23.1218 28.1119 23.5027 27.6705 23.7761C27.233 24.0496 26.7291 24.1863 26.1588 24.1863C25.2994 24.1863 24.6021 23.8875 24.067 23.2898C23.5357 22.6921 23.2701 21.9011 23.2701 20.9167V20.8406ZM24.3599 20.9695C24.3599 21.6726 24.522 22.2371 24.8463 22.6628C25.1744 23.0886 25.6119 23.3015 26.1588 23.3015C26.7095 23.3015 27.147 23.0867 27.4713 22.657C27.7955 22.2234 27.9576 21.6179 27.9576 20.8406C27.9576 20.1453 27.7916 19.5828 27.4595 19.1531C27.1314 18.7195 26.6939 18.5027 26.147 18.5027C25.6119 18.5027 25.1802 18.7156 24.8521 19.1414C24.524 19.5671 24.3599 20.1765 24.3599 20.9695ZM33.7323 22.3875C33.7323 22.0945 33.621 21.8679 33.3984 21.7078C33.1796 21.5437 32.7948 21.4031 32.2441 21.2859C31.6972 21.1687 31.2616 21.0281 30.9374 20.864C30.6171 20.7 30.3788 20.5046 30.2226 20.2781C30.0702 20.0515 29.9941 19.782 29.9941 19.4695C29.9941 18.95 30.2128 18.5105 30.6503 18.1511C31.0917 17.7917 31.6542 17.6121 32.3378 17.6121C33.0566 17.6121 33.6386 17.7976 34.0839 18.1687C34.5331 18.5398 34.7577 19.0144 34.7577 19.5925H33.6679C33.6679 19.2957 33.5409 19.0398 33.287 18.825C33.037 18.6101 32.7206 18.5027 32.3378 18.5027C31.9433 18.5027 31.6347 18.5886 31.412 18.7605C31.1894 18.9324 31.078 19.157 31.078 19.4343C31.078 19.696 31.1816 19.8933 31.3886 20.0261C31.5956 20.1589 31.9687 20.2859 32.5077 20.407C33.0507 20.5281 33.4902 20.6726 33.8261 20.8406C34.162 21.0085 34.4101 21.2117 34.5702 21.45C34.7343 21.6843 34.8163 21.9714 34.8163 22.3113C34.8163 22.8777 34.5898 23.3328 34.1366 23.6765C33.6835 24.0164 33.0956 24.1863 32.373 24.1863C31.8652 24.1863 31.4159 24.0964 31.0253 23.9167C30.6347 23.7371 30.328 23.4871 30.1054 23.1667C29.8866 22.8425 29.7773 22.4929 29.7773 22.1179H30.8613C30.8808 22.4812 31.0253 22.7703 31.2948 22.9851C31.5683 23.196 31.9277 23.3015 32.373 23.3015C32.7831 23.3015 33.1113 23.2195 33.3573 23.0554C33.6073 22.8875 33.7323 22.6648 33.7323 22.3875ZM35.5813 20.8406C35.5813 20.2195 35.7024 19.6609 35.9446 19.1648C36.1907 18.6687 36.5305 18.2859 36.9641 18.0164C37.4016 17.7468 37.8997 17.6121 38.4583 17.6121C39.3216 17.6121 40.0188 17.9109 40.5501 18.5085C41.0852 19.1062 41.3528 19.9011 41.3528 20.8933V20.9695C41.3528 21.5867 41.2337 22.1414 40.9954 22.6335C40.761 23.1218 40.4231 23.5027 39.9817 23.7761C39.5442 24.0496 39.0403 24.1863 38.47 24.1863C37.6106 24.1863 36.9134 23.8875 36.3782 23.2898C35.847 22.6921 35.5813 21.9011 35.5813 20.9167V20.8406ZM36.6712 20.9695C36.6712 21.6726 36.8333 22.2371 37.1575 22.6628C37.4856 23.0886 37.9231 23.3015 38.47 23.3015C39.0208 23.3015 39.4583 23.0867 39.7825 22.657C40.1067 22.2234 40.2688 21.6179 40.2688 20.8406C40.2688 20.1453 40.1028 19.5828 39.7708 19.1531C39.4427 18.7195 39.0052 18.5027 38.4583 18.5027C37.9231 18.5027 37.4915 18.7156 37.1634 19.1414C36.8352 19.5671 36.6712 20.1765 36.6712 20.9695ZM42.8854 24.0691V18.5671H41.8834V17.7292H42.8854V17.0789C42.8854 16.3992 43.067 15.8738 43.4303 15.5027C43.7936 15.1316 44.3073 14.946 44.9713 14.946C45.2213 14.946 45.4694 14.9792 45.7155 15.0457L45.6569 15.9246C45.4733 15.8894 45.278 15.8718 45.0709 15.8718C44.7194 15.8718 44.4479 15.9753 44.2565 16.1824C44.0651 16.3855 43.9694 16.6785 43.9694 17.0613V17.7292H45.3229V18.5671H43.9694V24.0691H42.8854ZM47.6348 16.1941V17.7292H48.8184V18.5671H47.6348V22.4988C47.6348 22.7527 47.6875 22.9441 47.793 23.073C47.8984 23.198 48.0781 23.2605 48.332 23.2605C48.457 23.2605 48.6289 23.2371 48.8477 23.1902V24.0691C48.5625 24.1472 48.2852 24.1863 48.0156 24.1863C47.5312 24.1863 47.166 24.0398 46.9199 23.7468C46.6738 23.4539 46.5508 23.0378 46.5508 22.4988V18.5671H45.3965V17.7292H46.5508V16.1941H47.6348Z" fill="white"/>
<path d="M63.8381 30.8442L66.2756 23.8071H67.5061L64.342 32.3384H63.3459L60.1877 23.8071H61.4124L63.8381 30.8442ZM69.5424 32.3384H68.4525V25.9985H69.5424V32.3384ZM69.5541 23.3442H70.8666L69.2963 25.0669H68.4232L69.5541 23.3442ZM72.6802 24.4634V25.9985H73.8638V26.8364H72.6802V30.7681C72.6802 31.022 72.7329 31.2134 72.8384 31.3423C72.9438 31.4673 73.1235 31.5298 73.3774 31.5298C73.5024 31.5298 73.6743 31.5063 73.8931 31.4595V32.3384C73.6079 32.4165 73.3306 32.4556 73.061 32.4556C72.5767 32.4556 72.2114 32.3091 71.9653 32.0161C71.7192 31.7231 71.5962 31.3071 71.5962 30.7681V26.8364H70.4419V25.9985H71.5962V24.4634H72.6802ZM73.9165 24.9731L73.3013 24.5513C73.5825 24.1255 73.727 23.6646 73.7349 23.1685V22.6294H74.772V23.0747C74.772 23.4302 74.6938 23.7837 74.5376 24.1353C74.3852 24.4829 74.1782 24.7622 73.9165 24.9731ZM79.1637 32.3384C79.1012 32.2134 79.0504 31.9907 79.0113 31.6704C78.5074 32.1938 77.9059 32.4556 77.2067 32.4556C76.5817 32.4556 76.068 32.2798 75.6656 31.9282C75.2672 31.5728 75.068 31.1235 75.068 30.5806C75.068 29.9204 75.318 29.4087 75.818 29.0454C76.3219 28.6782 77.0289 28.4946 77.9391 28.4946H78.9938V27.9966C78.9938 27.6177 78.8805 27.3169 78.6539 27.0942C78.4274 26.8677 78.0934 26.7544 77.652 26.7544C77.2652 26.7544 76.941 26.8521 76.6793 27.0474C76.4176 27.2427 76.2867 27.479 76.2867 27.7563H75.1969C75.1969 27.4399 75.3082 27.1353 75.5309 26.8423C75.7574 26.5454 76.0621 26.311 76.4449 26.1392C76.8317 25.9673 77.2555 25.8813 77.7164 25.8813C78.4469 25.8813 79.0192 26.0649 79.4332 26.4321C79.8473 26.7954 80.0621 27.2974 80.0777 27.938V30.856C80.0777 31.438 80.152 31.9009 80.3004 32.2446V32.3384H79.1637ZM77.3649 31.5122C77.7047 31.5122 78.027 31.4243 78.3317 31.2485C78.6363 31.0728 78.857 30.8442 78.9938 30.563V29.2622H78.1442C76.816 29.2622 76.152 29.6509 76.152 30.4282C76.152 30.7681 76.2652 31.0337 76.4918 31.2251C76.7184 31.4165 77.0094 31.5122 77.3649 31.5122ZM82.6765 31.4536H86.3855V32.3384H81.3523V31.5415L84.8503 26.895H81.405V25.9985H86.2097V26.7661L82.6765 31.4536Z" fill="#F7C30E"/>
<path d="M63.8381 30.8442L63.6491 30.9094L63.8377 31.4566L64.0271 30.9097L63.8381 30.8442ZM66.2756 23.8071V23.6071H66.1333L66.0867 23.7417L66.2756 23.8071ZM67.5061 23.8071L67.6936 23.8767L67.7936 23.6071H67.5061V23.8071ZM64.342 32.3384V32.5384H64.4812L64.5296 32.4079L64.342 32.3384ZM63.3459 32.3384L63.1584 32.4078L63.2067 32.5384H63.3459V32.3384ZM60.1877 23.8071V23.6071H59.9004L60.0002 23.8766L60.1877 23.8071ZM61.4124 23.8071L61.6014 23.742L61.555 23.6071H61.4124V23.8071ZM64.0271 30.9097L66.4646 23.8726L66.0867 23.7417L63.6492 30.7788L64.0271 30.9097ZM66.2756 24.0071H67.5061V23.6071H66.2756V24.0071ZM67.3186 23.7376L64.1545 32.2688L64.5296 32.4079L67.6936 23.8767L67.3186 23.7376ZM64.342 32.1384H63.3459V32.5384H64.342V32.1384ZM63.5335 32.2689L60.3753 23.7377L60.0002 23.8766L63.1584 32.4078L63.5335 32.2689ZM60.1877 24.0071H61.4124V23.6071H60.1877V24.0071ZM61.2233 23.8723L63.6491 30.9094L64.0272 30.7791L61.6014 23.742L61.2233 23.8723ZM69.5424 32.3384V32.5384H69.7424V32.3384H69.5424ZM68.4525 32.3384H68.2525V32.5384H68.4525V32.3384ZM68.4525 25.9985V25.7985H68.2525V25.9985H68.4525ZM69.5424 25.9985H69.7424V25.7985H69.5424V25.9985ZM69.5541 23.3442V23.1442H69.4461L69.3869 23.2345L69.5541 23.3442ZM70.8666 23.3442L71.0144 23.479L71.3195 23.1442H70.8666V23.3442ZM69.2963 25.0669V25.2669H69.3846L69.4441 25.2016L69.2963 25.0669ZM68.4232 25.0669L68.256 24.9571L68.0527 25.2669H68.4232V25.0669ZM69.5424 32.1384H68.4525V32.5384H69.5424V32.1384ZM68.6525 32.3384V25.9985H68.2525V32.3384H68.6525ZM68.4525 26.1985H69.5424V25.7985H68.4525V26.1985ZM69.3424 25.9985V32.3384H69.7424V25.9985H69.3424ZM69.5541 23.5442H70.8666V23.1442H69.5541V23.5442ZM70.7188 23.2095L69.1485 24.9322L69.4441 25.2016L71.0144 23.479L70.7188 23.2095ZM69.2963 24.8669H68.4232V25.2669H69.2963V24.8669ZM68.5904 25.1767L69.7213 23.454L69.3869 23.2345L68.256 24.9571L68.5904 25.1767ZM72.6802 24.4634H72.8802V24.2634H72.6802V24.4634ZM72.6802 25.9985H72.4802V26.1985H72.6802V25.9985ZM73.8638 25.9985H74.0638V25.7985H73.8638V25.9985ZM73.8638 26.8364V27.0364H74.0638V26.8364H73.8638ZM72.6802 26.8364V26.6364H72.4802V26.8364H72.6802ZM72.8384 31.3423L72.6836 31.4689L72.6855 31.4713L72.8384 31.3423ZM73.8931 31.4595H74.0931V31.2121L73.8512 31.2639L73.8931 31.4595ZM73.8931 32.3384L73.9459 32.5313L74.0931 32.491V32.3384H73.8931ZM71.5962 26.8364H71.7962V26.6364H71.5962V26.8364ZM70.4419 26.8364H70.2419V27.0364H70.4419V26.8364ZM70.4419 25.9985V25.7985H70.2419V25.9985H70.4419ZM71.5962 25.9985V26.1985H71.7962V25.9985H71.5962ZM71.5962 24.4634V24.2634H71.3962V24.4634H71.5962ZM73.9165 24.9731L73.8034 25.1381L73.9261 25.2223L74.042 25.1289L73.9165 24.9731ZM73.3013 24.5513L73.1344 24.441L73.026 24.6051L73.1882 24.7162L73.3013 24.5513ZM73.7349 23.1685L73.9349 23.1716V23.1685H73.7349ZM73.7349 22.6294V22.4294H73.5349V22.6294H73.7349ZM74.772 22.6294H74.972V22.4294H74.772V22.6294ZM74.5376 24.1353L74.3548 24.054L74.3544 24.055L74.5376 24.1353ZM72.4802 24.4634V25.9985H72.8802V24.4634H72.4802ZM72.6802 26.1985H73.8638V25.7985H72.6802V26.1985ZM73.6638 25.9985V26.8364H74.0638V25.9985H73.6638ZM73.8638 26.6364H72.6802V27.0364H73.8638V26.6364ZM72.4802 26.8364V30.7681H72.8802V26.8364H72.4802ZM72.4802 30.7681C72.4802 31.045 72.537 31.2898 72.6836 31.4689L72.9932 31.2156C72.9288 31.137 72.8802 30.9989 72.8802 30.7681H72.4802ZM72.6855 31.4713C72.8459 31.6614 73.0972 31.7298 73.3774 31.7298V31.3298C73.1499 31.3298 73.0418 31.2732 72.9912 31.2133L72.6855 31.4713ZM73.3774 31.7298C73.5234 31.7298 73.7114 31.7029 73.935 31.655L73.8512 31.2639C73.6372 31.3098 73.4814 31.3298 73.3774 31.3298V31.7298ZM73.6931 31.4595V32.3384H74.0931V31.4595H73.6931ZM73.8402 32.1455C73.5706 32.2193 73.3111 32.2556 73.061 32.2556V32.6556C73.35 32.6556 73.6452 32.6137 73.9459 32.5313L73.8402 32.1455ZM73.061 32.2556C72.6187 32.2556 72.3168 32.1236 72.1185 31.8875L71.8122 32.1448C72.106 32.4945 72.5346 32.6556 73.061 32.6556V32.2556ZM72.1185 31.8875C71.9129 31.6428 71.7962 31.2791 71.7962 30.7681H71.3962C71.3962 31.3352 71.5255 31.8035 71.8122 32.1448L72.1185 31.8875ZM71.7962 30.7681V26.8364H71.3962V30.7681H71.7962ZM71.5962 26.6364H70.4419V27.0364H71.5962V26.6364ZM70.6419 26.8364V25.9985H70.2419V26.8364H70.6419ZM70.4419 26.1985H71.5962V25.7985H70.4419V26.1985ZM71.7962 25.9985V24.4634H71.3962V25.9985H71.7962ZM71.5962 24.6634H72.6802V24.2634H71.5962V24.6634ZM74.0296 24.8082L73.4144 24.3863L73.1882 24.7162L73.8034 25.1381L74.0296 24.8082ZM73.4681 24.6615C73.7698 24.2049 73.9264 23.7069 73.9348 23.1716L73.5349 23.1653C73.5277 23.6222 73.3952 24.0461 73.1344 24.441L73.4681 24.6615ZM73.9349 23.1685V22.6294H73.5349V23.1685H73.9349ZM73.7349 22.8294H74.772V22.4294H73.7349V22.8294ZM74.572 22.6294V23.0747H74.972V22.6294H74.572ZM74.572 23.0747C74.572 23.4 74.5007 23.7259 74.3548 24.054L74.7204 24.2165C74.887 23.8415 74.972 23.4604 74.972 23.0747H74.572ZM74.3544 24.055C74.2133 24.3771 74.0246 24.6291 73.791 24.8174L74.042 25.1289C74.3318 24.8953 74.5572 24.5888 74.7208 24.2155L74.3544 24.055ZM79.1637 32.3384L78.9848 32.4278L79.0401 32.5384H79.1637V32.3384ZM79.0113 31.6704L79.2099 31.6462L79.159 31.2287L78.8673 31.5317L79.0113 31.6704ZM75.6656 31.9282L75.5325 32.0775L75.534 32.0788L75.6656 31.9282ZM75.818 29.0454L75.9355 29.2072L75.9358 29.207L75.818 29.0454ZM78.9938 28.4946V28.6946H79.1938V28.4946H78.9938ZM78.6539 27.0942L78.5125 27.2357L78.5137 27.2369L78.6539 27.0942ZM76.2867 27.7563V27.9563H76.4867V27.7563H76.2867ZM75.1969 27.7563H74.9969V27.9563H75.1969V27.7563ZM75.5309 26.8423L75.3719 26.721L75.3716 26.7213L75.5309 26.8423ZM76.4449 26.1392L76.3637 25.9564L76.363 25.9567L76.4449 26.1392ZM79.4332 26.4321L79.3005 26.5818L79.3013 26.5825L79.4332 26.4321ZM80.0777 27.938H80.2778L80.2777 27.9331L80.0777 27.938ZM80.3004 32.2446H80.5004V32.2033L80.484 32.1653L80.3004 32.2446ZM80.3004 32.3384V32.5384H80.5004V32.3384H80.3004ZM78.9938 30.563L79.1736 30.6504L79.1938 30.609V30.563H78.9938ZM78.9938 29.2622H79.1938V29.0622H78.9938V29.2622ZM79.3426 32.2489C79.2969 32.1576 79.2488 31.9657 79.2099 31.6462L78.8128 31.6946C78.852 32.0157 78.9054 32.2691 78.9848 32.4278L79.3426 32.2489ZM78.8673 31.5317C78.3994 32.0177 77.8492 32.2556 77.2067 32.2556V32.6556C77.9626 32.6556 78.6155 32.37 79.1554 31.8091L78.8673 31.5317ZM77.2067 32.2556C76.6214 32.2556 76.1571 32.092 75.7972 31.7776L75.534 32.0788C75.9789 32.4675 76.5419 32.6556 77.2067 32.6556V32.2556ZM75.7988 31.779C75.4437 31.4622 75.268 31.0676 75.268 30.5806H74.868C74.868 31.1794 75.0907 31.6833 75.5325 32.0775L75.7988 31.779ZM75.268 30.5806C75.268 29.9793 75.4913 29.53 75.9355 29.2072L75.7004 28.8836C75.1446 29.2874 74.868 29.8615 74.868 30.5806H75.268ZM75.9358 29.207C76.393 28.8739 77.0526 28.6946 77.9391 28.6946V28.2946C77.0052 28.2946 76.2508 28.4826 75.7002 28.8838L75.9358 29.207ZM77.9391 28.6946H78.9938V28.2946H77.9391V28.6946ZM79.1938 28.4946V27.9966H78.7938V28.4946H79.1938ZM79.1938 27.9966C79.1938 27.5752 79.0662 27.219 78.7941 26.9516L78.5137 27.2369C78.6948 27.4148 78.7938 27.6602 78.7938 27.9966H79.1938ZM78.7953 26.9528C78.5189 26.6764 78.126 26.5544 77.652 26.5544V26.9544C78.0608 26.9544 78.3358 27.0589 78.5125 27.2357L78.7953 26.9528ZM77.652 26.5544C77.2303 26.5544 76.862 26.6615 76.5597 26.8871L76.7989 27.2076C77.0201 27.0426 77.3002 26.9544 77.652 26.9544V26.5544ZM76.5597 26.8871C76.2575 27.1126 76.0867 27.4042 76.0867 27.7563H76.4867C76.4867 27.5538 76.5776 27.3728 76.7989 27.2076L76.5597 26.8871ZM76.2867 27.5563H75.1969V27.9563H76.2867V27.5563ZM75.3969 27.7563C75.3969 27.4905 75.4894 27.2274 75.6901 26.9633L75.3716 26.7213C75.127 27.0431 74.9969 27.3894 74.9969 27.7563H75.3969ZM75.6899 26.9636C75.8938 26.6964 76.1706 26.4816 76.5269 26.3216L76.363 25.9567C75.9536 26.1405 75.621 26.3945 75.3719 26.721L75.6899 26.9636ZM76.5262 26.3219C76.8851 26.1624 77.2809 26.0813 77.7164 26.0813V25.6813C77.23 25.6813 76.7782 25.7722 76.3637 25.9564L76.5262 26.3219ZM77.7164 26.0813C78.4139 26.0813 78.9334 26.2562 79.3005 26.5818L79.5659 26.2825C79.1049 25.8736 78.4799 25.6813 77.7164 25.6813V26.0813ZM79.3013 26.5825C79.6664 26.9028 79.8633 27.3481 79.8778 27.9429L80.2777 27.9331C80.2609 27.2466 80.0281 26.688 79.5651 26.2818L79.3013 26.5825ZM79.8777 27.938V30.856H80.2777V27.938H79.8777ZM79.8777 30.856C79.8777 31.4517 79.9532 31.9451 80.1168 32.3239L80.484 32.1653C80.3507 31.8566 80.2777 31.4242 80.2777 30.856H79.8777ZM80.1004 32.2446V32.3384H80.5004V32.2446H80.1004ZM80.3004 32.1384H79.1637V32.5384H80.3004V32.1384ZM77.3649 31.7122C77.741 31.7122 78.0976 31.6144 78.4316 31.4218L78.2317 31.0753C77.9563 31.2342 77.6683 31.3122 77.3649 31.3122V31.7122ZM78.4316 31.4218C78.7664 31.2286 79.0173 30.972 79.1736 30.6504L78.8139 30.4755C78.6968 30.7165 78.5063 30.9169 78.2317 31.0753L78.4316 31.4218ZM79.1938 30.563V29.2622H78.7938V30.563H79.1938ZM78.9938 29.0622H78.1442V29.4622H78.9938V29.0622ZM78.1442 29.0622C77.4671 29.0622 76.9266 29.1601 76.549 29.3811C76.1549 29.6118 75.952 29.9694 75.952 30.4282H76.352C76.352 30.1097 76.4811 29.8843 76.751 29.7263C77.0375 29.5586 77.4931 29.4622 78.1442 29.4622V29.0622ZM75.952 30.4282C75.952 30.8174 76.0844 31.1427 76.3627 31.3779L76.6209 31.0723C76.4461 30.9247 76.352 30.7188 76.352 30.4282H75.952ZM76.3627 31.3779C76.6322 31.6056 76.9719 31.7122 77.3649 31.7122V31.3122C77.0468 31.3122 76.8045 31.2275 76.6209 31.0723L76.3627 31.3779ZM82.6765 31.4536L82.5168 31.3332L82.2753 31.6536H82.6765V31.4536ZM86.3855 31.4536H86.5855V31.2536H86.3855V31.4536ZM86.3855 32.3384V32.5384H86.5855V32.3384H86.3855ZM81.3523 32.3384H81.1523V32.5384H81.3523V32.3384ZM81.3523 31.5415L81.1925 31.4212L81.1523 31.4746V31.5415H81.3523ZM84.8503 26.895L85.0101 27.0153L85.2512 26.695H84.8503V26.895ZM81.405 26.895H81.205V27.095H81.405V26.895ZM81.405 25.9985V25.7985H81.205V25.9985H81.405ZM86.2097 25.9985H86.4097V25.7985H86.2097V25.9985ZM86.2097 26.7661L86.3694 26.8865L86.4097 26.833V26.7661H86.2097ZM82.6765 31.6536H86.3855V31.2536H82.6765V31.6536ZM86.1855 31.4536V32.3384H86.5855V31.4536H86.1855ZM86.3855 32.1384H81.3523V32.5384H86.3855V32.1384ZM81.5523 32.3384V31.5415H81.1523V32.3384H81.5523ZM81.5121 31.6618L85.0101 27.0153L84.6905 26.7747L81.1925 31.4212L81.5121 31.6618ZM84.8503 26.695H81.405V27.095H84.8503V26.695ZM81.605 26.895V25.9985H81.205V26.895H81.605ZM81.405 26.1985H86.2097V25.7985H81.405V26.1985ZM86.0097 25.9985V26.7661H86.4097V25.9985H86.0097ZM86.05 26.6457L82.5168 31.3332L82.8362 31.574L86.3694 26.8865L86.05 26.6457Z" fill="#FFD30F"/>
<path d="M61.2664 38.5635C60.7839 38.4248 60.4324 38.2549 60.2117 38.0537C59.9929 37.8506 59.8835 37.6006 59.8835 37.3037C59.8835 36.9678 60.0173 36.6904 60.2849 36.4717C60.5544 36.251 60.9041 36.1406 61.3337 36.1406C61.6267 36.1406 61.8875 36.1973 62.116 36.3105C62.3464 36.4238 62.5242 36.5801 62.6492 36.7793C62.7761 36.9785 62.8396 37.1963 62.8396 37.4326H62.2742C62.2742 37.1748 62.1921 36.9727 62.0281 36.8262C61.864 36.6777 61.6326 36.6035 61.3337 36.6035C61.0564 36.6035 60.8396 36.665 60.6833 36.7881C60.5291 36.9092 60.4519 37.0781 60.4519 37.2949C60.4519 37.4688 60.5251 37.6162 60.6716 37.7373C60.8201 37.8564 61.071 37.9658 61.4246 38.0654C61.78 38.165 62.0574 38.2754 62.2566 38.3965C62.4578 38.5156 62.6062 38.6553 62.7019 38.8154C62.7996 38.9756 62.8484 39.1641 62.8484 39.3809C62.8484 39.7266 62.7136 40.0039 62.4441 40.2129C62.1746 40.4199 61.8142 40.5234 61.363 40.5234C61.0701 40.5234 60.7966 40.4678 60.5427 40.3564C60.2888 40.2432 60.0925 40.0889 59.9539 39.8936C59.8171 39.6982 59.7488 39.4766 59.7488 39.2285H60.3142C60.3142 39.4863 60.4089 39.6904 60.5984 39.8408C60.7898 39.9893 61.0447 40.0635 61.363 40.0635C61.6599 40.0635 61.8875 40.0029 62.0457 39.8818C62.2039 39.7607 62.283 39.5957 62.283 39.3867C62.283 39.1777 62.2097 39.0166 62.0632 38.9033C61.9167 38.7881 61.6511 38.6748 61.2664 38.5635ZM63.9559 40.4648H63.4139V35.9648H63.9559V40.4648ZM64.5625 38.8506C64.5625 38.54 64.623 38.2607 64.7441 38.0127C64.8672 37.7646 65.0371 37.5732 65.2539 37.4385C65.4726 37.3037 65.7217 37.2363 66.001 37.2363C66.4326 37.2363 66.7812 37.3857 67.0469 37.6846C67.3144 37.9834 67.4482 38.3809 67.4482 38.877V38.915C67.4482 39.2236 67.3887 39.501 67.2695 39.7471C67.1523 39.9912 66.9834 40.1816 66.7627 40.3184C66.5439 40.4551 66.292 40.5234 66.0068 40.5234C65.5771 40.5234 65.2285 40.374 64.9609 40.0752C64.6953 39.7764 64.5625 39.3809 64.5625 38.8887V38.8506ZM65.1074 38.915C65.1074 39.2666 65.1885 39.5488 65.3506 39.7617C65.5146 39.9746 65.7334 40.0811 66.0068 40.0811C66.2822 40.0811 66.501 39.9736 66.6631 39.7588C66.8252 39.542 66.9062 39.2393 66.9062 38.8506C66.9062 38.5029 66.8232 38.2217 66.6572 38.0068C66.4932 37.79 66.2744 37.6816 66.001 37.6816C65.7334 37.6816 65.5176 37.7881 65.3535 38.001C65.1894 38.2139 65.1074 38.5186 65.1074 38.915ZM69.0069 39.7295L69.7921 37.2949H70.3458L69.2091 40.4648H68.796L67.6476 37.2949H68.2013L69.0069 39.7295ZM72.0217 40.5234C71.592 40.5234 71.2424 40.3828 70.9729 40.1016C70.7034 39.8184 70.5686 39.4404 70.5686 38.9678V38.8682C70.5686 38.5537 70.6282 38.2734 70.7473 38.0273C70.8684 37.7793 71.0364 37.5859 71.2512 37.4473C71.468 37.3066 71.7024 37.2363 71.9543 37.2363C72.3664 37.2363 72.6867 37.3721 72.9153 37.6436C73.1438 37.915 73.258 38.3037 73.258 38.8096V39.0352H71.1106C71.1184 39.3477 71.2092 39.6006 71.383 39.7939C71.5588 39.9854 71.7815 40.0811 72.051 40.0811C72.2424 40.0811 72.4045 40.042 72.5373 39.9639C72.6701 39.8857 72.7864 39.7822 72.886 39.6533L73.217 39.9111C72.9514 40.3193 72.553 40.5234 72.0217 40.5234ZM71.9543 37.6816C71.7356 37.6816 71.552 37.7617 71.4035 37.9219C71.2551 38.0801 71.1633 38.3027 71.1282 38.5898H72.716V38.5488C72.7004 38.2734 72.6262 38.0605 72.4934 37.9102C72.3606 37.7578 72.1809 37.6816 71.9543 37.6816ZM74.2806 37.2949L74.2982 37.6934C74.5404 37.3887 74.8568 37.2363 75.2474 37.2363C75.9173 37.2363 76.2552 37.6143 76.2611 38.3701V40.4648H75.7191V38.3672C75.7171 38.1387 75.6644 37.9697 75.5609 37.8604C75.4593 37.751 75.3001 37.6963 75.0833 37.6963C74.9076 37.6963 74.7533 37.7432 74.6205 37.8369C74.4876 37.9307 74.3841 38.0537 74.3099 38.2061V40.4648H73.7679V37.2949H74.2806ZM78.8042 39.624C78.8042 39.4775 78.7485 39.3643 78.6372 39.2842C78.5278 39.2021 78.3354 39.1318 78.06 39.0732C77.7866 39.0146 77.5688 38.9443 77.4067 38.8623C77.2466 38.7803 77.1274 38.6826 77.0493 38.5693C76.9731 38.4561 76.935 38.3213 76.935 38.165C76.935 37.9053 77.0444 37.6855 77.2632 37.5059C77.4839 37.3262 77.7651 37.2363 78.1069 37.2363C78.4663 37.2363 78.7573 37.3291 78.98 37.5146C79.2046 37.7002 79.3169 37.9375 79.3169 38.2266H78.7719C78.7719 38.0781 78.7085 37.9502 78.5815 37.8428C78.4565 37.7354 78.2983 37.6816 78.1069 37.6816C77.9096 37.6816 77.7553 37.7246 77.644 37.8105C77.5327 37.8965 77.477 38.0088 77.477 38.1475C77.477 38.2783 77.5288 38.377 77.6323 38.4434C77.7358 38.5098 77.9223 38.5732 78.1919 38.6338C78.4634 38.6943 78.6831 38.7666 78.851 38.8506C79.019 38.9346 79.143 39.0361 79.2231 39.1553C79.3051 39.2725 79.3462 39.416 79.3462 39.5859C79.3462 39.8691 79.2329 40.0967 79.0063 40.2686C78.7798 40.4385 78.4858 40.5234 78.1245 40.5234C77.8706 40.5234 77.646 40.4785 77.4507 40.3887C77.2553 40.2988 77.102 40.1738 76.9907 40.0137C76.8813 39.8516 76.8266 39.6768 76.8266 39.4893H77.3686C77.3784 39.6709 77.4507 39.8154 77.5854 39.9229C77.7221 40.0283 77.9018 40.0811 78.1245 40.0811C78.3296 40.0811 78.4936 40.04 78.6167 39.958C78.7417 39.874 78.8042 39.7627 78.8042 39.624ZM80.817 38.9971L80.4771 39.3516V40.4648H79.9351V35.9648H80.4771V38.6865L80.7672 38.3379L81.7545 37.2949H82.4137L81.1803 38.6191L82.5572 40.4648H81.9215L80.817 38.9971ZM82.7097 38.8506C82.7097 38.54 82.7702 38.2607 82.8913 38.0127C83.0144 37.7646 83.1843 37.5732 83.4011 37.4385C83.6198 37.3037 83.8689 37.2363 84.1482 37.2363C84.5798 37.2363 84.9284 37.3857 85.1941 37.6846C85.4616 37.9834 85.5954 38.3809 85.5954 38.877V38.915C85.5954 39.2236 85.5359 39.501 85.4167 39.7471C85.2995 39.9912 85.1306 40.1816 84.9099 40.3184C84.6911 40.4551 84.4392 40.5234 84.154 40.5234C83.7243 40.5234 83.3757 40.374 83.1081 40.0752C82.8425 39.7764 82.7097 39.3809 82.7097 38.8887V38.8506ZM83.2546 38.915C83.2546 39.2666 83.3357 39.5488 83.4978 39.7617C83.6618 39.9746 83.8806 40.0811 84.154 40.0811C84.4294 40.0811 84.6482 39.9736 84.8103 39.7588C84.9724 39.542 85.0534 39.2393 85.0534 38.8506C85.0534 38.5029 84.9704 38.2217 84.8044 38.0068C84.6403 37.79 84.4216 37.6816 84.1482 37.6816C83.8806 37.6816 83.6648 37.7881 83.5007 38.001C83.3366 38.2139 83.2546 38.5186 83.2546 38.915Z" fill="white"/>
<path d="M30.1198 46.9746H24.53V46.1953L27.4831 42.9141C27.9206 42.418 28.2214 42.0156 28.3854 41.707C28.5534 41.3945 28.6374 41.0723 28.6374 40.7402C28.6374 40.2949 28.5026 39.9297 28.2331 39.6445C27.9635 39.3594 27.6042 39.2168 27.155 39.2168C26.6159 39.2168 26.196 39.3711 25.8952 39.6797C25.5983 39.9844 25.4499 40.4102 25.4499 40.957H24.3659C24.3659 40.1719 24.6178 39.5371 25.1217 39.0527C25.6296 38.5684 26.3073 38.3262 27.155 38.3262C27.9479 38.3262 28.5749 38.5352 29.0358 38.9531C29.4967 39.3672 29.7272 39.9199 29.7272 40.6113C29.7272 41.4512 29.1921 42.4512 28.1217 43.6113L25.8366 46.0898H30.1198V46.9746ZM36.2578 43.3359C36.2578 44.6055 36.041 45.5488 35.6075 46.166C35.1739 46.7832 34.4961 47.0918 33.5742 47.0918C32.6641 47.0918 31.9903 46.791 31.5528 46.1895C31.1153 45.584 30.8887 44.6816 30.8731 43.4824V42.0352C30.8731 40.7812 31.0899 39.8496 31.5235 39.2402C31.9571 38.6309 32.6367 38.3262 33.5625 38.3262C34.4805 38.3262 35.1563 38.6211 35.5899 39.2109C36.0235 39.7969 36.2461 40.7031 36.2578 41.9297V43.3359ZM35.1739 41.8535C35.1739 40.9355 35.045 40.2676 34.7871 39.8496C34.5293 39.4277 34.1211 39.2168 33.5625 39.2168C33.0078 39.2168 32.6035 39.4258 32.3496 39.8438C32.0957 40.2617 31.9649 40.9043 31.9571 41.7715V43.5059C31.9571 44.4277 32.0899 45.1094 32.3555 45.5508C32.625 45.9883 33.0313 46.207 33.5742 46.207C34.1094 46.207 34.5059 46 34.7637 45.5859C35.0254 45.1719 35.1621 44.5195 35.1739 43.6289V41.8535ZM40.849 46.9746H39.7592V39.75L37.5736 40.5527V39.5684L40.6791 38.4023H40.849V46.9746ZM47.8191 43.2246C47.5925 43.4941 47.321 43.7109 47.0046 43.875C46.6921 44.0391 46.3484 44.1211 45.9734 44.1211C45.4812 44.1211 45.0515 44 44.6843 43.7578C44.321 43.5156 44.0398 43.1758 43.8406 42.7383C43.6414 42.2969 43.5417 41.8105 43.5417 41.2793C43.5417 40.709 43.6492 40.1953 43.864 39.7383C44.0828 39.2812 44.3914 38.9316 44.7898 38.6895C45.1882 38.4473 45.6531 38.3262 46.1843 38.3262C47.0281 38.3262 47.6921 38.6426 48.1765 39.2754C48.6648 39.9043 48.9089 40.7637 48.9089 41.8535V42.1699C48.9089 43.8301 48.5808 45.043 47.9246 45.8086C47.2683 46.5703 46.2781 46.9609 44.9539 46.9805H44.7429V46.0664H44.9714C45.866 46.0508 46.5535 45.8184 47.0339 45.3691C47.5144 44.916 47.7761 44.2012 47.8191 43.2246ZM46.1492 43.2246C46.5125 43.2246 46.8464 43.1133 47.1511 42.8906C47.4597 42.668 47.6843 42.3926 47.825 42.0645V41.6309C47.825 40.9199 47.6707 40.3418 47.3621 39.8965C47.0535 39.4512 46.6628 39.2285 46.1902 39.2285C45.7136 39.2285 45.3308 39.4121 45.0417 39.7793C44.7527 40.1426 44.6082 40.623 44.6082 41.2207C44.6082 41.8027 44.7468 42.2832 45.0242 42.6621C45.3054 43.0371 45.6804 43.2246 46.1492 43.2246Z" fill="white"/>
<path d="M17.4167 33.2954H13.8425L13.0397 35.522H11.8796L15.1374 26.9907H16.1218L19.3854 35.522H18.2312L17.4167 33.2954ZM14.1823 32.3696H17.0827L15.6296 28.3794L14.1823 32.3696ZM25.418 34.0278L26.6368 29.1821H27.7208L25.8751 35.522H24.9962L23.4551 30.7173L21.9551 35.522H21.0762L19.2364 29.1821H20.3145L21.5626 33.9282L23.0391 29.1821H23.9122L25.418 34.0278ZM32.3822 35.522C32.3197 35.397 32.269 35.1743 32.2299 34.854C31.726 35.3774 31.1244 35.6392 30.4252 35.6392C29.8002 35.6392 29.2865 35.4634 28.8842 35.1118C28.4858 34.7563 28.2865 34.3071 28.2865 33.7642C28.2865 33.104 28.5365 32.5923 29.0365 32.229C29.5404 31.8618 30.2475 31.6782 31.1576 31.6782H32.2123V31.1802C32.2123 30.8013 32.099 30.5005 31.8725 30.2778C31.6459 30.0513 31.3119 29.938 30.8705 29.938C30.4838 29.938 30.1596 30.0356 29.8979 30.231C29.6362 30.4263 29.5053 30.6626 29.5053 30.9399H28.4154C28.4154 30.6235 28.5268 30.3188 28.7494 30.0259C28.976 29.729 29.2807 29.4946 29.6635 29.3228C30.0502 29.1509 30.474 29.0649 30.935 29.0649C31.6654 29.0649 32.2377 29.2485 32.6518 29.6157C33.0658 29.979 33.2807 30.481 33.2963 31.1216V34.0396C33.2963 34.6216 33.3705 35.0845 33.519 35.4282V35.522H32.3822ZM30.5834 34.6958C30.9233 34.6958 31.2455 34.6079 31.5502 34.4321C31.8549 34.2563 32.0756 34.0278 32.2123 33.7466V32.4458H31.3627C30.0346 32.4458 29.3705 32.8345 29.3705 33.6118C29.3705 33.9517 29.4838 34.2173 29.7104 34.4087C29.9369 34.6001 30.2279 34.6958 30.5834 34.6958ZM37.7 30.1548C37.5359 30.1274 37.3582 30.1138 37.1668 30.1138C36.4558 30.1138 35.9734 30.4165 35.7195 31.022V35.522H34.6355V29.1821H35.6902L35.7078 29.9146C36.0633 29.3481 36.5672 29.0649 37.2195 29.0649C37.4304 29.0649 37.5906 29.0923 37.7 29.147V30.1548ZM37.9611 32.2993C37.9611 31.3267 38.1915 30.5454 38.6525 29.9556C39.1134 29.3618 39.7169 29.0649 40.463 29.0649C41.2052 29.0649 41.7931 29.3188 42.2267 29.8267V26.522H43.3107V35.522H42.3146L42.2619 34.8423C41.8283 35.3735 41.2247 35.6392 40.4513 35.6392C39.7169 35.6392 39.1173 35.3384 38.6525 34.7368C38.1915 34.1353 37.9611 33.3501 37.9611 32.3813V32.2993ZM39.0451 32.4224C39.0451 33.1411 39.1935 33.7036 39.4904 34.1099C39.7872 34.5161 40.1974 34.7192 40.7208 34.7192C41.4083 34.7192 41.9103 34.4106 42.2267 33.7935V30.8813C41.9025 30.2837 41.4044 29.9849 40.7326 29.9849C40.2013 29.9849 39.7872 30.1899 39.4904 30.6001C39.1935 31.0103 39.0451 31.6177 39.0451 32.4224ZM48.3296 33.8403C48.3296 33.5474 48.2183 33.3208 47.9956 33.1606C47.7769 32.9966 47.3921 32.856 46.8413 32.7388C46.2944 32.6216 45.8589 32.481 45.5347 32.3169C45.2144 32.1528 44.9761 31.9575 44.8198 31.731C44.6675 31.5044 44.5913 31.2349 44.5913 30.9224C44.5913 30.4028 44.8101 29.9634 45.2476 29.604C45.689 29.2446 46.2515 29.0649 46.9351 29.0649C47.6538 29.0649 48.2358 29.2505 48.6812 29.6216C49.1304 29.9927 49.355 30.4673 49.355 31.0454H48.2651C48.2651 30.7485 48.1382 30.4927 47.8843 30.2778C47.6343 30.063 47.3179 29.9556 46.9351 29.9556C46.5405 29.9556 46.2319 30.0415 46.0093 30.2134C45.7866 30.3853 45.6753 30.6099 45.6753 30.8872C45.6753 31.1489 45.7788 31.3462 45.9858 31.479C46.1929 31.6118 46.5659 31.7388 47.105 31.8599C47.6479 31.981 48.0874 32.1255 48.4233 32.2935C48.7593 32.4614 49.0073 32.6646 49.1675 32.9028C49.3315 33.1372 49.4136 33.4243 49.4136 33.7642C49.4136 34.3306 49.187 34.7856 48.7339 35.1294C48.2808 35.4692 47.6929 35.6392 46.9702 35.6392C46.4624 35.6392 46.0132 35.5493 45.6226 35.3696C45.2319 35.1899 44.9253 34.9399 44.7026 34.6196C44.4839 34.2954 44.3745 33.9458 44.3745 33.5708H45.4585C45.478 33.9341 45.6226 34.2231 45.8921 34.438C46.1655 34.6489 46.5249 34.7544 46.9702 34.7544C47.3804 34.7544 47.7085 34.6724 47.9546 34.5083C48.2046 34.3403 48.3296 34.1177 48.3296 33.8403Z" fill="white"/>
<g filter="url(#filter0_d_12_104)">
<path d="M55.4673 10.2805V51.9351" stroke="white" stroke-opacity="0.85" shape-rendering="crispEdges"/>
</g>
<path d="M99.8328 2.3374C102.085 0.085484 105.859 0.2012 105.859 0.2012C105.859 0.2012 105.974 3.97518 103.722 6.22709C101.471 8.479 97.6966 8.36329 97.6966 8.36329C97.6966 8.36329 97.5808 4.58931 99.8328 2.3374Z" fill="#8C6D1D"/>
<path d="M97.6966 8.36329C97.6966 8.36329 97.5808 4.58931 99.8328 2.3374C102.085 0.085484 105.859 0.2012 105.859 0.2012" fill="#FDC300"/>
<path d="M91.6262 11.4074C91.6262 14.5939 88.8758 17.1751 88.8758 17.1751C88.8758 17.1751 86.1255 14.5939 86.1255 11.4074C86.1255 8.22088 88.8758 5.63965 88.8758 5.63965C88.8758 5.63965 91.6262 8.22088 91.6262 11.4074Z" fill="#8C6D1D"/>
<path d="M88.8848 5.63965C88.8848 5.63965 91.6351 8.22088 91.6351 11.4074C91.6351 14.5939 88.8848 17.1751 88.8848 17.1751" fill="#FDC300"/>
<path d="M96.8511 6.23599C96.8511 9.42249 94.1007 12.0037 94.1007 12.0037C94.1007 12.0037 91.3503 9.42249 91.3503 6.23599C91.3503 3.04949 94.1007 0.468262 94.1007 0.468262C94.1007 0.468262 96.8511 3.04949 96.8511 6.23599Z" fill="#8C6D1D"/>
<path d="M94.1006 0.468262C94.1006 0.468262 96.8509 3.04949 96.8509 6.23599C96.8509 9.42249 94.1006 12.0037 94.1006 12.0037" fill="#FDC300"/>
<path d="M99.913 9.26221C103.1 9.26221 105.681 12.0126 105.681 12.0126C105.681 12.0126 103.1 14.7629 99.913 14.7629C96.7265 14.7629 94.1453 12.0126 94.1453 12.0126C94.1453 12.0126 96.7265 9.26221 99.913 9.26221Z" fill="#8C6D1D"/>
<path d="M94.1453 12.0126C94.1453 12.0126 96.7265 9.26221 99.913 9.26221C103.1 9.26221 105.681 12.0126 105.681 12.0126" fill="#FDC300"/>
<path d="M94.6791 14.4604C97.8656 14.4604 100.447 17.2108 100.447 17.2108C100.447 17.2108 97.8656 19.9612 94.6791 19.9612C91.4926 19.9612 88.9114 17.2108 88.9114 17.2108C88.9114 17.2108 91.4926 14.4604 94.6791 14.4604Z" fill="#8C6D1D"/>
<path d="M88.9026 17.2018C88.9026 17.2018 91.4838 14.4514 94.6703 14.4514C97.8568 14.4514 100.438 17.2018 100.438 17.2018" fill="#FDC300"/>
<path d="M86.4192 16.6056C86.4192 19.7921 83.6688 22.3734 83.6688 22.3734C83.6688 22.3734 80.9185 19.7921 80.9185 16.6056C80.9185 13.4191 83.6688 10.8379 83.6688 10.8379C83.6688 10.8379 86.4192 13.4191 86.4192 16.6056Z" fill="#8C6D1D"/>
<path d="M83.6689 10.8379C83.6689 10.8379 86.4193 13.4191 86.4193 16.6056C86.4193 19.7921 83.6689 22.3734 83.6689 22.3734" fill="#FDC300"/>
<path d="M89.4633 19.6584C92.6498 19.6584 95.231 22.4088 95.231 22.4088C95.231 22.4088 92.6498 25.1592 89.4633 25.1592C86.2768 25.1592 83.6956 22.4088 83.6956 22.4088C83.6956 22.4088 86.2768 19.6584 89.4633 19.6584Z" fill="#8C6D1D"/>
<path d="M83.6956 22.4C83.6956 22.4 86.2768 19.6497 89.4633 19.6497C92.6498 19.6497 95.231 22.4 95.231 22.4" fill="#FDC300"/>
<defs>
<filter id="filter0_d_12_104" x="54.3673" y="9.48052" width="3" height="43.6545" filterUnits="userSpaceOnUse" color-interpolation-filters="sRGB">
<feFlood flood-opacity="0" result="BackgroundImageFix"/>
<feColorMatrix in="SourceAlpha" type="matrix" values="0 0 0 0 0 0 0 0 0 0 0 0 0 0 0 0 0 0 127 0" result="hardAlpha"/>
<feOffset dx="0.4" dy="0.2"/>
<feGaussianBlur stdDeviation="0.5"/>
<feComposite in2="hardAlpha" operator="out"/>
<feColorMatrix type="matrix" values="0 0 0 0 0 0 0 0 0 0 0 0 0 0 0 0 0 0 0.1 0"/>
<feBlend mode="normal" in2="BackgroundImageFix" result="effect1_dropShadow_12_104"/>
<feBlend mode="normal" in="SourceGraphic" in2="effect1_dropShadow_12_104" result="shape"/>
</filter>
</defs>
</svg>
