<?xml version="1.0" encoding="UTF-8"?>
<!-- Generator: Adobe Illustrator 22.1.0, SVG Export Plug-In . SVG Version: 6.00 Build 0)  -->
<svg width="448.64" height="239.48" enable-background="new 0 0 1280 1038.5" version="1.1" viewBox="0 0 448.64 239.48" xml:space="preserve" xmlns="http://www.w3.org/2000/svg" xmlns:cc="http://creativecommons.org/ns#" xmlns:dc="http://purl.org/dc/elements/1.1/" xmlns:rdf="http://www.w3.org/1999/02/22-rdf-syntax-ns#"><metadata><rdf:RDF><cc:Work rdf:about=""><dc:format>image/svg+xml</dc:format><dc:type rdf:resource="http://purl.org/dc/dcmitype/StillImage"/><dc:title/></cc:Work></rdf:RDF></metadata>
<g transform="translate(-415.68 -357.48)" fill="#fff">
	<path d="m619.74 486.08c2.965 0 5.377-2.412 5.377-5.377 0-2.966-2.412-5.378-5.377-5.378s-5.377 2.412-5.377 5.378c0 2.965 2.412 5.377 5.377 5.377z"/>
	<path d="m636.91 480.7c0-2.966-2.413-5.378-5.378-5.378-2.964 0-5.376 2.412-5.376 5.378 0 2.965 2.412 5.377 5.376 5.377 2.966 0 5.378-2.412 5.378-5.377z"/>
	<path d="m643.72 475.33c-2.965 0-5.377 2.412-5.377 5.378 0 2.965 2.413 5.377 5.377 5.377 2.966 0 5.378-2.412 5.378-5.377 0-2.966-2.413-5.378-5.378-5.378z"/>
	<path d="m763.82 463.13c-2.967 0-5.38 2.412-5.38 5.377 0 2.966 2.413 5.379 5.38 5.379 2.965 0 5.377-2.413 5.377-5.379 0-2.965-2.412-5.377-5.377-5.377z"/>
	<path d="m776.02 463.13c-2.965 0-5.377 2.412-5.377 5.377 0 2.966 2.412 5.379 5.377 5.379s5.377-2.413 5.377-5.379c0-2.965-2.413-5.377-5.377-5.377z"/>
	<path d="m787.8 463.13c-2.965 0-5.377 2.412-5.377 5.377 0 2.966 2.412 5.379 5.377 5.379 2.966 0 5.378-2.413 5.378-5.379 0-2.965-2.412-5.377-5.378-5.377z"/>
	<path d="m823.17 463.13c-2.965 0-5.377 2.412-5.377 5.377 0 2.966 2.412 5.379 5.377 5.379 2.966 0 5.379-2.413 5.379-5.379 0-2.965-2.413-5.377-5.379-5.377z"/>
	<path d="m834.96 463.13c-2.964 0-5.376 2.412-5.376 5.377 0 2.966 2.412 5.379 5.376 5.379 2.966 0 5.378-2.413 5.378-5.379 0-2.965-2.412-5.377-5.378-5.377z"/>
	<path d="m834.96 451.34c-2.964 0-5.376 2.413-5.376 5.379 0 2.965 2.412 5.377 5.376 5.377 2.966 0 5.378-2.412 5.378-5.377 0-2.966-2.412-5.379-5.378-5.379z"/>
	<path d="m847.15 463.13c-2.966 0-5.379 2.412-5.379 5.377 0 2.966 2.413 5.379 5.379 5.379 2.965 0 5.377-2.413 5.377-5.379 0-2.965-2.412-5.377-5.377-5.377z"/>
	<path d="m858.94 473.89c2.966 0 5.379-2.413 5.379-5.379 0-2.965-2.413-5.377-5.379-5.377s-5.379 2.412-5.379 5.377c1e-3 2.966 2.414 5.379 5.379 5.379z"/>
	<path d="m763.82 510.69c-2.967 0-5.38 2.413-5.38 5.379 0 2.965 2.413 5.377 5.38 5.377 2.965 0 5.377-2.412 5.377-5.377s-2.412-5.379-5.377-5.379z"/>
	<path d="m776.02 510.69c-2.965 0-5.377 2.413-5.377 5.379 0 2.965 2.412 5.377 5.377 5.377s5.377-2.412 5.377-5.377-2.413-5.379-5.377-5.379z"/>
	<path d="m787.8 510.69c-2.965 0-5.377 2.413-5.377 5.379 0 2.965 2.412 5.377 5.377 5.377 2.966 0 5.378-2.412 5.378-5.377s-2.412-5.379-5.378-5.379z"/>
	<path d="m847.15 510.69c-2.966 0-5.379 2.413-5.379 5.379 0 2.965 2.413 5.377 5.379 5.377 2.965 0 5.377-2.412 5.377-5.377s-2.412-5.379-5.377-5.379z"/>
	<path d="m858.94 510.69c-2.966 0-5.379 2.413-5.379 5.379 0 2.965 2.413 5.377 5.379 5.377s5.379-2.412 5.379-5.377-2.413-5.379-5.379-5.379z"/>
	<path d="m693.09 510.69c-2.967 0-5.38 2.413-5.38 5.379 0 2.965 2.413 5.377 5.38 5.377 2.965 0 5.377-2.412 5.377-5.377s-2.412-5.379-5.377-5.379z"/>
	<path d="m704.88 510.69c-2.965 0-5.377 2.413-5.377 5.379 0 2.965 2.412 5.377 5.377 5.377 2.966 0 5.378-2.412 5.378-5.377s-2.412-5.379-5.378-5.379z"/>
	<path d="m716.67 510.69c-2.965 0-5.377 2.413-5.377 5.379 0 2.965 2.412 5.377 5.377 5.377 2.966 0 5.378-2.412 5.378-5.377s-2.412-5.379-5.378-5.379z"/>
	<path d="m704.88 475.33c-2.965 0-5.377 2.412-5.377 5.378 0 2.965 2.412 5.377 5.377 5.377 2.966 0 5.378-2.412 5.378-5.377 0-2.966-2.412-5.378-5.378-5.378z"/>
	<path d="m716.67 475.33c-2.965 0-5.377 2.412-5.377 5.378 0 2.965 2.412 5.377 5.377 5.377 2.966 0 5.378-2.412 5.378-5.377 0-2.966-2.412-5.378-5.378-5.378z"/>
	<path d="m680.9 439.56c-2.966 0-5.378 2.412-5.378 5.378s2.412 5.378 5.378 5.378 5.379-2.412 5.379-5.378-2.413-5.378-5.379-5.378z"/>
	<path d="m680.9 451.34c-2.966 0-5.378 2.413-5.378 5.379 0 2.965 2.412 5.377 5.378 5.377s5.379-2.412 5.379-5.377c0-2.966-2.413-5.379-5.379-5.379z"/>
	<path d="m680.9 463.13c-2.966 0-5.378 2.412-5.378 5.377 0 2.966 2.412 5.379 5.378 5.379s5.379-2.413 5.379-5.379c0-2.965-2.413-5.377-5.379-5.377z"/>
	<path d="m680.9 475.33c-2.966 0-5.378 2.412-5.378 5.378 0 2.965 2.412 5.377 5.378 5.377s5.379-2.412 5.379-5.377c0-2.966-2.413-5.378-5.379-5.378z"/>
	<path d="m680.9 487.11c-2.966 0-5.378 2.413-5.378 5.379 0 2.965 2.412 5.377 5.378 5.377s5.379-2.412 5.379-5.377c0-2.966-2.413-5.379-5.379-5.379z"/>
	<path d="m680.9 498.9c-2.966 0-5.378 2.412-5.378 5.378s2.412 5.378 5.378 5.378 5.379-2.412 5.379-5.378-2.413-5.378-5.379-5.378z"/>
	<path d="m693.09 475.33c-2.967 0-5.38 2.412-5.38 5.378 0 2.965 2.413 5.377 5.38 5.377 2.965 0 5.377-2.412 5.377-5.377 0-2.966-2.412-5.378-5.377-5.378z"/>
	<path d="m704.88 439.56c-2.965 0-5.377 2.412-5.377 5.378s2.412 5.378 5.377 5.378c2.966 0 5.378-2.412 5.378-5.378s-2.412-5.378-5.378-5.378z"/>
	<path d="m693.09 439.56c-2.967 0-5.38 2.412-5.38 5.378s2.413 5.378 5.38 5.378c2.965 0 5.377-2.412 5.377-5.378s-2.412-5.378-5.377-5.378z"/>
	<path d="m728.46 487.11c-2.964 0-5.376 2.413-5.376 5.379 0 2.965 2.412 5.377 5.376 5.377 2.967 0 5.38-2.412 5.38-5.377 0-2.966-2.413-5.379-5.38-5.379z"/>
	<path d="m728.46 498.9c-2.964 0-5.376 2.412-5.376 5.378s2.412 5.378 5.376 5.378c2.967 0 5.38-2.412 5.38-5.378s-2.413-5.378-5.38-5.378z"/>
	<path d="m716.67 439.56c-2.965 0-5.377 2.412-5.377 5.378s2.412 5.378 5.377 5.378c2.966 0 5.378-2.412 5.378-5.378s-2.412-5.378-5.378-5.378z"/>
	<path d="m728.46 451.34c-2.964 0-5.376 2.413-5.376 5.379 0 2.965 2.412 5.377 5.376 5.377 2.967 0 5.38-2.412 5.38-5.377 0-2.966-2.413-5.379-5.38-5.379z"/>
	<path d="m728.46 463.13c-2.964 0-5.376 2.412-5.376 5.377 0 2.966 2.412 5.379 5.376 5.379 2.967 0 5.38-2.413 5.38-5.379 0-2.965-2.413-5.377-5.38-5.377z"/>
	<path d="m752.04 475.33c-2.966 0-5.379 2.412-5.379 5.378 0 2.965 2.413 5.377 5.379 5.377 2.965 0 5.377-2.412 5.377-5.377 0-2.966-2.412-5.378-5.377-5.378z"/>
	<path d="m752.04 487.11c-2.966 0-5.379 2.413-5.379 5.379 0 2.965 2.413 5.377 5.379 5.377 2.965 0 5.377-2.412 5.377-5.377 0-2.966-2.412-5.379-5.377-5.379z"/>
	<path d="m752.04 498.9c-2.966 0-5.379 2.412-5.379 5.378s2.413 5.378 5.379 5.378c2.965 0 5.377-2.412 5.377-5.378s-2.412-5.378-5.377-5.378z"/>
	<path d="m799.59 475.33c-2.965 0-5.377 2.412-5.377 5.378 0 2.965 2.412 5.377 5.377 5.377 2.966 0 5.379-2.412 5.379-5.377 0-2.966-2.413-5.378-5.379-5.378z"/>
	<path d="m799.59 487.11c-2.965 0-5.377 2.413-5.377 5.379 0 2.965 2.412 5.377 5.377 5.377 2.966 0 5.379-2.412 5.379-5.377 0-2.966-2.413-5.379-5.379-5.379z"/>
	<path d="m799.59 498.9c-2.965 0-5.377 2.412-5.377 5.378s2.412 5.378 5.377 5.378c2.966 0 5.379-2.412 5.379-5.378s-2.413-5.378-5.379-5.378z"/>
	<path d="m834.96 475.33c-2.964 0-5.376 2.412-5.376 5.378 0 2.965 2.412 5.377 5.376 5.377 2.966 0 5.378-2.412 5.378-5.377 0-2.966-2.412-5.378-5.378-5.378z"/>
	<path d="m834.96 487.11c-2.964 0-5.376 2.413-5.376 5.379 0 2.965 2.412 5.377 5.376 5.377 2.966 0 5.378-2.412 5.378-5.377 0-2.966-2.412-5.379-5.378-5.379z"/>
	<path d="m834.96 498.9c-2.964 0-5.376 2.412-5.376 5.378s2.412 5.378 5.376 5.378c2.966 0 5.378-2.412 5.378-5.378s-2.412-5.378-5.378-5.378z"/>
	<path d="m680.9 510.69c-2.966 0-5.378 2.413-5.378 5.379 0 2.965 2.412 5.377 5.378 5.377s5.379-2.412 5.379-5.377-2.413-5.379-5.379-5.379z"/>
	<path d="m554.05 523.15c-3.278 0-5.945 2.668-5.945 5.946s2.667 5.946 5.945 5.946c3.279 0 5.947-2.668 5.947-5.946s-2.667-5.946-5.947-5.946z"/>
	<path d="m603.35 571.6c-3.278 0-5.945 2.667-5.945 5.944 0 3.279 2.667 5.947 5.945 5.947 3.279 0 5.946-2.668 5.946-5.947 0-3.277-2.667-5.944-5.946-5.944z"/>
	<path d="m634.02 571.6c-3.277 0-5.944 2.667-5.944 5.944 0 3.279 2.667 5.947 5.944 5.947 3.279 0 5.947-2.668 5.947-5.947 0-3.277-2.668-5.944-5.947-5.944z"/>
	<path d="m618.33 529.39c0 1.224 0.996 2.22 2.219 2.22 1.224 0 2.22-0.996 2.22-2.22s-0.996-2.22-2.22-2.22-2.219 0.996-2.219 2.22z"/>
	<path d="m637.75 544.36c-1.225 0-2.221 0.996-2.221 2.221s0.996 2.221 2.221 2.221c1.224 0 2.219-0.996 2.219-2.221s-0.995-2.221-2.219-2.221z"/>
	<path d="m537.43 507.96c-2.489 0-4.513 2.024-4.513 4.512s2.024 4.513 4.513 4.513c2.488 0 4.513-2.024 4.513-4.513 0-2.488-2.024-4.512-4.513-4.512z"/>
	<path d="m570.68 508.32c-2.764 0-5.013 2.249-5.013 5.013 0 2.765 2.249 5.014 5.013 5.014s5.013-2.249 5.013-5.014c0-2.764-2.249-5.013-5.013-5.013z"/>
	<path d="m586.73 525.16c-2.488 0-4.512 2.025-4.512 4.515 0 2.487 2.024 4.512 4.512 4.512 2.489 0 4.513-2.024 4.513-4.512 0-2.489-2.025-4.515-4.513-4.515z"/>
	<path d="m587.59 492.2c-2.488 0-4.512 2.024-4.512 4.513s2.024 4.513 4.512 4.513c2.489 0 4.514-2.024 4.514-4.513s-2.024-4.513-4.514-4.513z"/>
	<path d="m603.64 508.25c-2.488 0-4.513 2.024-4.513 4.513s2.024 4.513 4.513 4.513 4.513-2.024 4.513-4.513-2.024-4.513-4.513-4.513z"/>
	<path d="m599.7 546.58c0 2.33 1.896 4.226 4.226 4.226 2.331 0 4.227-1.896 4.227-4.226s-1.896-4.226-4.227-4.226c-2.33 0-4.226 1.896-4.226 4.226z"/>
	<path d="m617.4 587.93c-2.33 0-4.226 1.896-4.226 4.227s1.896 4.226 4.226 4.226c2.331 0 4.227-1.896 4.227-4.226s-1.896-4.227-4.227-4.227z"/>
	<circle cx="621.12" cy="563.78" r="4.227"/>
	<path d="m559.06 495.28c0-3.554-2.891-6.445-6.445-6.445-3.555 0-6.446 2.892-6.446 6.445 0 3.555 2.892 6.446 6.446 6.446 3.554 1e-3 6.445-2.891 6.445-6.446z"/>
	<path d="m586.44 554.97c-3.278 0-5.945 2.668-5.945 5.946s2.667 5.946 5.945 5.946c3.279 0 5.946-2.668 5.946-5.946s-2.667-5.946-5.946-5.946z"/>
	<path d="m570.39 473.57c-3.279 0-5.946 2.667-5.946 5.945s2.667 5.945 5.946 5.945c3.278 0 5.945-2.667 5.945-5.945s-2.667-5.945-5.945-5.945z"/>
	<path d="m469.78 505.1c-3.279 0-5.946 2.668-5.946 5.946s2.667 5.945 5.946 5.945 5.946-2.667 5.946-5.945-2.667-5.946-5.946-5.946z"/>
	<path d="m486.4 521.72c-3.278 0-5.945 2.668-5.945 5.946 0 3.279 2.667 5.947 5.945 5.947 3.279 0 5.946-2.668 5.946-5.947 0-3.278-2.667-5.946-5.946-5.946z"/>
	<path d="m469.21 571.6c-3.279 0-5.946 2.667-5.946 5.944 0 3.279 2.667 5.947 5.946 5.947 3.278 0 5.945-2.668 5.945-5.947 0-3.277-2.667-5.944-5.945-5.944z"/>
	<path d="m421.63 554.97c-3.279 0-5.946 2.668-5.946 5.946s2.667 5.946 5.946 5.946c3.278 0 5.945-2.668 5.945-5.946s-2.667-5.946-5.945-5.946z"/>
	<circle cx="452.01" cy="594.74" r="2.22"/>
	<path d="m486.4 498.93c2.489 0 4.514-2.024 4.514-4.512 0-2.489-2.025-4.515-4.514-4.515-2.488 0-4.512 2.025-4.512 4.515 0 2.487 2.024 4.512 4.512 4.512z"/>
	<path d="m469.21 548.52c2.488 0 4.512-2.024 4.512-4.513s-2.024-4.514-4.512-4.514c-2.489 0-4.514 2.024-4.514 4.514 0 2.488 2.025 4.513 4.514 4.513z"/>
	<path d="m502.17 540.07c-2.489 0-4.513 2.024-4.513 4.513 0 2.487 2.024 4.512 4.513 4.512s4.513-2.024 4.513-4.512c1e-3 -2.488-2.024-4.513-4.513-4.513z"/>
	<path d="m486.12 556.4c-2.489 0-4.513 2.024-4.513 4.512 0 2.489 2.024 4.515 4.513 4.515 2.488 0 4.513-2.025 4.513-4.515-1e-3 -2.487-2.025-4.512-4.513-4.512z"/>
	<path d="m452.01 556.69c-2.33 0-4.226 1.896-4.226 4.226s1.896 4.227 4.226 4.227c2.331 0 4.227-1.896 4.227-4.227s-1.897-4.226-4.227-4.226z"/>
	<path d="m434.81 573.89c-2.331 0-4.227 1.896-4.227 4.227s1.896 4.226 4.227 4.226 4.227-1.896 4.227-4.226-1.896-4.227-4.227-4.227z"/>
	<path d="m503.6 503.16c-3.555 0-6.447 2.892-6.447 6.445 0 3.555 2.892 6.446 6.447 6.446s6.446-2.892 6.446-6.446c0-3.553-2.891-6.445-6.446-6.445z"/>
	<path d="m519.37 521.72c-3.279 0-5.946 2.668-5.946 5.946 0 3.279 2.667 5.947 5.946 5.947s5.946-2.668 5.946-5.947c0-3.278-2.667-5.946-5.946-5.946z"/>
	<path d="m485.54 398.32c3.279 0 5.946-2.668 5.946-5.946s-2.667-5.945-5.946-5.945c-3.278 0-5.945 2.667-5.945 5.945s2.667 5.946 5.945 5.946z"/>
	<path d="m467.77 447.05c3.279 0 5.946-2.668 5.946-5.946s-2.667-5.946-5.946-5.946c-3.278 0-5.945 2.668-5.945 5.946s2.667 5.946 5.945 5.946z"/>
	<path d="m435.1 401.91c-3.278 0-5.945 2.668-5.945 5.946s2.667 5.945 5.945 5.945c3.279 0 5.946-2.667 5.946-5.945s-2.667-5.946-5.946-5.946z"/>
	<path d="m518.51 431.29c3.278 0 5.945-2.668 5.945-5.946s-2.667-5.946-5.945-5.946c-3.279 0-5.946 2.668-5.946 5.946s2.667 5.946 5.946 5.946z"/>
	<path d="m519.66 487.11c-3.555 0-6.446 2.892-6.446 6.445s2.892 6.445 6.446 6.445 6.445-2.892 6.445-6.445-2.891-6.445-6.445-6.445z"/>
	<path d="m536.57 471.35c-3.554 0-6.445 2.892-6.445 6.446s2.891 6.445 6.445 6.445c3.555 0 6.446-2.892 6.446-6.445 1e-3 -3.555-2.891-6.446-6.446-6.446z"/>
	<path d="m552.62 466.47c3.554 0 6.445-2.892 6.445-6.446s-2.891-6.445-6.445-6.445c-3.555 0-6.446 2.892-6.446 6.445 0 3.554 2.891 6.446 6.446 6.446z"/>
	<path d="m467.77 380.55c3.279 0 5.946-2.668 5.946-5.946s-2.667-5.945-5.946-5.945c-3.278 0-5.945 2.667-5.945 5.945s2.667 5.946 5.945 5.946z"/>
	<path d="m452.3 422.83c-1.224 0-2.22 0.996-2.22 2.22s0.996 2.219 2.22 2.219 2.22-0.995 2.22-2.219-0.995-2.22-2.22-2.22z"/>
	<path d="m535.13 446.76c2.489 0 4.513-2.024 4.513-4.513s-2.024-4.514-4.513-4.514c-2.488 0-4.512 2.024-4.512 4.514 0 2.488 2.024 4.513 4.512 4.513z"/>
	<path d="m501.88 446.12c2.764 0 5.012-2.249 5.012-5.013 0-2.765-2.248-5.014-5.012-5.014-2.765 0-5.014 2.249-5.014 5.014 0 2.764 2.25 5.013 5.014 5.013z"/>
	<path d="m489.48 458.02c0-2.488-2.024-4.513-4.512-4.513-2.489 0-4.513 2.024-4.513 4.513 0 2.487 2.024 4.512 4.513 4.512 2.488-1e-3 4.512-2.025 4.512-4.512z"/>
	<path d="m501.88 413.23c2.488 0 4.512-2.024 4.512-4.513s-2.024-4.514-4.512-4.514c-2.489 0-4.514 2.024-4.514 4.514 0 2.488 2.025 4.513 4.514 4.513z"/>
	<path d="m468.63 403.63c-2.331 0-4.227 1.896-4.227 4.227s1.896 4.226 4.227 4.226c2.33 0 4.226-1.896 4.226-4.226s-1.896-4.227-4.226-4.227z"/>
	<path d="m455.16 358.34c-2.331 0-4.227 1.896-4.227 4.227 0 2.33 1.896 4.227 4.227 4.227 2.33 0 4.226-1.896 4.226-4.227s-1.896-4.227-4.226-4.227z"/>
	<path d="m451.44 394.88c2.331 0 4.227-1.896 4.227-4.227s-1.896-4.226-4.227-4.226-4.227 1.896-4.227 4.226 1.896 4.227 4.227 4.227z"/>
	<path d="m520.23 452.72c-3.555 0-6.446 2.892-6.446 6.445 0 3.555 2.892 6.446 6.446 6.446s6.447-2.892 6.447-6.446-2.892-6.445-6.447-6.445z"/>
	<path d="m502.17 481.16c3.278 0 5.945-2.667 5.945-5.945s-2.667-5.946-5.945-5.946c-3.279 0-5.946 2.668-5.946 5.946s2.668 5.945 5.946 5.945z"/>
	<path d="m636.03 416.38c3.279 0 5.946-2.668 5.946-5.946s-2.667-5.946-5.946-5.946c-3.278 0-5.945 2.668-5.945 5.946s2.667 5.946 5.945 5.946z"/>
	<path d="m587.3 386.72c-3.279 0-5.946 2.668-5.946 5.946s2.667 5.946 5.946 5.946c3.278 0 5.945-2.668 5.945-5.946s-2.666-5.946-5.945-5.946z"/>
	<path d="m602.21 448.2c3.278 0 5.945-2.667 5.945-5.945s-2.667-5.946-5.945-5.946c-3.279 0-5.946 2.668-5.946 5.946s2.667 5.945 5.946 5.945z"/>
	<circle cx="653.8" cy="392.66" r="5.946"/>
	<path d="m603.35 379.12c1.225 0 2.221-0.996 2.221-2.22s-0.996-2.219-2.221-2.219c-1.224 0-2.22 0.995-2.22 2.219s0.996 2.22 2.22 2.22z"/>
	<path d="m620.55 361.92c1.224 0 2.22-0.996 2.22-2.221 0-1.223-0.996-2.218-2.22-2.218s-2.219 0.995-2.219 2.218c0 1.225 0.995 2.221 2.219 2.221z"/>
	<path d="m586.44 464.54c2.488 0 4.513-2.024 4.513-4.514 0-2.488-2.024-4.513-4.513-4.513s-4.513 2.024-4.513 4.513c0 2.49 2.025 4.514 4.513 4.514z"/>
	<path d="m587.3 431.29c2.489 0 4.513-2.025 4.513-4.515 0-2.487-2.024-4.512-4.513-4.512s-4.513 2.024-4.513 4.512c0 2.49 2.025 4.515 4.513 4.515z"/>
	<path d="m603.35 415.23c2.489 0 4.514-2.024 4.514-4.514 0-2.488-2.025-4.513-4.514-4.513-2.488 0-4.512 2.024-4.512 4.513 0 2.49 2.024 4.514 4.512 4.514z"/>
	<path d="m570.39 414.37c2.488 0 4.512-2.024 4.512-4.513s-2.024-4.513-4.512-4.513c-2.489 0-4.514 2.024-4.514 4.513s2.024 4.513 4.514 4.513z"/>
	<path d="m619.69 431.29c2.489 0 4.513-2.025 4.513-4.515 0-2.487-2.024-4.512-4.513-4.512-2.488 0-4.512 2.024-4.512 4.512 0 2.49 2.024 4.515 4.512 4.515z"/>
	<path d="m665.84 375.82c-2.33 0-4.226 1.896-4.226 4.226s1.896 4.227 4.226 4.227 4.226-1.896 4.226-4.227-1.896-4.226-4.226-4.226z"/>
	<path d="m637.75 380.55c2.33 0 4.226-1.896 4.226-4.226s-1.896-4.226-4.226-4.226c-2.332 0-4.228 1.896-4.228 4.226s1.897 4.226 4.228 4.226z"/>
	<path d="m569.24 451.28c3.555 0 6.446-2.892 6.446-6.445 0-3.555-2.892-6.446-6.446-6.446s-6.447 2.892-6.447 6.446 2.892 6.445 6.447 6.445z"/>
	<path d="m553.19 433.01c3.279 0 5.947-2.668 5.947-5.946s-2.667-5.946-5.947-5.946c-3.278 0-5.945 2.668-5.945 5.946s2.667 5.946 5.945 5.946z"/>
</g>
</svg>
