<?xml version="1.0" encoding="UTF-8"?>
<svg enable-background="new 0 0 1280 1038.5" version="1.1" viewBox="0 0 447.64 238.48" xml:space="preserve" xmlns="http://www.w3.org/2000/svg"><g transform="translate(-416.18 -357.98)"><g fill="#fff"><circle cx="619.74" cy="480.7" r="4.877"/><circle cx="631.53" cy="480.7" r="4.877"/><circle cx="643.72" cy="480.7" r="4.877"/><circle cx="763.82" cy="468.51" r="4.878"/><circle cx="776.02" cy="468.51" r="4.878"/><circle cx="787.8" cy="468.51" r="4.878"/><circle cx="823.17" cy="468.51" r="4.878"/><circle cx="834.96" cy="468.51" r="4.878"/><circle cx="834.96" cy="456.72" r="4.878"/><circle cx="847.15" cy="468.51" r="4.878"/><circle cx="858.94" cy="468.51" r="4.878"/><circle cx="763.82" cy="516.07" r="4.878"/><circle cx="776.02" cy="516.07" r="4.878"/><circle cx="787.8" cy="516.07" r="4.878"/><circle cx="847.15" cy="516.07" r="4.878"/><circle cx="858.94" cy="516.07" r="4.878"/><circle cx="693.09" cy="516.07" r="4.878"/><circle cx="704.88" cy="516.07" r="4.878"/><circle cx="716.67" cy="516.07" r="4.878"/><circle cx="704.88" cy="480.7" r="4.877"/><circle cx="716.67" cy="480.7" r="4.877"/><circle cx="680.9" cy="444.93" r="4.878"/><circle cx="680.9" cy="456.72" r="4.878"/><circle cx="680.9" cy="468.51" r="4.878"/><circle cx="680.9" cy="480.7" r="4.877"/><circle cx="680.9" cy="492.49" r="4.878"/><circle cx="680.9" cy="504.28" r="4.878"/><circle cx="693.09" cy="480.7" r="4.877"/><circle cx="704.88" cy="444.93" r="4.878"/><circle cx="693.09" cy="444.93" r="4.878"/><path d="m728.46 487.61c2.694 0 4.88 2.185 4.88 4.879 0 2.691-2.186 4.877-4.88 4.877-2.691 0-4.876-2.186-4.876-4.877 0-2.694 2.185-4.879 4.876-4.879z"/><path d="m728.46 499.4c2.694 0 4.88 2.185 4.88 4.878 0 2.695-2.186 4.878-4.88 4.878-2.691 0-4.876-2.183-4.876-4.878 0-2.693 2.185-4.878 4.876-4.878z"/><circle cx="716.67" cy="444.93" r="4.878"/><path d="m728.46 451.84c2.694 0 4.88 2.184 4.88 4.879 0 2.694-2.186 4.877-4.88 4.877-2.691 0-4.876-2.183-4.876-4.877 0-2.696 2.185-4.879 4.876-4.879z"/><path d="m728.46 463.63c2.694 0 4.88 2.183 4.88 4.877s-2.186 4.879-4.88 4.879c-2.691 0-4.876-2.185-4.876-4.879s2.185-4.877 4.876-4.877z"/><circle cx="752.03" cy="480.7" r="4.877"/><circle cx="752.03" cy="492.49" r="4.878"/><circle cx="752.03" cy="504.28" r="4.878"/><circle cx="799.59" cy="480.7" r="4.877"/><circle cx="799.59" cy="492.49" r="4.878"/><circle cx="799.59" cy="504.28" r="4.878"/><circle cx="834.96" cy="480.7" r="4.877"/><circle cx="834.96" cy="492.49" r="4.878"/><circle cx="834.96" cy="504.28" r="4.878"/><circle cx="680.9" cy="516.07" r="4.878"/></g><g fill="#f7b030"><circle cx="554.05" cy="529.1" r="5.446"/><circle cx="603.35" cy="577.54" r="5.446"/><circle cx="634.02" cy="577.54" r="5.446"/><circle cx="620.55" cy="529.39" r="1.72" enable-background="new    " opacity=".49"/><circle cx="637.75" cy="546.59" r="1.721" enable-background="new    " opacity=".49"/><circle cx="537.43" cy="512.48" r="4.012"/></g><circle cx="570.68" cy="513.34" r="4.013" fill="#fff" stroke="#fff" stroke-miterlimit="10" stroke-width="2"/><g fill="#f7b030"><circle cx="586.73" cy="529.67" r="4.013" enable-background="new    " opacity=".6"/><circle cx="587.59" cy="496.71" r="4.013" enable-background="new    " opacity=".6"/><circle cx="603.64" cy="512.76" r="4.013" enable-background="new    " opacity=".6"/><circle cx="603.92" cy="546.59" r="3.726"/><circle cx="617.4" cy="592.16" r="3.726" enable-background="new    " opacity=".49"/><circle cx="621.12" cy="563.78" r="3.727" enable-background="new    " opacity=".49"/></g><circle cx="552.62" cy="495.28" r="5.446" fill="#fff" stroke="#fff" stroke-miterlimit="10" stroke-width="2"/><g fill="#f7b030"><circle cx="586.44" cy="560.92" r="5.446" enable-background="new    " opacity=".6"/><circle cx="570.39" cy="479.51" r="5.445" enable-background="new    " opacity=".6"/><circle cx="469.78" cy="511.04" r="5.446"/><circle cx="486.4" cy="527.67" r="5.447"/><circle cx="469.21" cy="577.54" r="5.446"/><circle cx="421.63" cy="560.92" r="5.446"/><circle cx="469.21" cy="577.54" r="1.72" enable-background="new    " opacity=".49"/><circle cx="452.01" cy="594.74" r="1.72" enable-background="new    " opacity=".49"/><circle cx="486.4" cy="494.42" r="4.013"/><circle cx="469.21" cy="544" r="4.013" enable-background="new    " opacity=".6"/><circle cx="502.17" cy="544.58" r="4.012" enable-background="new    " opacity=".6"/><circle cx="486.12" cy="560.92" r="4.013" enable-background="new    " opacity=".6"/><circle cx="452.01" cy="560.92" r="3.726"/><circle cx="434.81" cy="578.11" r="3.726" enable-background="new    " opacity=".49"/></g><circle cx="503.6" cy="509.61" r="5.446" fill="#fff" stroke="#fff" stroke-miterlimit="10" stroke-width="2"/><g fill="#f7b030"><circle cx="519.37" cy="527.67" r="5.447" enable-background="new    " opacity=".6"/><circle cx="485.55" cy="392.38" r="5.446"/><circle cx="467.77" cy="441.1" r="5.446"/><circle cx="435.1" cy="407.86" r="5.446"/><circle cx="518.51" cy="425.34" r="5.446"/></g><g fill="#fff" stroke="#fff" stroke-miterlimit="10" stroke-width="2"><circle cx="519.66" cy="493.56" r="5.445"/><circle cx="536.57" cy="477.79" r="5.446"/><circle cx="552.62" cy="460.02" r="5.446"/></g><g fill="#f7b030"><circle cx="467.77" cy="374.61" r="5.446" enable-background="new    " opacity=".6"/><circle cx="452.3" cy="425.05" r="1.719" enable-background="new    " opacity=".49"/><circle cx="435.1" cy="407.86" r="1.72" enable-background="new    " opacity=".49"/><circle cx="535.13" cy="442.25" r="4.013"/></g><circle cx="501.88" cy="441.1" r="4.013" fill="#fff" stroke="#fff" stroke-miterlimit="10" stroke-width="2"/><g fill="#f7b030"><circle cx="484.97" cy="458.02" r="4.012" enable-background="new    " opacity=".6"/><circle cx="501.88" cy="408.71" r="4.013" enable-background="new    " opacity=".6"/><circle cx="468.63" cy="407.86" r="3.726"/><circle cx="455.16" cy="362.57" r="3.727" enable-background="new    " opacity=".49"/><circle cx="451.44" cy="390.66" r="3.726" enable-background="new    " opacity=".49"/></g><circle cx="520.23" cy="459.16" r="5.446" fill="#fff" stroke="#fff" stroke-miterlimit="10" stroke-width="2"/><g fill="#f7b030"><circle cx="502.17" cy="475.21" r="5.446" enable-background="new    " opacity=".6"/><circle cx="636.03" cy="410.44" r="5.446"/><circle cx="587.3" cy="392.66" r="5.446"/><circle cx="602.21" cy="442.25" r="5.446"/><circle cx="653.8" cy="392.66" r="5.446" enable-background="new    " opacity=".6"/><circle cx="603.35" cy="376.9" r="1.719" enable-background="new    " opacity=".49"/><circle cx="620.55" cy="359.7" r="1.72" enable-background="new    " opacity=".49"/><circle cx="586.44" cy="460.02" r="4.013"/><circle cx="587.3" cy="426.77" r="4.013" enable-background="new    " opacity=".6"/><circle cx="603.35" cy="410.72" r="4.013" enable-background="new    " opacity=".6"/><circle cx="570.39" cy="409.86" r="4.013" enable-background="new    " opacity=".6"/><circle cx="619.69" cy="426.77" r="4.013" enable-background="new    " opacity=".6"/><circle cx="665.84" cy="380.05" r="3.726" enable-background="new    " opacity=".49"/><circle cx="637.75" cy="376.33" r="3.726" enable-background="new    " opacity=".49"/></g><circle cx="569.24" cy="444.83" r="5.446" fill="#fff" stroke="#fff" stroke-miterlimit="10" stroke-width="2"/><circle cx="553.19" cy="427.06" r="5.446" enable-background="new    " fill="#f7b030" opacity=".6"/></g></svg>
