<?xml version="1.0" encoding="UTF-8"?>
<svg enable-background="new 0 0 841.89 595.275" version="1.1" viewBox="0 0 175.13 93.303" xml:space="preserve" xmlns="http://www.w3.org/2000/svg"><g transform="translate(-338.55 -345.64)"><g fill="#f9b233"><circle cx="418.19" cy="393.65" r="1.908"/><circle cx="422.81" cy="393.65" r="1.908"/><circle cx="427.58" cy="393.65" r="1.908"/><circle cx="474.56" cy="388.88" r="1.908"/><circle cx="479.33" cy="388.88" r="1.908"/><circle cx="483.95" cy="388.88" r="1.908"/><circle cx="497.78" cy="388.88" r="1.908"/><circle cx="502.39" cy="388.88" r="1.908"/><circle cx="502.39" cy="384.27" r="1.909"/><circle cx="507.17" cy="388.88" r="1.908"/><circle cx="511.78" cy="388.88" r="1.908"/><circle cx="474.56" cy="407.49" r="1.909"/><circle cx="479.33" cy="407.49" r="1.909"/><circle cx="483.95" cy="407.49" r="1.909"/><circle cx="507.17" cy="407.49" r="1.909"/><circle cx="511.78" cy="407.49" r="1.909"/><circle cx="446.89" cy="407.49" r="1.909"/><circle cx="451.5" cy="407.49" r="1.909"/><circle cx="456.12" cy="407.49" r="1.909"/><circle cx="451.5" cy="393.65" r="1.908"/><circle cx="456.12" cy="393.65" r="1.908"/><circle cx="442.12" cy="379.66" r="1.908"/><circle cx="442.12" cy="384.27" r="1.909"/><circle cx="442.12" cy="388.88" r="1.908"/><circle cx="442.12" cy="393.65" r="1.908"/><circle cx="442.12" cy="398.27" r="1.908"/><circle cx="442.12" cy="402.88" r="1.908"/><circle cx="446.89" cy="393.65" r="1.908"/><circle cx="451.5" cy="379.66" r="1.908"/><circle cx="446.89" cy="379.66" r="1.908"/><circle cx="460.73" cy="398.27" r="1.908"/><circle cx="460.73" cy="402.88" r="1.908"/><circle cx="456.12" cy="379.66" r="1.908"/><circle cx="460.73" cy="384.27" r="1.909"/><circle cx="460.73" cy="388.88" r="1.908"/><circle cx="469.95" cy="393.65" r="1.908"/><circle cx="469.95" cy="398.27" r="1.908"/><circle cx="469.95" cy="402.88" r="1.908"/><circle cx="488.56" cy="393.65" r="1.908"/><circle cx="488.56" cy="398.27" r="1.908"/><circle cx="488.56" cy="402.88" r="1.908"/><circle cx="502.39" cy="393.65" r="1.908"/><circle cx="502.39" cy="398.27" r="1.908"/><circle cx="502.39" cy="402.88" r="1.908"/><circle cx="442.12" cy="407.49" r="1.909"/></g><g fill="#5d477a"><circle cx="392.49" cy="412.59" r="2.131"/><circle cx="411.78" cy="431.54" r="2.13"/><circle cx="423.78" cy="431.54" r="2.13"/><circle cx="418.51" cy="412.7" r=".673" enable-background="new    " opacity=".49"/><circle cx="425.24" cy="419.43" r=".673" enable-background="new    " opacity=".49"/><circle cx="385.99" cy="406.08" r="1.57"/><circle cx="405.28" cy="412.81" r="1.57" enable-background="new    " opacity=".6"/><circle cx="405.61" cy="399.92" r="1.57" enable-background="new    " opacity=".6"/><circle cx="411.89" cy="406.2" r="1.57" enable-background="new    " opacity=".6"/><circle cx="412.01" cy="419.43" r="1.458"/><circle cx="417.28" cy="437.26" r="1.458" enable-background="new    " opacity=".49"/><circle cx="418.73" cy="426.16" r="1.458" enable-background="new    " opacity=".49"/><circle cx="405.17" cy="425.04" r="2.131" enable-background="new    " opacity=".6"/><circle cx="398.89" cy="393.19" r="2.13" enable-background="new    " opacity=".6"/><circle cx="359.52" cy="405.52" r="2.13"/><circle cx="366.03" cy="412.03" r="2.131"/><circle cx="359.3" cy="431.54" r="2.13"/><circle cx="340.68" cy="425.04" r="2.131"/><circle cx="359.3" cy="431.54" r=".673" enable-background="new    " opacity=".49"/><circle cx="352.57" cy="438.27" r=".673" enable-background="new    " opacity=".49"/><circle cx="366.03" cy="399.02" r="1.57"/><circle cx="359.3" cy="418.42" r="1.57" enable-background="new    " opacity=".6"/><circle cx="372.2" cy="418.64" r="1.569" enable-background="new    " opacity=".6"/><circle cx="365.92" cy="425.04" r="1.57" enable-background="new    " opacity=".6"/><circle cx="352.57" cy="425.04" r="1.458"/><circle cx="345.84" cy="431.76" r="1.458" enable-background="new    " opacity=".49"/><circle cx="378.92" cy="412.03" r="2.131" enable-background="new    " opacity=".6"/><circle cx="365.69" cy="359.1" r="2.13"/><circle cx="358.74" cy="378.16" r="2.131"/><circle cx="345.95" cy="365.15" r="2.131"/><circle cx="378.59" cy="371.99" r="2.13"/><circle cx="358.74" cy="352.14" r="2.13" enable-background="new    " opacity=".6"/><circle cx="352.68" cy="371.88" r=".673" enable-background="new    " opacity=".49"/><circle cx="345.95" cy="365.15" r=".673" enable-background="new    " opacity=".49"/><circle cx="385.09" cy="378.61" r="1.57"/><circle cx="365.47" cy="384.78" r="1.569" enable-background="new    " opacity=".6"/><circle cx="372.08" cy="365.49" r="1.57" enable-background="new    " opacity=".6"/><circle cx="359.08" cy="365.15" r="1.458"/><circle cx="353.8" cy="347.43" r="1.458" enable-background="new    " opacity=".49"/><circle cx="352.35" cy="358.42" r="1.458" enable-background="new    " opacity=".49"/><circle cx="399" cy="406.42" r="1.961"/><circle cx="391.93" cy="399.36" r="2.521"/><circle cx="372.76" cy="404.96" r="2.522"/><path d="m379.04 396.16c-1.391 0-2.522 1.132-2.522 2.521 0 1.391 1.131 2.521 2.522 2.521s2.521-1.131 2.521-2.521c1e-3 -1.389-1.13-2.521-2.521-2.521z"/><path d="m385.65 389.99c-1.39 0-2.521 1.131-2.521 2.522 0 1.39 1.131 2.521 2.521 2.521 1.391 0 2.522-1.132 2.522-2.521 0-1.391-1.131-2.522-2.522-2.522z"/><path d="m391.93 383.04c-1.391 0-2.522 1.132-2.522 2.521 0 1.391 1.131 2.522 2.522 2.522s2.521-1.132 2.521-2.522c1e-3 -1.389-1.13-2.521-2.521-2.521z"/><circle cx="372.08" cy="378.16" r="1.961"/><path d="m379.26 382.7c-1.391 0-2.522 1.132-2.522 2.521 0 1.392 1.131 2.522 2.522 2.522s2.522-1.131 2.522-2.522c0-1.389-1.132-2.521-2.522-2.521z"/><circle cx="372.2" cy="391.5" r="2.13" enable-background="new    " opacity=".6"/><circle cx="424.56" cy="366.16" r="2.13"/><circle cx="405.5" cy="359.21" r="2.131"/><circle cx="411.33" cy="378.61" r="2.13"/><circle cx="431.52" cy="359.21" r="2.131" enable-background="new    " opacity=".6"/><circle cx="411.78" cy="353.04" r=".672" enable-background="new    " opacity=".49"/><circle cx="418.51" cy="346.31" r=".673" enable-background="new    " opacity=".49"/><circle cx="405.17" cy="385.56" r="1.57"/><circle cx="405.5" cy="372.55" r="1.57" enable-background="new    " opacity=".6"/><circle cx="411.78" cy="366.27" r="1.57" enable-background="new    " opacity=".6"/><circle cx="398.89" cy="365.94" r="1.57" enable-background="new    " opacity=".6"/><circle cx="418.17" cy="372.55" r="1.57" enable-background="new    " opacity=".6"/><circle cx="436.23" cy="354.27" r="1.458" enable-background="new    " opacity=".49"/><circle cx="425.24" cy="352.82" r="1.457" enable-background="new    " opacity=".49"/><path d="m398.44 377.1c-1.391 0-2.522 1.132-2.522 2.522s1.131 2.521 2.522 2.521 2.522-1.132 2.522-2.521c0-1.39-1.131-2.522-2.522-2.522z"/><circle cx="392.16" cy="372.67" r="2.131" enable-background="new    " opacity=".6"/></g></g></svg>
