<svg width="154" height="37" viewBox="0 0 154 37" fill="none" xmlns="http://www.w3.org/2000/svg">
<path d="M56.5793 19.0528V19.0118C56.5793 14.8858 59.9173 11.5388 64.3653 11.5388C68.8143 11.5388 72.1103 14.8448 72.1103 18.9718V19.0118C72.1103 23.1388 68.7733 26.4858 64.3243 26.4858C59.8753 26.4858 56.5793 23.1798 56.5793 19.0528ZM68.0313 19.0528V19.0118C68.0313 16.9388 66.5283 15.1318 64.3243 15.1318C62.1413 15.1318 60.6783 16.8968 60.6783 18.9718V19.0118C60.6783 21.0858 62.1823 22.8918 64.3653 22.8918C66.5703 22.8918 68.0313 21.1268 68.0313 19.0528Z" fill="#5B467A"/>
<path d="M46.9794 18.6018L42.2414 11.5388H46.8354L49.3894 15.5838L51.9634 11.5388H56.4534L51.7174 18.5598L56.6594 25.9108H52.0674L49.3074 21.5788L46.5254 25.9108H42.0354L46.9794 18.6018Z" fill="#5B467A"/>
<path d="M74.1934 11.8259H78.1894V22.7089H85.1734V26.1979H74.1934V11.8259Z" fill="#5B467A"/>
<path d="M86.2864 19.8949V11.8259H90.3444V19.8129C90.3444 21.8859 91.3954 22.8729 93.0014 22.8729C94.6084 22.8729 95.6584 21.9289 95.6584 19.9159V11.8269H99.7164V19.7929C99.7164 24.4339 97.0604 26.4659 92.9604 26.4659C88.8604 26.4659 86.2864 24.3909 86.2864 19.8949Z" fill="#5B467A"/>
<path d="M105.609 15.3169H101.283V11.8259H113.93V15.3169H109.605V26.1979H105.609V15.3169Z" fill="#5B467A"/>
<path d="M119.782 11.8259H115.765V26.1979H119.782V11.8259Z" fill="#5B467A"/>
<path d="M121.925 19.0528V19.0118C121.925 14.8858 125.262 11.5388 129.711 11.5388C134.159 11.5388 137.455 14.8448 137.455 18.9718V19.0118C137.455 23.1388 134.117 26.4858 129.67 26.4858C125.22 26.4858 121.925 23.1798 121.925 19.0528ZM133.378 19.0528V19.0118C133.378 16.9388 131.875 15.1318 129.671 15.1318C127.486 15.1318 126.024 16.8968 126.024 18.9718V19.0118C126.024 21.0858 127.528 22.8918 129.712 22.8918C131.915 22.8918 133.378 21.1268 133.378 19.0528Z" fill="#5B467A"/>
<path d="M139.539 11.8259H143.267L149.199 19.4239V11.8259H153.153V26.1979H149.652L143.493 18.3139V26.1979H139.539V11.8259Z" fill="#5B467A"/>
<path d="M7.69136 4.37482H12.1784L20.6674 15.8588L22.8744 12.8878L13.9744 0.84082H0.693359L13.9954 18.9148L6.31136 29.2518H10.7084L18.3754 18.8898L7.69136 4.37482Z" fill="#5B467A"/>
<path d="M33.5824 33.4119H29.0954L20.6064 21.9279L18.3994 24.8989L27.2994 36.9459H40.5804L27.2784 18.8719L34.9624 8.53491H30.5654L22.8984 18.8969L33.5824 33.4119Z" fill="#F8B132"/>
</svg>
