<?xml version="1.0" encoding="utf-8"?>
<!-- Generator: Adobe Illustrator 16.0.0, SVG Export Plug-In . SVG Version: 6.00 Build 0)  -->
<!DOCTYPE svg PUBLIC "-//W3C//DTD SVG 1.1//EN" "http://www.w3.org/Graphics/SVG/1.1/DTD/svg11.dtd">
<svg version="1.1" id="Layer_1" xmlns="http://www.w3.org/2000/svg" xmlns:xlink="http://www.w3.org/1999/xlink" x="0px" y="0px"
	 width="181.204px" height="64.849px" viewBox="0 0 181.204 64.849" enable-background="new 0 0 181.204 64.849"
	 xml:space="preserve">
<polygon fill="#FFFFFF" points="60.658,32.42 55.92,25.357 60.514,25.357 63.068,29.402 65.642,25.357 70.132,25.357 65.396,32.378 
	70.338,39.729 65.746,39.729 62.986,35.397 60.204,39.729 55.714,39.729 "/>
<g>
	<defs>
		<rect id="SVGID_1_" width="181.204" height="64.849"/>
	</defs>
	<clipPath id="SVGID_2_">
		<use xlink:href="#SVGID_1_"  overflow="visible"/>
	</clipPath>
	<path clip-path="url(#SVGID_2_)" fill="#FFFFFF" d="M70.258,32.584v-0.041c0-4.126,3.338-7.473,7.786-7.473
		c4.449,0,7.745,3.306,7.745,7.433v0.04c0,4.127-3.337,7.474-7.786,7.474S70.258,36.711,70.258,32.584 M81.71,32.584v-0.041
		c0-2.073-1.503-3.88-3.707-3.88c-2.183,0-3.646,1.765-3.646,3.84v0.04c0,2.074,1.504,3.88,3.687,3.88
		C80.249,36.423,81.71,34.658,81.71,32.584"/>
	<polygon clip-path="url(#SVGID_2_)" fill="#FFFFFF" points="87.872,25.357 91.868,25.357 91.868,36.24 98.852,36.24 98.852,39.729 
		87.872,39.729 	"/>
	<path clip-path="url(#SVGID_2_)" fill="#FFFFFF" d="M99.965,33.426v-8.069h4.058v7.987c0,2.073,1.051,3.06,2.657,3.06
		c1.607,0,2.657-0.944,2.657-2.957v-8.089h4.058v7.966c0,4.641-2.656,6.673-6.756,6.673S99.965,37.922,99.965,33.426"/>
	<polygon clip-path="url(#SVGID_2_)" fill="#FFFFFF" points="119.288,28.848 114.962,28.848 114.962,25.357 127.609,25.357 
		127.609,28.848 123.284,28.848 123.284,39.729 119.288,39.729 	"/>
	<rect x="129.444" y="25.357" clip-path="url(#SVGID_2_)" fill="#FFFFFF" width="4.017" height="14.372"/>
	<path clip-path="url(#SVGID_2_)" fill="#FFFFFF" d="M135.604,32.584v-0.041c0-4.126,3.337-7.473,7.786-7.473
		c4.448,0,7.744,3.306,7.744,7.433v0.04c0,4.127-3.338,7.474-7.785,7.474C138.899,40.017,135.604,36.711,135.604,32.584
		 M147.057,32.584v-0.041c0-2.073-1.503-3.88-3.707-3.88c-2.185,0-3.647,1.765-3.647,3.84v0.04c0,2.074,1.504,3.88,3.688,3.88
		C145.594,36.423,147.057,34.658,147.057,32.584"/>
	<polygon clip-path="url(#SVGID_2_)" fill="#FFFFFF" points="153.218,25.357 156.946,25.357 162.878,32.955 162.878,25.357 
		166.832,25.357 166.832,39.729 163.331,39.729 157.172,31.845 157.172,39.729 153.218,39.729 	"/>
	<polygon clip-path="url(#SVGID_2_)" fill="#FFFFFF" points="21.37,17.906 25.857,17.906 34.346,29.39 36.553,26.419 27.653,14.372 
		14.372,14.372 27.674,32.446 19.99,42.783 24.387,42.783 32.054,32.421 	"/>
	<polygon clip-path="url(#SVGID_2_)" fill="#F8B132" points="47.261,46.943 42.774,46.943 34.285,35.459 32.078,38.43 
		40.978,50.477 54.259,50.477 40.957,32.403 48.641,22.066 44.244,22.066 36.577,32.428 	"/>
</g>
</svg>
