<?xml version="1.0" encoding="UTF-8"?>
<svg width="90px" height="62px" viewBox="0 0 90 62" version="1.1" xmlns="http://www.w3.org/2000/svg" xmlns:xlink="http://www.w3.org/1999/xlink">
    <!-- Generator: sketchtool 63.1 (101010) - https://sketch.com -->
    <title>41D773CB-A3EE-4A70-8AF7-5A73B2ADAAD7</title>
    <desc>Created with sketchtool.</desc>
    <g id="Asset-Artboard-Page" stroke="none" stroke-width="1" fill="none" fill-rule="evenodd">
        <g id="icon-support">
            <g>
                <path d="M34.8063995,28.3776796 C34.7196395,28.3529596 34.6308395,28.3390396 34.5414395,28.3342396 C35.8559195,26.9526796 36.6654395,25.0863197 36.6654395,23.0333597 L36.6654395,16.7200399 C36.6654395,16.6623199 36.6599195,16.6060399 36.6521195,16.5505999 C36.6600395,16.4365999 36.6654395,16.3218799 36.6654395,16.2059599 L36.6654395,12.21164 C36.6654395,11.54888 36.1281995,11.01164 35.4654395,11.01164 L27.4166797,11.01164 C24.0272798,11.01164 21.2699198,13.7691199 21.2699198,17.1583999 L21.2699198,23.0333597 C21.2699198,25.0863197 22.0793198,26.9526796 23.3939198,28.3342396 C23.3046398,28.3390396 23.2158398,28.3529596 23.1291998,28.3776796 C17.4583599,28.8911596 13,33.6708795 13,39.4731194 L13,44.5999992 C13,45.2627592 13.53724,45.7999992 14.2,45.7999992 L43.7352393,45.7999992 C44.3979993,45.7999992 44.9352393,45.2627592 44.9352393,44.5999992 L44.9352393,39.4731194 C44.9352393,33.6709995 40.4771194,28.8912796 34.8063995,28.3776796 Z M23.6699198,18.6801198 L23.6699198,17.1582799 C23.6699198,15.0923599 25.3507597,13.4115199 27.4166797,13.4115199 L34.2654395,13.4115199 L34.2654395,16.2058399 C34.2654395,17.6125999 33.1209996,18.7570398 31.7142396,18.7570398 L23.6699198,18.7570398 L23.6699198,18.6801198 Z M23.6699198,21.1570398 L31.7142396,21.1570398 C32.6468796,21.1570398 33.5198795,20.8975998 34.2654395,20.4473598 L34.2654395,23.0332397 C34.2654395,25.9543997 31.8888396,28.3309996 28.9676796,28.3309996 C26.0465197,28.3309996 23.6699198,25.9543997 23.6699198,23.0332397 L23.6699198,21.1570398 Z M31.5794796,30.7311196 L28.9676796,33.3430395 L26.3558797,30.7311196 L31.5794796,30.7311196 Z M42.5353593,43.3999993 L42.5353593,43.3999993 L15.3999999,43.3999993 L15.3999999,40.9999993 L20.3799998,40.9999993 C21.0427598,40.9999993 21.5799998,40.4627593 21.5799998,39.7999994 C21.5799998,39.1372394 21.0427598,38.5999994 20.3799998,38.5999994 L15.4437999,38.5999994 C15.8468799,34.5540795 19.0205199,31.3139595 23.0343998,30.8037196 L28.1191597,35.8884794 C28.3441597,36.1134794 28.6494397,36.2399594 28.9676796,36.2399594 C29.2859196,36.2399594 29.5911996,36.1134794 29.8161996,35.8884794 L34.9009595,30.8037196 C39.1998394,31.3500795 42.5353593,35.0281995 42.5353593,39.4731194 L42.5353593,43.3999993 Z" id="Shape" fill="#5B467A" fill-rule="nonzero"></path>
                <rect id="Rectangle" fill="#1EA2C4" x="52" y="21" width="24" height="20" rx="3"></rect>
                <path d="M68.4399988,23.2399997 L53.3700391,23.2399997 C50.8891592,23.2399997 48.7257992,24.7288397 47.8181192,26.9599996 L43.2000393,26.9599996 C42.7147593,26.9599996 42.2771193,27.2524396 42.0913593,27.7007596 C41.9055994,28.1490796 42.0083194,28.6653196 42.3513993,29.0085196 L47.3699192,34.0270395 L47.3699192,39.7999994 C47.3699192,43.1083993 50.0615192,45.7999992 53.3699191,45.7999992 L68.4399988,45.7999992 C71.7483987,45.7999992 74.4399986,43.1083993 74.4399986,39.7999994 L74.4399986,29.2399997 C74.4399986,25.9315997 71.7483987,23.2399997 68.4399988,23.2399997 Z M72.0399987,39.7999994 C72.0399987,41.7850393 70.4250387,43.3999993 68.4399988,43.3999993 L53.3700391,43.3999993 C51.3849991,43.3999993 49.7700392,41.7850393 49.7700392,39.7999994 L49.7700392,33.5299995 C49.7700392,33.2117595 49.6435592,32.9064795 49.4185592,32.6814795 L46.0970793,29.3599996 L48.6935192,29.3599996 C49.2525992,29.3599996 49.7376392,28.9739596 49.8630392,28.4290396 C50.2407992,26.7869596 51.6828391,25.6399997 53.3700391,25.6399997 L68.4399988,25.6399997 C70.4250387,25.6399997 72.0399987,27.2549596 72.0399987,29.2399996 L72.0399987,39.7999994 Z" id="Shape" fill="#5B467A" fill-rule="nonzero"></path>
                <path d="M66.2987188,31.3270395 C65.8302388,30.8584396 65.0703988,30.8584396 64.6017988,31.3270395 L61.4118389,34.5169995 L59.928519,33.0336795 C59.459919,32.5650795 58.700079,32.5650795 58.231359,33.0336795 C57.762759,33.5022795 57.762759,34.2621195 58.231359,34.7308395 L60.5631989,37.0626794 C60.7975589,37.2970394 61.1046389,37.4141594 61.4117189,37.4141594 C61.7187989,37.4141594 62.0259989,37.2970394 62.2602389,37.0626794 L66.2987188,33.0241995 C66.7673188,32.5555995 66.7673188,31.7957595 66.2987188,31.3270395 Z" id="Path" fill="#FFFFFF" fill-rule="nonzero"></path>
                <path d="M26.0283997,38.9515994 C25.8051997,38.7283994 25.4955997,38.5999994 25.1799997,38.5999994 C24.8643997,38.5999994 24.5547997,38.7283994 24.3315997,38.9515994 C24.1083998,39.1747994 23.9799998,39.4843994 23.9799998,39.7999994 C23.9799998,40.1155993 24.1083998,40.4251993 24.3315997,40.6483993 C24.5547997,40.8715993 24.8643997,40.9999993 25.1799997,40.9999993 C25.4955997,40.9999993 25.8051997,40.8715993 26.0283997,40.6483993 C26.2515997,40.4251993 26.3799997,40.1155993 26.3799997,39.7999994 C26.3799997,39.4843994 26.2515997,39.1747994 26.0283997,38.9515994 Z" id="Path" fill="#5B467A" fill-rule="nonzero"></path>
                <rect id="Rectangle" fill="#D8D8D8" opacity="0" x="0" y="0" width="90" height="62"></rect>
            </g>
        </g>
    </g>
</svg>