<?xml version="1.0" encoding="UTF-8"?>
<svg width="90px" height="62px" viewBox="0 0 90 62" version="1.1" xmlns="http://www.w3.org/2000/svg" xmlns:xlink="http://www.w3.org/1999/xlink">
    <!-- Generator: sketchtool 63.1 (101010) - https://sketch.com -->
    <title>D02FE1EB-94FE-4389-9FCF-F6B1B86A8B5B</title>
    <desc>Created with sketchtool.</desc>
    <g id="Asset-Artboard-Page" stroke="none" stroke-width="1" fill="none" fill-rule="evenodd">
        <g id="icon-language">
            <g>
                <path d="M48.5,46 C57.9,40.5 62.5,47.7 72.5,44 L72.5,29 C62.5,32.7 57.9,25.5 48.5,31 L48.5,46 Z" id="Path" fill="#1EA2C4" fill-rule="nonzero"></path>
                <path d="M71.1,26.2 C70.8,26 70.5,26 70.2,26.1 C65.8,27.7 62.5,27.1 59.3,26.5 C56.9,26.1 54.4,25.6 51.6,26.1 L51.6,25.1 C51.6,23.4 50.3,22.1 48.6,22.1 C46.9,22.1 45.6,23.4 45.6,25.1 L45.6,29.1 L45.6,44.1 L45.6,54.1 L47.6,54.1 L47.6,44.7 C48.3,44.3 49,44 49.6,43.8 L49.6,54 L51.6,54 L51.6,43.1 C54.2,42.6 56.5,43 58.9,43.4 C62.2,44 66,44.7 70.9,42.9 C71.3,42.8 71.6,42.4 71.6,42 L71.6,27 C71.5,26.7 71.3,26.4 71.1,26.2 Z M48.5,24 C49.1,24 49.5,24.4 49.5,25 L49.5,26.5 C48.9,26.7 48.2,27 47.5,27.3 L47.5,25 C47.5,24.4 47.9,24 48.5,24 Z M69.5,41.3 C65.4,42.6 62.3,42 59.2,41.5 C55.7,40.9 52.1,40.2 47.5,42.4 L47.5,29.6 C52,27.2 55.2,27.8 58.8,28.4 C61.8,29 65.2,29.6 69.5,28.4 L69.5,41.3 Z M48.8,20.4 C51.8,21 55.2,21.6 59.5,20.4 L59.5,25 L61.5,25 L61.5,19 C61.5,18.7 61.3,18.4 61.1,18.2 C60.8,18 60.5,18 60.2,18.1 C55.8,19.7 52.5,19.1 49.3,18.5 C46.9,18.1 44.4,17.6 41.6,18.1 L41.6,17.1 C41.6,15.4 40.3,14.1 38.6,14.1 C36.9,14.1 35.6,15.4 35.6,17.1 L35.6,21.1 L35.6,36.1 L35.6,54.1 L37.6,54.1 L37.6,36.6 C38.3,36.2 38.9,35.9 39.6,35.7 L39.6,54 L41.6,54 L41.6,35.1 C42.3,35 42.9,34.9 43.6,34.9 L43.5,32.9 C41.5,33 39.5,33.5 37.5,34.4 L37.5,21.6 C42,19.2 45.2,19.7 48.8,20.4 Z M38.5,16 C39.1,16 39.5,16.4 39.5,17 L39.5,18.5 C38.9,18.7 38.2,19 37.5,19.3 L37.5,17 C37.5,16.4 37.9,16 38.5,16 Z M38.8,12.4 C41.8,13 45.2,13.6 49.5,12.4 L49.5,17 L51.5,17 L51.5,11 C51.5,10.7 51.3,10.4 51.1,10.2 C50.8,10 50.5,10 50.2,10.1 C45.8,11.7 42.5,11.1 39.3,10.5 C36.9,10.1 34.4,9.6 31.6,10.1 L31.6,9.1 C31.6,7.4 30.3,6.1 28.6,6.1 C26.9,6.1 25.6,7.4 25.6,9.1 L25.6,13.1 L25.6,28.1 L25.6,54.1 L27.6,54.1 L27.6,28.6 C28.3,28.2 28.9,27.9 29.6,27.7 L29.6,54 L31.6,54 L31.6,27.1 C32.3,27 32.9,26.9 33.6,26.9 L33.5,24.9 C31.5,25 29.5,25.5 27.5,26.4 L27.5,13.6 C32,11.2 35.2,11.7 38.8,12.4 Z M28.5,8 C29.1,8 29.5,8.4 29.5,9 L29.5,10.5 C28.9,10.7 28.2,11 27.5,11.3 L27.5,9 C27.5,8.4 27.9,8 28.5,8 Z" id="Shape" fill="#5B467A" fill-rule="nonzero"></path>
                <rect id="Rectangle-Copy-17" fill="#D8D8D8" opacity="0" x="0" y="0" width="90" height="62"></rect>
            </g>
        </g>
    </g>
</svg>