<?xml version="1.0" encoding="UTF-8"?>
<svg width="90px" height="62px" viewBox="0 0 90 62" version="1.1" xmlns="http://www.w3.org/2000/svg" xmlns:xlink="http://www.w3.org/1999/xlink">
    <!-- Generator: sketchtool 63.1 (101010) - https://sketch.com -->
    <title>617219C8-D53C-40BF-9754-C35310960DF5</title>
    <desc>Created with sketchtool.</desc>
    <g id="Asset-Artboard-Page" stroke="none" stroke-width="1" fill="none" fill-rule="evenodd">
        <g id="icon-chat">
            <g id="social-icon">
                <g id="messenger" transform="translate(61.000000, 19.000000) scale(-1, 1) translate(-61.000000, -19.000000) translate(47.000000, 5.000000)" fill-rule="nonzero">
                    <path d="M14,0 C6.2685,0 0,5.803 0,12.96225 C0,17.0415 2.03525,20.67975 5.21675,23.05625 L5.21675,28 L9.98375,25.38375 C11.256,25.7355 12.6035,25.92625 14,25.92625 C21.7315,25.92625 28,20.12325 28,12.964 C28,5.80475 21.7315,0 14,0 Z" id="Shape" stroke="#5B467A" stroke-width="2.33333333"></path>
                    <polygon id="Path" fill="#1EA2C4" transform="translate(13.957125, 13.394500) scale(-1, 1) translate(-13.957125, -13.394500) " points="15.39125 17.45625 11.8265 13.6535 4.87025 17.45625 12.523 9.33275 16.17525 13.1355 23.044 9.33275"></polygon>
                </g>
                <g id="icon-chat">
                    <path d="M33.0035,22 L32.9965,22 C25.27725,22 19,28.279 19,36 C19,39.0625 19.987,41.901 21.66525,44.20575 L19.9205,49.40675 L25.30175,47.6865 C27.5155,49.153 30.15625,50 33.0035,50 C40.72275,50 47,43.71925 47,36 C47,28.28075 40.72275,22 33.0035,22 Z" id="Shape" stroke="#5B467A" stroke-width="2.33333333" fill-rule="nonzero"></path>
                    <circle id="Oval" fill="#1EA2C4" cx="33.5833333" cy="35.4166667" r="11.0833333"></circle>
                    <path d="M39.7706147,40.1131121 C39.5091895,40.9060744 38.4716157,41.5637239 37.6439948,41.7557808 C37.0777992,41.8852737 36.3382231,41.9885771 33.8485878,40.8798848 C30.664076,39.4627375 28.61331,35.9867981 28.4534749,35.7612768 C28.3004125,35.5357554 27.1666667,33.9207312 27.1666667,32.250418 C27.1666667,30.5801047 27.9563606,29.7667727 28.2746763,29.4175783 C28.5361015,29.1309479 28.9681982,29 29.3826859,29 C29.5167849,29 29.6373385,29.0072749 29.7457013,29.0130948 C30.064017,29.0276446 30.2238521,29.0480142 30.4338051,29.5878106 C30.6952303,30.2643748 31.3318618,31.934688 31.4077157,32.1063753 C31.4849242,32.2780625 31.5621327,32.5108588 31.4537699,32.7363802 C31.3521798,32.9691765 31.2627805,33.0724798 31.1029453,33.2703566 C30.9431102,33.4682335 30.7914023,33.619551 30.6315672,33.8319776 C30.4852774,34.0167597 30.3200241,34.2146365 30.5042409,34.556556 C30.6884576,34.8912007 31.3250891,36.0071678 32.2624273,36.9034335 C33.472027,38.0601399 34.4527104,38.429704 34.8035349,38.5868415 C35.0649602,38.7032397 35.3765032,38.6755951 35.5674927,38.4573486 C35.8099544,38.1765381 36.1093067,37.7109455 36.414077,37.2526279 C36.6308026,36.9238031 36.9044187,36.8830638 37.1915801,36.9994619 C37.4841597,37.1085852 39.0323932,37.930647 39.3507089,38.1008793 C39.6690246,38.2725665 39.8789775,38.3540452 39.956186,38.4980879 C40.03204,38.6421306 40.03204,39.3186948 39.7706147,40.1131121 Z" id="Path" fill="#FFFFFF" fill-rule="nonzero"></path>
                    <rect id="Rectangle-Copy-16" fill="#D8D8D8" opacity="0" x="0" y="0" width="90" height="62"></rect>
                </g>
            </g>
        </g>
    </g>
</svg>